/* XPM */
static char *edfbbc92b9e246e5a680fa3401133729oW3X0dsADzjWDFoy[] = {
/* columns rows colors chars-per-pixel */
"50 50 182 2 ",
"   c #1B130C",
".  c #21160E",
"X  c #24190E",
"o  c #2B1E12",
"O  c #2F2110",
"+  c #342414",
"@  c #392716",
"#  c #3A2816",
"$  c #372518",
"%  c #3C2719",
"&  c #3D281A",
"*  c #422E16",
"=  c #422D1C",
"-  c #443016",
";  c #4A3316",
":  c #4D341A",
">  c #51371C",
",  c #553A1C",
"<  c #5A3D1E",
"1  c #533623",
"2  c #573A25",
"3  c #5A3A25",
"4  c #603E29",
"5  c #5E411E",
"6  c #66461E",
"7  c #5F4020",
"8  c #624320",
"9  c #6C4A22",
"0  c #66432A",
"q  c #69452B",
"w  c #6F482C",
"e  c #724E23",
"r  c #734B2F",
"t  c #765124",
"y  c #795324",
"u  c #744C30",
"i  c #7A4F32",
"p  c #7F5333",
"a  c #864723",
"s  c #8B4E2D",
"d  c #825A26",
"f  c #8E512E",
"g  c #845B29",
"h  c #885E2A",
"j  c #955227",
"k  c #92542E",
"l  c #99572A",
"z  c #9C5A2C",
"x  c #835535",
"c  c #825638",
"v  c #875A3A",
"b  c #8E5D3B",
"n  c #935631",
"m  c #965833",
"M  c #9B5B32",
"N  c #915F3B",
"B  c #A05D2F",
"V  c #A05E32",
"C  c #8E622A",
"Z  c #93652B",
"A  c #96682D",
"S  c #9A6A2D",
"D  c #97623E",
"F  c #9A643F",
"G  c #A5712E",
"H  c #AB762F",
"J  c #A26132",
"K  c #A96637",
"L  c #A36F31",
"P  c #AD6837",
"I  c #AA6738",
"U  c #AC6A3B",
"Y  c #A67232",
"T  c #A87332",
"R  c #AE7833",
"E  c #B57D35",
"W  c #B97F35",
"Q  c #9D6640",
"!  c #9F6844",
"~  c #A56C44",
"^  c #AB6E44",
"/  c #AD7146",
"(  c #B37245",
")  c #BB7646",
"_  c #BE7847",
"`  c #B3754A",
"'  c #BC774A",
"]  c #BE7A4A",
"[  c #C37E4E",
"{  c #C37F4E",
"}  c #C37E4F",
"|  c #C37F4F",
" . c #C27E4E",
".. c #C27D4D",
"X. c #C47F4C",
"o. c #C47E4E",
"O. c #C47F4E",
"+. c #C47E4F",
"@. c #C47F4F",
"#. c #C57F4F",
"$. c #C27D4D",
"%. c #C37D50",
"&. c #C37E50",
"*. c #C37F50",
"=. c #C37F51",
"-. c #C27F50",
";. c #C47E50",
":. c #C47F50",
">. c #C57F50",
",. c #C57F51",
"<. c #C57F52",
"1. c #C47F50",
"2. c #BD8237",
"3. c #BD8236",
"4. c #BF8438",
"5. c #BF8338",
"6. c #C08437",
"7. c #C58837",
"8. c #C18538",
"9. c #C78839",
"0. c #C8893A",
"q. c #CF8F3C",
"w. c #CC8C3A",
"e. c #D08F3B",
"r. c #D3913D",
"t. c #D5923C",
"y. c #D7943D",
"u. c #D7943D",
"i. c #D8943D",
"p. c #D8943D",
"a. c #C4804F",
"s. c #C5804F",
"d. c #C5804E",
"f. c #C6804E",
"g. c #C5804F",
"h. c #C38051",
"j. c #C38152",
"k. c #C48050",
"l. c #C58050",
"z. c #C58150",
"x. c #C48051",
"c. c #C58051",
"v. c #C58151",
"b. c #C68050",
"n. c #C68150",
"m. c #C68051",
"M. c #C68151",
"N. c #C78150",
"B. c #C78250",
"V. c #C68251",
"C. c #C48152",
"Z. c #C58152",
"A. c #C48153",
"S. c #C58153",
"D. c #C48253",
"F. c #C58253",
"G. c #C58252",
"H. c #C68252",
"J. c #C68253",
"K. c #C68353",
"L. c #C78353",
"P. c #C78352",
"I. c #C68153",
"U. c #C78354",
"Y. c #C58151",
"T. c #C88250",
"R. c #C98350",
"E. c #C88251",
"W. c #C88351",
"Q. c #C98351",
"!. c #C98351",
"~. c #CA8351",
"^. c #CA8251",
"/. c #C88151",
"(. c #C98451",
"). c #CA8451",
"_. c #CB8451",
"`. c #C88453",
"'. c #CB8452",
"]. c #C98554",
"[. c #CA8554",
"{. c #CB8555",
/* pixels */
"s k k k n n n m m M M M M m m M m m n n n n n n n k m n m n n k n m m m m n n s s s f n m m m m n a ",
"( `.B.X.B.E.`.E.U.U.A.E.B.B.U.].]._.`.T._.`.E.`.`.E.E.B.E.E.E.X.f.B.B.`.].`.`.E.E.E.E.U.{.].U.U.E.I ",
"U *.....X.B.T.f.B.U.].A.B.B.A.A.A.B.E.E.A.A.A.A.E.B.;.B.B.A.B.....B.B.B.B.B.A.j.A.;.A.U.A.B.B.;.X.I ",
"I ................h.;.*.*...........*.B.B.;.B.X.X.X.*.X.X.*.*.....*.h.h.;.X.;.B.;.*.%.*...........K ",
"U B.h.....;.;.*.f.B.h.B.A.;.h.B.*.<.B.;.B.X...X.h.B.h.B.A.A.B.*...V.V.B.A.B.;.B.B.;.....;.;.;.;.X.I ",
"U h.....X.B.X.*.....*.*.B.B.h.h.*.*.*.....*.......a.f.f.A.B.*...a.f.B.h.;.B.;.X.......X.X.;.*.X.X.I ",
"U *...' ..*.*.*.......] ..' ....] ..' ' ......................' ] ............' ..................I ",
"U ..' ' ] ..] ] ..' ' ' ....] ' ] ' ' ' ' ..' ..] ] ] ] ] ..' ' _ ' _ ' ..' ..' ' ' ' ' ' ........K ",
"U ......B.h.j.j.A.h.j.j.*.X.;...f.....] ....*...a.....X.*.;.........] ......*.........] ' ..;.;...I ",
"U ........;.B.B.;.B.*.B.f.h.f.B.h.;.....B.h.....h.f.*.*.....;.X.;.X.........B.B.B.h.B.....h.B.A.;.I ",
"U *.......*.B.h.B.....;.;.B.*.B.B.B...] ..h.*.*.a...X.....*.*...*.....%.%.;.B.h.B.*.a.] ' f.B.*.X.I ",
"U X.B.*.%.*.*.;.*.;.......*.B.h.j.h.] ] X.B.*.h.B.a.B.....;.X.;.B.;.*.*...;.h.B.B.B.f...] B.;.B.X.K ",
"U h.h.j.*.*...*.........X.B.B.B.B.B...] ] *.j.` c r D ] ..%.;.*.A.A.A.B.h.B.B.h.=.j.j.*.] f.B.h.;.I ",
"U B.B.B.;.*.*.*.%.....B.;.h.A.A.j.j./ 0 o O & > g A 9 # i ..X.;.;.B.A.B.B.;.h.f.*.B.;...] f.h.B.;.I ",
"U *.....;.B.h.h.*.*.X.;.X.B.*.B.f.~ @ < , : 4.t.y.t.y : # - q ] *.X.B.A.h.*.a.a.............*.....K ",
"U ] ' ] ' ..] ] ] ' ] ] ] ] ] ' p o 5.q.< 9 t.y.y.2., 6 6 _.y % / ] ] ] ] ] ] ..] ..' ' ' ' ] ] ..K ",
"U ....' ......................N : 0.y.i.i.i.y.y.y.r.e , Z y.i.Z @ ^ ..*...........] ] ] ] ....%...K ",
"U f.a.....;.;.;...*...;.a.h./ % 8.i.y.y.y.i.r.y.y.y.y.w.y.y.y.8.h $ ~ B.X.*.;.*.B.*.;.;.....*.*...K ",
"U B...' ..f.X.*.....*.X.f.h.& * w.y.y.y.y.E < 3 w.y.y.y.y.y.2., , 8 $ ] *.;.B.B.A.A.;.A.*.*.*.B...I ",
"U B.a.' ..f...*.*.X.....h./ . , S i.y.y.y.g 5 7 Z t.y.y.y.i.T , 7 y - ~ *.;.*.A.B.B.h.B.B.h.......I ",
"U h.h.' ....B.*.;.;.*.....3 Z S t.i.y.y.y.Y : : 3.y.p.p.y.y.r.y 8 8.y r *.B.f.a.*...%.;.X.*.a...X.I ",
"U A.f.' ..B...B.B.;.*.%.F * i.i.y.i.y.y.y.y.w.w.t.y.p.p.y.y.y.i.i.y.S 2 *.X.h.a.*.*.=.*.;.........I ",
"U f...' *.;.B.A.h.B.....r t i.i.q.r.y.y.y.y.y.y.t.y._.7.r.y.y.y.i.0.t + ' a.B.a.;.B.B.h.;.........I ",
"U ....' ] *.] ] *.*.] ..r y i.W 7 9 r.y.y.y.y.y.y.y.E : g y.y.y.i.Z ,   F ..] ....] ] ] ] ....] ..I ",
"U ] ] ] ....' ....' ....x 6 p.h 6 , E y.y.y.y.y.y.y.7.5 C y.y.y.y.w.C ; w ..] ] ..' ..' ' ........J ",
"U f.a.h.a.....f...*...X.D , p.2.8 9 e.y.y.y.y.y.y.y.y.t.y.y.y.p.p.p.7.6 0 d.f.h.B.h.B...] X.......P ",
"U a.V.V.B.....f...*.;.X.N 5 t.p.y.y.y.y.y.y.y.y 5 t.t.y.y.Y > C t.t.3.; x ..a.f.h.B.h.] ] B.B.;.X.I ",
"U V.V.h.j.*.*...*.*.B.h.N < p.p.y.y.y.y.y.y.e.2 5 H t.y.y.9 7 : 3.e.G + ( d.a.a.B.h.f...' ..;.*.;.I ",
"U h.B.X.;...*.h.B.A.B.h.` + g E y.y.y.y.4.q.y.e , 0.y.y.y.Y 5 y r.7.d 2 ..*.*.h.h.B.*...] ;.B.B.;.I ",
"U h.B.h.B.B.B.B.h.a.h.B...2 ; y y.y.y.W : 9 y.y.r.y.y.y.y.y.y.y.y.R , N B.f.*.f.B.h.h...' X.B.;.X.I ",
"^ X.B.*.j.B.=.A.f.B.B.h.X.Q   d y.y.y.8., t y.y.y.y.y.y.y.y.y.C 8 y $ ] ;.X.h.B.B.f.;.....X.;.X.;.I ",
"U ..................] ..] ] b & y.y.y.y.9.q.y.y.y.y.9.C 2.y.y.7 : X Q ......] ........' ' ........I ",
"U ..' ] ' ..' ] ] ] ] ' ..' ] 2 h t.i.i.i.t.y.y.y.y.8 7 5 t.7.A * r ] ..] ] ] ] ..' ] ' ' ] ] ....K ",
"U ........;.B.h.A.A.B.;.a.....( + 9 2.t.i.i.i.t.y.y.y , , H Z , # ] ..d.X.;.;.;.h.B.X...B.........I ",
"U f...] ..B.*...B.;.f.;.a.f.a.h.~ 1 * G 2.S Z q.r.7.6.g A e + q ( ..d.a.B.*.A.A.B.A.B.;.;...a...X.I ",
"U f.f.' ..X.*...*...*.X.a.h.f...X...v o - @ ; C G Z t e + 1 ( ' ] ..h.a.j.;.B.*.*...*.....*...*...I ",
"U h.a.' ..f.f.......*.X.a.*...*...*.;.` N 3 $ O O * q 0 D *.B.' a.B.B.B.*.*.B.*.%.%.*.*.......B.X.I ",
"U B.h.] ..a...a...*.......B.X...] ..X.;.A.j.j.] ] X.;.X.=.*.B.' ..*.......*.A.A.*.*.*.h.B.*.B.h.;.K ",
"U U.h.] a...f.h.X.*.......B.;.......*.B.A.A.B.A.B.;.X.;.;.*.;.' ..*...;.*.;.;.B.*.%.*.....B.*.;.X.I ",
"U h.*.' ..a.a...............*...........;.;.X.*.*.*.*...*.....] ............X...............*.....K ",
"U ] ] ' ' _ ' ' ] ] ' ' ' ..' ] ] ] ] ] ] ] ] ] ..' ..' ..' ' ' ] ] ] ' ' ....' ] ] ] ] ] ] ..] ..K ",
"U ....................*.X.......] ] ' ] ..............] ' ] ..........*.........] ..] ] ] ..' ....K ",
"U f.j.j.a.....;.B.A.A.j.h.B.B.B.=.=.....j.A.A.B.X.B.*.*.X.X.=.A.j.U.j.j.f.X.X.*.*.=.j.....%.;.X.;.U ",
"U f.h.B.h.f.;.;.B.A.A.B.B.B.A.h.B.*.....B.j.A.B.*.B.B.B.;.B.;.B.B.h.B.B.B.;.*.*.;.;.B.] ' %.*.;.;.I ",
"U ..h...*.;.B.*.B.B.B.;.h...h.h.*.*...' ..B.B...*.*.B.*.;.X.;.*.....*.....B.....*.B.B.] ' X.;.;.;.I ",
"U B.*.....*.*.*.*.*.*...h.B.B.B.=.*.' ] ;.j.h.B.X.B.B.;.E.A.B.j.*.....*...*.;.B.*.A.j.*.' X.;.;.X.I ",
"U B.f.....X.*...*.....%...B.*.A.B.*.] ] ;.B.B.;.*.B.B.*.X.;.X.X.........*.B.;.B.B.A.B.] ] ..B.A.;.I ",
"U f...h.;.;.*.*...............*.*.B...] ..h.;.................X.h.........*.A.h.B.;.*.....*.h.B.X.I ",
"U ' ' ..) ' ..' ' .._ ' .._ _ _ _ _ ) ) _ _ ) ) _ ) ) ( ( ( U .._ ) ' .._ ..' ] ' ' _ ) ) ) ' _ ) P ",
"V S V V B B V z z z M B V j l l z z z l z z z l l z z z B B B B z z z l l z z B B J J S V V V V B j "
};
