/* XPM */
static char *result[] = {
/* columns rows colors chars-per-pixel */
"50 50 215 2 ",
"   c #141D0B",
".  c #151B08",
"X  c #162207",
"o  c #1B250C",
"O  c #19250D",
"+  c #1E2812",
"@  c #222D0D",
"#  c #2D3D0D",
"$  c #25340C",
"%  c #242D13",
"&  c #312D1D",
"*  c #253313",
"=  c #2A3614",
"-  c #2C3C13",
";  c #2B3518",
":  c #263C17",
">  c #323D17",
",  c #323D1B",
"<  c #36450E",
"1  c #2C411A",
"2  c #344415",
"3  c #3B4D14",
"4  c #34441C",
"5  c #354A1C",
"6  c #3C4C1C",
"7  c #384917",
"8  c #3E531B",
"9  c #3B5217",
"0  c #364D24",
"q  c #3A4A22",
"w  c #3B5223",
"e  c #3B532B",
"r  c #414D1B",
"t  c #45541B",
"y  c #49561D",
"u  c #4C5C1D",
"i  c #455615",
"p  c #515E1B",
"a  c #4E621E",
"s  c #4B6015",
"d  c #52641D",
"f  c #5B6B1E",
"g  c #434C24",
"h  c #494D24",
"j  c #455323",
"k  c #435A23",
"l  c #4D5D24",
"z  c #445C2C",
"x  c #4C5B2B",
"c  c #485527",
"v  c #515E25",
"b  c #53592A",
"n  c #515F30",
"m  c #514F30",
"M  c #615F27",
"N  c #7C5B3D",
"B  c #675533",
"V  c #4E6325",
"C  c #4D632C",
"Z  c #536424",
"A  c #576926",
"S  c #5C6C24",
"D  c #53652B",
"F  c #5A642B",
"G  c #556A2C",
"H  c #5B6D2C",
"J  c #5F712D",
"K  c #5C6B32",
"L  c #5A6737",
"P  c #5C7132",
"I  c #5F713A",
"U  c #616F23",
"Y  c #626E2D",
"T  c #647423",
"R  c #697826",
"E  c #63742C",
"W  c #69762A",
"Q  c #65792D",
"!  c #6B7B2C",
"~  c #667825",
"^  c #707C2E",
"/  c #686937",
"(  c #746738",
")  c #647433",
"_  c #667934",
"`  c #6B7D34",
"'  c #69763A",
"]  c #667939",
"[  c #6B7D3B",
"{  c #687534",
"}  c #727E34",
"|  c #737639",
" . c #747C3D",
".. c #787C3C",
"X. c #7D6444",
"o. c #687841",
"O. c #7A7B49",
"+. c #8B4E2D",
"@. c #864723",
"#. c #8E512E",
"$. c #92542E",
"%. c #99572A",
"&. c #9C5A2C",
"*. c #955227",
"=. c #815F38",
"-. c #935631",
";. c #965833",
":. c #9B5B32",
">. c #A05D2F",
",. c #A05E32",
"<. c #89653E",
"1. c #84793E",
"2. c #9A683F",
"3. c #A96637",
"4. c #AD6837",
"5. c #AA6738",
"6. c #AC6A3B",
"7. c #A26132",
"8. c #8D6C44",
"9. c #897847",
"0. c #947C49",
"q. c #9B7B4C",
"w. c #9A7748",
"e. c #9D7B55",
"r. c #92714D",
"t. c #A4744B",
"y. c #A5784A",
"u. c #B47143",
"i. c #BC7746",
"p. c #BE7847",
"a. c #BA774A",
"s. c #B47C4E",
"d. c #BE7A4A",
"f. c #B2764C",
"g. c #AD7E52",
"h. c #A87C57",
"j. c #B27D52",
"k. c #BD7E51",
"l. c #B57F5A",
"z. c #C37D4E",
"x. c #C37F50",
"c. c #6B802F",
"v. c #72822E",
"b. c #6D8134",
"n. c #6E813B",
"m. c #738334",
"M. c #788737",
"N. c #7A8A35",
"B. c #73843B",
"V. c #79843B",
"C. c #76893C",
"Z. c #7C8C3C",
"A. c #778835",
"S. c #7D923E",
"D. c #6D8242",
"F. c #6F8348",
"G. c #738342",
"H. c #758A44",
"J. c #7C8D44",
"K. c #7D8D4A",
"L. c #798548",
"P. c #7E9243",
"I. c #7D924A",
"U. c #808F3F",
"Y. c #82933E",
"T. c #889B3F",
"R. c #858846",
"E. c #839443",
"W. c #859A45",
"Q. c #8B9B45",
"!. c #83934A",
"~. c #8B9C4B",
"^. c #869846",
"/. c #888857",
"(. c #938C57",
"). c #839252",
"_. c #8D9D53",
"`. c #899654",
"'. c #969958",
"]. c #9A834F",
"[. c #A78555",
"{. c #B48353",
"}. c #BC8053",
"|. c #BD835B",
" X c #AA9356",
".X c #A79A5B",
"XX c #8EA24D",
"oX c #92A34E",
"OX c #91A247",
"+X c #8EA050",
"@X c #93A353",
"#X c #9AA953",
"$X c #97A757",
"%X c #858F61",
"&X c #959963",
"*X c #999778",
"=X c #939067",
"-X c #AC8663",
";X c #A19461",
":X c #9DA16C",
">X c #ACB07B",
",X c #C5804F",
"<X c #C58151",
"1X c #C98352",
"2X c #C18358",
"3X c #999C81",
"4X c #A7A28E",
"5X c #AEB28F",
"6X c #B6B896",
"7X c #C7C5A6",
"8X c #D4CBB4",
"9X c #DBD7C3",
"0X c #EAE6D2",
"qX c #F0ECDC",
"wX c #E7E4CC",
/* pixels */
"+.$.$.$.-.-.-.;.:.:.:.;.;.;.;.:.;.;.-.-.$.-.-.-.-.-.;.;.-.-.$.$.&.-.;.;.;.-.-.+.+.+.-.-.:.;.;.;.-.@.",
"u.1X1X,X<X1X1X1X1X<X2X1X1X1X<X1X1X1X1X1X1X1X1X1X1X1X1X<X1X1X1X,Xz.1X1X1X1X1X1X1X1Xx.1X1X1X1X1X1Xx.6.",
"6.x.z.d.z.z.,X1X<X1X1X1Xx.1X<X1X2X|.|.|.|.|.2X2X<X2X<X<X<X<X<Xz.z.x.<X<Xx.<X<X<Xx.x.x.<Xx.x.x.x.x.4.",
"6.z.z.d.z.z.z.z.z.x.x.x.x.z.z.z.k.r./.)././.O.`.'.(.-X<X<Xx.}.l.-X&X(.[.x.x.x.<Xx.x.x.x.z.z.z.z.z.4.",
"6.x.x.z.z.,X,Xz.x.x.1Xx.2Xx.<Xh.L.).I.@XB.b.b.C.Y.H. .;Xe.r.(.`.).B.Z.I./.j.1X,X<Xx.z.z.z.z.x.x.x.4.",
"6.x.x.d.z.,X,X,Xz.z.x.x.x.x.[.G.' C.R.!.n.k P { { H.S.H.H [ `.I.K.J.XX_ ).!.[.z.x.x.z.z.z.x.x.x.x.4.",
"6.z.d.d.z.z.x.z.z.a.z.a.z.j.L J.) E } [ ) w 0 V B.` E.G W ` ) I.@XC.C.[ D.E._.g.z.z.z.z.z.z.z.z.z.3.",
"6.z.d.d.d.z.d.z.z.a.z.a.k.9.D G D E ) Y x 5 1 G C.A G.7 K Z E C.} H.P.C.H.b.Z.(.a.a.z.i.i.z.i.z.a.3.",
"6.z.z.z.<X<X<X<X<X<X<X|.h.o.I C 9 w C C C e : 1 l I z 0 r Z v.` C.C.C.` H._ J.`.z.z.z.d.z.z.z.x.z.4.",
"6.z.z.z.z.x.<X<X<Xh.O.' G.) V 8 V C e z e w w 1 0 j e 1 F E | 2 m.B.Q I.[ G H ' <X,Xz.z.d.<X<X1Xx.4.",
"6.z.z.z.z.x.<X<X9.B.A.{ D.] V t 1 1 0 0 0 C z 5 0 : q : 9 j x y ` H.H.m.b.C A _ j.z.,Xz.d.z.<Xz.x.5.",
"6.<Xz.z.z.x.x.s.Y ! !.[ G H.H K 5 : : 1 w C H.C 0 w G L K c g P [ P 3 d H 8 9 Z e.<Xz.z.z.z.<X,Xz.4.",
"6.<X<X<X<Xz.z.0.B.` G.) G.G._ [ C w w G G G m.H.w k P o.o.[ ] l 3 _ _ S V C P H.(.<X<Xz.d.z.<X<Xx.4.",
"6.<X<Xz.<X,Xx.L.H u t K ] l ` H 5 t V G ` C.+X_.J Z J I [ [ E.) 2 ` A B.P.D.F.I.O.z.,Xz.z.z.,X,Xx.5.",
"6.z.,Xz.z.<X}. .t L F n.` H H.P V f c.c.b.A.m.S.b.n.! n.J.I.E.J.l P.` ! XXn.F.] !.h.z.d.z.z.x.z.z.4.",
"6.d.d.d.d.d.a.L.Y ) V B.l ) D G i c.S.N.Q S.J P._ ) A _ _ ] E [ ] ` H.` W.n.H.[ K.O.d.a.a.d.d.d.z.,.",
"6.z.z.p.z.z.z.( Z j j ) v H K x P b.S C.d Z.J.P._ J K P B.J.n.S E u A C.B.{ b.D.H L.x.d.z.d.z.z.z.3.",
"6.z.z.z.z.,X<X8.v K t l y Z H , 1 Z A G H H ] Q ) V 3 K A C.B.S.R.7 l r ) ` ] [ I e.x.x.z.z.x.x.z.4.",
"6.<Xz.d.z.,Xz.t.b t x g ' F , % % p Z A o.I x l F.7 u t A [ A _ j > k ) ] ' D.H O.x.x.x.<Xz.x.z.z.4.",
"6.<Xz.d.z.,Xz.z.N 7 > * , ,     4 y l r g 2 4 g q = 6 d A H J x * > 2 H Z B.o.C h.<Xx.x.<Xz.z.z.z.5.",
"6.<Xz.d.z.,X,Xx.x.X.g , @ . @   o h r ; + x O : X O $ 7 l y x * .   O + Y 2 X.j.x.k.z.x.z.z.z.z.z.5.",
"6.<Xz.d.z.,Xz.<Xx.x.<., & @ r .   X     + O X < s a 9 1 l u + O .   + 7 v N z.,Xx.x.x.x.x.z.z.z.z.4.",
"6.z.z.d.z.x.<X<X<X<Xt.r m m U X > < $ O $ 2 / O.B.m.%X=X' J 2 7 - 2 x y 0.x.,X,Xx.x.<Xx.x.z.z.z.z.5.",
"6.d.z.d.d.z.z.z.z.x.d.b =.q.C.# i d 3 < A | 7X0X5X:XwXqX5Xb.8 P D.E.` | k.d.d.d.z.d.z.z.z.d.z.d.z.3.",
"6.z.z.p.z.z.d.z.z.z.z.9.b d.9.J p R f s W =X8X9X0X7X9X0X9XK.a _ I.$XS.0.d.d.z.z.z.z.z.p.p.z.z.z.a.3.",
"6.z.,X,Xz.z.z.z.z.z.z.s.m.2.x...R A.R f W (.4X& 7X5X& 4X7XI.J A.+X$XY.{.z.,X,X,Xz.z.z.z.a.z.z.z.z.3.",
"6.<X<X<X<Xz.z.z.z.z.z.}.R.| <X..! m.^ f U | :X*X>X'.3X6X_.P.J W.+X$X!.d.z.z.z.,X<X<Xz.z.z.z.,X1Xz.4.",
"6.,X<X<X<Xx.z.z.<X,X,X<X].V.y.9.E T ^ U U R ^ R.#X#X!.!.A.P.A XXoX#X`.x.z.z.z.,X,X,Xz.z.d.z.<X<Xz.6.",
"6.<X<Xz.<X,Xz.<X<X<X<X<Xs.Y.1.R.f U A.T v.v.U.U.OX#XoXQ.W.~.d S.W.XX$Xx.,Xz.z.,X<X<X<Xz.d.z.z.<Xx.5.",
"6.<X<X,X<Xz.x.1X,X,X,X,Xz.R...v.U } m.~ N.Q.V.U.R.Y.~.K.I.~.Z c.P.XX.Xx.x.,X<X,X,X<Xx.z.z.z.<Xz.z.4.",
"6.<X,X,X<X<X<X<X,X,X,Xz.1Xq.V.v.W m.A.m.V.c . @ > b , . o G.d b.W.XX X,Xz.<Xz.,Xz.,Xz.z.z.z.z.z.z.6.",
"6.z.z.z.z.z.z.z.z.z.z.z.z.d...B.! m.Z.A.p o % C g = o * j j d b.Q.W.[.z.z.z.z.z.z.z.z.d.p.z.z.z.z.3.",
"6.d.z.p.d.z.d.d.d.d.z.d.z.d.w.m.A.W m.N.{ l Z.E.oX_.R.~.oXoX_.f W.Q.[.d.z.d.d.z.d.d.z.d.d.d.d.d.z.7.",
"6.,Xz.d.z.z.<X<X<X<Xx.,Xz.z.d.R.` E } C.Q m.Y.U.A.A.Z.Y.^.OX_.y S.OX X,Xz.z.z.z.x.,Xz.z.z.z.z.z.z.3.",
"6.,Xz.d.z.,Xz.z.z.x.,Xz.,X<Xx.j. .H W U.! v.Y.N.Z.v.^ T.oXQ._.t A.#X X,X<X<X<X<X<X<X<X<Xx.z.z.z.z.6.",
"6.,X,Xd.z.x.x.z.x.z.z.<X,Xz.x.z.9.S ` A.T R Y.m.Z.N.Y.OX@X^.~.3 c.OX.X,X<X<X<X,X,Xz.z.z.z.z.x.z.z.4.",
"6.,X,Xa.z.,Xz.z.z.z.z.z.,X<Xz.x.w.T m.A.R ^ Y.R Y.Y.Q.Q.OXE.$X3 c.T.'.,Xz.,X<X<Xx.x.z.x.z.z.z.z.z.5.",
"6.,Xz.d.z.,X,Xz.z.z.z.z.z.z.z.z.].E Z.U.R R Z.! m.N.U.Y.oX^._.< b.T.~.,Xz.,X<X<Xx.x.x.x.x.,X<X<Xx.5.",
"6.<X<Xd.z.z.,X,Xz.z.z.z.z.<X,Xz.{.! M.Z.R R U.} N.^.E.~.oX~.'.# b.S.W.}.z.z.<X<Xx.x.z.z.,X,X<X<Xz.4.",
"6.<X<Xd.z.,X,Xz.z.z.z.z.z.z.z.z.s.} ^ Z.! T Z.m.A.^.Q.oXoX$X_.# S S.I.{.z.z.z.z.z.z.z.z.z.z.z.z.z.3.",
"6.d.d.d.a.p.p.z.d.d.d.d.d.d.d.d.s.} R N.! S C.M.A.V.Q._.Q.oX@X7 J S.E.{.d.d.z.z.d.a.d.d.d.z.d.z.p.3.",
"6.z.z.z.z.p.z.z.z.z.z.x.z.z.z.z.d...R B.v.U B.m.U.E.U.Q.Y.T._.j A S.~.{.z.z.z.z.d.z.d.d.d.d.a.z.z.3.",
"6.z.<X<Xz.x.z.x.<X<X<X<X<X,X,X<Xx.9.R m.} f A.A.U.E.U.Q.~.Q.~.2 H S.W.{.z.z.z.z.z.x.<Xz.z.z.z.z.z.6.",
"6.,X<X<X<Xz.x.x.<X<X<X<X<X<X<X<X1Xq.R m.m.f m.} Z.Z.m.Q.E.R.!.2 H B.Z.{.1Xz.x.z.x.x.<Xz.a.z.x.x.z.6.",
"6.z.z.z.z.<X<Xx.<X<X<X,X,X,X,X,Xx.g.W ^ ! S m.! Z.Y.Z.U.B.U.K.# H C.B.{.,Xx.z.z.z.<Xz.z.z.z.x.x.z.6.",
"6.,Xx.z.z.z.x.x.x.<Xz.x.,X<X<X<Xx.x.( W W p Y ! A.Z.A.Z.W C.C.2 J b.G.<Xz.,X,X<X<X<X<Xd.i.z.z.z.,X3.",
"6.,Xz.z.z.z.x.z.z.z.z.z.z.<X<X<Xx.x.w./ Y u b E ! A.Z.Z.Y  . .h / O.q.z.x.,Xx.1X<X<Xx.z.z.x.x.x.,X3.",
"6.z.z.1Xz.<X<Xz.z.z.d.z.z.z.z.z.z.z.z.f.8.N B / W { V.../ 9.t.f.k.d.z.z.z.z.<X<X<X<Xz.z.z.x.x.1X,X6.",
"6.d.p.p.p.d.d.d.z.p.p.d.p.p.d.p.p.p.i.u.p.i.i.u.2.<.8.u.u.u.u.p.p.i.p.z.p.z.d.d.d.d.i.p.i.i.p.p.p.3.",
"7.,.,.,.&.,.>.:.&.&.:.>.,.%.%.%.&.&.&.&.&.&.%.&.&.&.>.&.&.&.&.&.&.&.&.%.*.&.&.>.>.,.,.:.:.,.7.7.&.*."
};
