/* XPM */
static char *result[] = {
/* columns rows colors chars-per-pixel */
"50 50 195 2 ",
"   c #030405",
".  c #03070B",
"X  c #0C0A09",
"o  c #06090D",
"O  c #120D09",
"+  c #16100C",
"@  c #1D130D",
"#  c #020A13",
"$  c #010D1A",
"%  c #0B0D11",
"&  c #09121A",
"*  c #04111F",
"=  c #121313",
"-  c #1B1917",
";  c #16181C",
":  c #1D1C1C",
">  c #21160E",
",  c #211710",
"<  c #231811",
"1  c #2B1C13",
"2  c #25221F",
"3  c #382619",
"4  c #3D281B",
"5  c #312016",
"6  c #021223",
"7  c #02162C",
"8  c #0C1927",
"9  c #111B26",
"0  c #021B35",
"q  c #0C233A",
"w  c #1C2228",
"e  c #232324",
"r  c #2C2C2C",
"t  c #282626",
"y  c #362C26",
"u  c #2D2F31",
"i  c #23303D",
"p  c #353536",
"a  c #432D1E",
"s  c #49301F",
"d  c #4C3321",
"f  c #573A26",
"g  c #4E3F36",
"h  c #613F28",
"j  c #6C462C",
"k  c #65422B",
"l  c #785135",
"z  c #012244",
"x  c #022549",
"c  c #022C57",
"v  c #0D355F",
"b  c #273341",
"n  c #023162",
"m  c #02376D",
"M  c #013A74",
"N  c #013E7D",
"B  c #173E69",
"V  c #3C444F",
"C  c #2F547B",
"Z  c #464748",
"A  c #4E4F52",
"S  c #565657",
"D  c #544A4B",
"F  c #6F5343",
"G  c #715648",
"H  c #726A6B",
"J  c #76726F",
"K  c #696C72",
"L  c #8B4E2D",
"P  c #864723",
"I  c #8E512E",
"U  c #93542D",
"Y  c #99572A",
"T  c #9C5A2C",
"R  c #955227",
"E  c #835636",
"W  c #8D5D3B",
"Q  c #935631",
"!  c #965833",
"~  c #9B5B32",
"^  c #A05D2F",
"/  c #A05E32",
"(  c #95623E",
")  c #9A653F",
"_  c #A96637",
"`  c #AD6837",
"'  c #AA6738",
"]  c #AC6A3B",
"[  c #A26132",
"{  c #9D6741",
"}  c #907059",
"|  c #A46B44",
" . c #AA6E45",
".. c #AD7146",
"X. c #AB724A",
"o. c #B57244",
"O. c #BB7646",
"+. c #BE7847",
"@. c #B3754B",
"#. c #BA7749",
"$. c #BE7A4A",
"%. c #C37D4E",
"&. c #C37F50",
"*. c #BB9378",
"=. c #C5804F",
"-. c #C58151",
";. c #C98352",
":. c #C99D7D",
">. c #024182",
",. c #01478E",
"<. c #01488F",
"1. c #024A94",
"2. c #014E9B",
"3. c #04509F",
"4. c #1F5D9F",
"5. c #1C4E85",
"6. c #3E6085",
"7. c #0151A2",
"8. c #0156AC",
"9. c #0358AE",
"0. c #0D5CAD",
"q. c #005AB4",
"w. c #015DBB",
"e. c #0B62BA",
"r. c #516E96",
"t. c #0162C4",
"y. c #0065CA",
"u. c #0D6CCC",
"i. c #0968C8",
"p. c #106CCA",
"a. c #1571CE",
"s. c #1A73CF",
"d. c #1B74D0",
"f. c #2F76C0",
"g. c #267AD1",
"h. c #2A7DD2",
"j. c #7F93A8",
"k. c #6E92B7",
"l. c #3A87D6",
"z. c #4787CA",
"x. c #458DD6",
"c. c #4E92D9",
"v. c #5697DB",
"b. c #649FDE",
"n. c #6CA3DE",
"m. c #67A1DF",
"M. c #6EA5E0",
"N. c #75AAE1",
"B. c #79ACE2",
"V. c #70A6E0",
"C. c #878889",
"Z. c #959698",
"A. c #888E97",
"S. c #96A2AF",
"D. c #B8B9BB",
"F. c #B5B5B8",
"G. c #A4A5A7",
"H. c #C9A085",
"J. c #80A0C0",
"K. c #9EAFC2",
"L. c #81AFDE",
"P. c #A7B3C2",
"I. c #8FB8E6",
"U. c #84B2E4",
"Y. c #98BFE8",
"T. c #9DC1E9",
"R. c #A4C6EB",
"E. c #AFCCED",
"W. c #B4CFED",
"Q. c #B9D2EF",
"!. c #CACBCE",
"~. c #C4C5C7",
"^. c #D0CECF",
"/. c #CACDD1",
"(. c #CFD0D2",
"). c #D2D3D6",
"_. c #DBDBDF",
"`. c #D5D6D9",
"'. c #DBDDE0",
"]. c #C6DAF1",
"[. c #CADCF2",
"{. c #DAE6F4",
"}. c #DEE9F6",
"|. c #D4E2F4",
" X c #E6E6EA",
".X c #E9EAED",
"XX c #E2E3E6",
"oX c #F2EDED",
"OX c #E3ECF7",
"+X c #E9EFF8",
"@X c #EEF2F7",
"#X c #EDF2F9",
"$X c #F2F3F6",
"%X c #F5F7FA",
"&X c #F7F8FB",
/* pixels */
"L Q Q U Q Q Q ~ ! ~ ~ ! ~ ! ! ! ! ! ~ Q ! Q Q Q Q Q Q Q ! U Q U U ! ~ ! ! Q Q L L L U Q ~ ! ! ! Q P ",
"o.;.;.=.-.;.;.-.;.;.-.;.-.-.;.;.;.;.;.;.;.;.;.;.;.-.;.;.;.;.;.%.=.;.=.;.;.;.;.;.;.&.-.;.;.;.;.;.&.] ",
"] %.%.$.%.=.=.=.-.;.-.;.;.-.-.-.-.-.;.-.-.-.-.-.-.&.-.-.-.;.-.%.=.;.=.-.-.-.-.-.-.&.-.-.&.&.&.&.&.' ",
"] %.%.$.%.%.%.%.%.&.-.&.&.%.&.%.%.%.-.-.-.-.X.X.X.{ E j f s s d f k  .-.-.=.=.-.&.&.&.&.%.%.%.%.&.' ",
"] &.%.%.%.=.%.&.&.&.-.-.-.-.-.&.&.&.&.&.$.} t O + - e r Z H A r t % d -.;.;.-.%.-.&.&.%.%.&.&.&.%.` ",
"] &.&.$.%.;.=.%.%.%.&.&.=.%.-.%.&.&.&.%.| t '.!./._. X@X$X%X%X@X XC.s =.%.&.%.%.&.&.%.%.&.&.&.&.&.' ",
"] %.%.$.%.&.-.%.%.+.$.$.%.%.%.%.$.$.$.$.{ p %X$X%X%X X(.~.D.Z.S A 6.F %.%.%.%.$.%.$.%.%.%.%.%.%.%._ ",
"] %.$.$.$.$.$.%.%.$.$.$.%.$.$.%.$.$.#.#.:.^.+XA.A V i q z c n M >.w.B j $.$.%.$.+.+.$.+.O.%.O.%.%._ ",
"] %.%.$.-.-.-.-.-.-.-.-.%.=.=.%.%.%.%.j J %XZ >.7.8.8.w.t.y.y.y.y.y.1.% E %.&.%.%.%.%.%.%.%.%.&.%._ ",
"] %.%.%.%.&.-.-.-.=.=.&.=.=.=.=.&.&.j g  X%XA.6 q.y.y.y.y.y.y.y.t.y.y.<.% ( -.-.=.=.%.$.%.-.-.-.%.' ",
"] %.%.%.%.&.-.-.&.%.%.&.%.-.&.-.;.( < H.%X%X%XJ x y.y.y.y.y.y.y.y.y.y.y.M > @.&.-.=.%.%.$.%.=.=.&.` ",
"] =.=.&.%.&.&.-.&.&.%.%.=.%.-.-.X.< H oX%X%X%XXXu 7.y.y.y.y.y.y.y.y.y.y.t.9 d &.=.=.%.%.%.%.-.-.%._ ",
"] -.-.-.&.%.$.&.%.$.%.%.=.=.&.X.y Z.%X%X%X%X%X%XF.0 t.y.y.y.y.y.y.y.y.y.u.2.. l -.-.-.%.$.=.-.-.&.` ",
"] -.-.-.-.=.&.&.&.%.%.-.=.-.X.y !.%X&X%X%X%X%X%X%XZ M y.y.y.y.y.y.y.y.p.8.2.c D -.-.&.%.$.%.-.-.&.` ",
"] =.%.%.%.-.-.-.&.%.%.%.%.=.*.Z..X&X%X&X$X%X&X&X%XG.* w.y.y.y.y.w.1.n 6 $ # x r.%.%.%.%.$.%.&.%.%.' ",
"] $.$.$.$.$.$.$.$.$.$.$.%.%.K 6 9 & & # $ 8 g S S S.b ,.<.z 6 # & q n 2.2.9.e.9 $.$.$.+.$.$.$.$.%./ ",
"] %.%.$.%.%.%.%.%.%.%.%.=.l 4.e.t.e.9.9.q.q.2.>.M 3.e.t.7.N <.8.e.y.y.y.y.y.q.# $.$.$.$.$.%.%.%.%.' ",
"] %.%.$.%.%.%.&.%.%.%.=.=.4 M y.y.y.p.y.y.y.y.y.y.y.y.w.y.y.y.u.y.y.y.y.y.y.9.. $.-.&.&.%.%.&.&.%.' ",
"] -.%.%.%.=.%.%.%.%.&.%.=.3 M y.y.y.y.p.y.y.y.y.y.y.q.7 y.y.u.y.y.y.y.y.y.y.8.  -.-.-.-.-.%.&.&.%.' ",
"] =.%.$.%.=.=.&.%.%.%.%.=.5 M y.y.y.y.y.u.y.y.y.y.y.t.6 w.p.y.y.y.y.y.y.y.y.0.  -.-.-.&.-.%.%.%.%.' ",
"] -.%.$.%.%.=.%.&.%.%.%.%.1 C s.y.y.y.y.y.u.y.y.y.y.t.7 p.y.y.y.y.y.u.l.U.OX/.  $.$.&.-.&.&.%.%.%.' ",
"] -.%.$.%.-.=.-.-.&.%.&.%.< C.$X$XOX|.|.[.Q.R.U.U.n.z.6 l.c.N.R.E.[.%X%X%X&X!.o -.-.$.-.&.&.&.&.%.' ",
"] %.%.$.%.&.-.-.-.-.&.%.%.+ C.#X$X$X$X%X%X%X%X%X$X%X'.p $X$X%X$X%X$X%X%X%X%X~.  -.-.-.-.-.&.&.&.%.` ",
"] $.%.$.$.%.$.%.&.%.$.%.%.O A.%X$X$X$X$X%X%X%X$X%X%X`.A %X%X$X%X%X$X%X%X%X%X~.  @.$.-.$.$.$.$.$.%.' ",
"] %.%.$.$.%.%.+.%.$.%.%.$.O Z.#X$X$X$X%X%X%X$X$X$X%X).u &X%X$X&X%X%X@X%X%X%X`.+  .%.$.+.+.%.%.%.%.[ ",
"] %.=.=.%.=.%.%.%.%.%.%.%.X A.M.{.L.{.I.OX].%X#X@X@X!.u $X%X&X$X%X%X%X$X%X%X Xw { -.&.%.%.%.%.%.%.` ",
"] =.-.-.-.&.%.%.%.%.%.%.-.O A.y.x.p.B.g.Y.c.%XM.n.g.k.e %X%X&X%X&X%X%X%X%X%X.Xt ..-.&.%.+.%.=.=.%.' ",
"] -.-.-.-.&.%.&.-.=.-.-.%.> j.u.s.s.m.g.R.x.%Xn.y.d.P.t %X&X%X&X%X%X&X&X%X%X.Xt @.-.%.%.$.%.-.&.%.' ",
"] -.-.%.%.%.=.-.-.-.;.-.-.1 S.v.{.V.B.g.W.g.W.B.l.g.P.= %X%X%X%X&X%X%X%X%X%X_.; @.=.-.%.$.%.=.-.=.` ",
"] -.=.=.-.-.=.-.=.=.-.=.-.< ~.%X%X$X%X{.OXM.N.R.I.c.J.o &X&X%X%X%X%X&X%X%X%X_.- | -.%.%.%.%.=.=.%.' ",
"] -.%.-.-.-.;.-.%.=.&.%.&.@ !.%X%X%X%X%X%X%X&X%X&XOX/.= &X%X%X%X%X&X&X&X%X%X.Xe ) %.=.%.+.%.%.%.%.` ",
"] %.%.%.%.%.%.%.%.%.%.%.%.- ).%X%X%X%X%X%X&X%X%X&X&X).: %X%X%X%X%X%X%X&X&X%X Xt ( %.%.$.%.%.%.%.%._ ",
"] $.%.$.$.$.$.$.$.$.%.$.$.e _.%X%X%X%X%X%X%X%X%X%X%XP.t %X%X%X%X%X%X%X%XOXW.z.& ( %.%.$.$.$.%.$.%.[ ",
"] =.%.$.%.=.-.-.-.-.-.%.%.; f.v.U.[.}.{.#X%X%X%X%X%XD.t %X$X{.].R.B.x.a.y.y.w.$ { &.%.%.%.%.%.%.%.' ",
"] =.%.$.%.%.%.%.-.&.%.=.=.; e.y.y.y.a.a.h.m.Y.R.Y.R.P.w B.l.a.y.y.y.y.u.y.y.q.# | -.&.&.%.%.%.%.%.` ",
"] =.%.$.%.-.&.%.&.%.-.%.=.e q.y.y.y.y.y.y.y.y.y.y.y.8.7 y.y.y.y.y.y.y.y.u.y.8.# X.%.%.%.%.&.%.%.%.' ",
"] -.-.$.$.-.%.%.%.%.%.%.=.9 q.y.y.y.y.y.y.y.y.y.y.y.8.0 y.y.y.y.y.y.y.y.y.u.9.. ..&.%.&.%.%.%.%.%.] ",
"] =.%.$.%.=.%.=.%.%.%.%.%.< 9.y.y.y.y.y.y.y.y.y.y.y.7.z y.y.y.y.y.y.y.y.y.y.0.o @.&.&.&.&.&.-.-.&._ ",
"] ;.-.$.%.=.%.%.%.%.%.%.=.= 9.y.y.y.y.y.y.y.y.y.y.y.8.6 y.y.y.y.y.y.y.y.y.y.7.% &.&.%.%.=.=.-.-.%.' ",
"] -.%.$.%.=.=.=.%.%.%.%.%.X 8.y.y.y.y.y.y.y.y.y.y.y.8.. y.y.y.y.y.y.y.y.y.y.1.O %.%.%.%.%.%.%.%.%._ ",
"] %.$.$.+.+.+.%.$.$.$.#.$.  1.y.y.y.y.y.y.y.y.y.y.y.8.. y.y.y.y.y.y.y.y.y.y.1.y $.$.$.$.$.%.$.$.$._ ",
"] $.%.$.%.%.+.%.%.=.%.&.%.+ N y.y.y.y.y.y.y.y.y.y.y.q.# t.y.y.y.y.y.y.t.8.c 7 G $.%.$.$.$.$.$.%.%._ ",
"] =.-.-.&.&.%.&.-.-.-.-.-.h 5.t.y.y.y.y.y.y.y.y.y.y.q.$ y.y.y.y.y.8.M x # > s | &.&.&.%.%.&.%.&.=.' ",
"] =.-.-.&.&.%.&.-.-.-.-.-.%.r 7 c N 2.q.y.y.y.y.y.y.w.7 y.y.8.m z . 3 k ( #.&.%.&.&.-.%.+.%.&.&.%.] ",
"] %.&.%.%.&.;.&.-.-.&.%.%.=.%.W d a 5 @ X # 7 c M 7.8.8.>.7 X 4 j  .%.%.%.-.%.%.%.-.%.$.+.%.&.&.-.' ",
"] -.&.%.&.%.&.%.&.&.&.%.=.-.-.-.-.&.%... .{ k 4 , O = H f f | -.%.%.%.&.%.=.%.-.-.-.-.%.$.%.&.&.%.` ",
"] =.%.%.%.%.&.%.%.%.%.%.%.;.-.-.-.&.$.$.&.&.-.-.$... .%.=.-.=.=.%.%.%.%.&.=.;.-.-.-.-.%.%.%.&.&.-._ ",
"] =.%.-.%.-.-.%.%.%.%.%.%.%.%.%.&.-.%.$.%.&.%.%.&.%.%.$.%.%.%.%.%.%.%.%.%.&.&.-.-.-.%.%.%.&.&.&.%.] ",
"] +.+.+.+.$.$.$.%.$.+.$.$.+.$.+.+.+.O.O.+.O.O.O.O.O.O.o.o.o.o.O.+.+.O.%.%.%.%.+.$.+.+.+.O.+.+.+.+.` ",
"[ / / / ~ ^ ~ T T T T / / Y Y Y T T Y T T T T T Y T T T T ^ ^ T T T T Y R Y T T ^ / / ~ / ~ / / T R "
};
