/* XPM */
static char *result[] = {
/* columns rows colors chars-per-pixel */
"50 50 212 2 ",
"   c gray6",
".  c #040B13",
"X  c #1A1A1C",
"o  c #181516",
"O  c #131213",
"+  c #2C1E15",
"@  c #352319",
"#  c #021324",
"$  c #031A32",
"%  c #081E35",
"&  c #141E2D",
"*  c #1C222D",
"=  c #0C233B",
"-  c #172738",
";  c #292526",
":  c #332C27",
">  c #37383B",
",  c #2F3038",
"<  c #462F1F",
"1  c #483427",
"2  c #5D3E29",
"3  c #483C37",
"4  c #513E34",
"5  c #5B4436",
"6  c #59402E",
"7  c #6C462C",
"8  c #734A2E",
"9  c #654633",
"0  c #734D34",
"q  c #7B5236",
"w  c #04294F",
"e  c #032446",
"r  c #112B46",
"t  c #17314D",
"y  c #032A51",
"u  c #022F5C",
"i  c #0A2F56",
"p  c #123355",
"a  c #2C3848",
"s  c #373A41",
"d  c #2B3F55",
"f  c #023264",
"g  c #04386E",
"h  c #023E7B",
"j  c #073C73",
"k  c #113E6E",
"l  c #394858",
"z  c #364352",
"x  c #14467A",
"c  c #124273",
"v  c #2D4C6F",
"b  c #474C55",
"n  c #5A5A5B",
"m  c #49494A",
"M  c #6A5D58",
"N  c #6B564A",
"B  c #766357",
"V  c #4C5565",
"C  c #515A64",
"Z  c #506274",
"A  c #6A6B6C",
"S  c #68656A",
"D  c #656A74",
"F  c #747477",
"G  c #8B4E2D",
"H  c #864723",
"J  c #92542E",
"K  c #99572A",
"L  c #9C5A2C",
"P  c #955227",
"I  c #8C5D3C",
"U  c #855636",
"Y  c #935631",
"T  c #965833",
"R  c #9B5B32",
"E  c #8E512E",
"W  c #A05D2F",
"Q  c #A05E32",
"!  c #94613E",
"~  c #98633E",
"^  c #A96637",
"/  c #AA6738",
"(  c #AC6A3B",
")  c #A96635",
"_  c #8C6349",
"`  c #9C6641",
"'  c #996744",
"]  c #876E5D",
"[  c #A56C43",
"{  c #AB6E44",
"}  c #A46E49",
"|  c #AD7045",
" . c #A9704A",
".. c #B57144",
"X. c #BB7646",
"o. c #BE7847",
"O. c #B3754A",
"+. c #BA7749",
"@. c #BE7A4A",
"#. c #B7784B",
"$. c #B87B52",
"%. c #AF7A57",
"&. c #8D796E",
"*. c #C27D4E",
"=. c #C37F50",
"-. c #A58168",
";. c #C5804F",
":. c #C58151",
">. c #C98352",
",. c #C69472",
"<. c #024283",
"1. c #01468C",
"2. c #06488A",
"3. c #024A93",
"4. c #024E9A",
"5. c #084D92",
"6. c #0252A3",
"7. c #0155AB",
"8. c #0757A8",
"9. c #015AB3",
"0. c #015EBC",
"q. c #0C5EB1",
"w. c #0060BF",
"e. c #0863BE",
"r. c #4A6E94",
"t. c #737C87",
"y. c #507AA6",
"u. c #0162C4",
"i. c #0966C4",
"p. c #0065CA",
"a. c #0668CB",
"s. c #0A6ACC",
"d. c #126FCD",
"f. c #1471CE",
"g. c #1B74CD",
"h. c #1F76D0",
"j. c #2677CA",
"k. c #2A7CD2",
"l. c #78838F",
"z. c #72869C",
"x. c #5B85B2",
"c. c #698AAD",
"v. c #3282D4",
"b. c #3986D4",
"n. c #3C89D6",
"m. c #3580CE",
"M. c #418BD7",
"N. c #468ED9",
"B. c #4D91D8",
"V. c #5B9ADC",
"C. c #5495DA",
"Z. c #4584C4",
"A. c #739BC5",
"S. c #639FDD",
"D. c #6897C9",
"F. c #6BA3DF",
"G. c #64A0DD",
"H. c #6FA6E0",
"J. c #7DAEE2",
"K. c #73A9E1",
"L. c #898A8B",
"P. c #8E9196",
"I. c #979799",
"U. c #8A8E93",
"Y. c #A99B93",
"T. c #B7A69B",
"R. c #999DA3",
"E. c #9EA1A7",
"W. c #A8A7A8",
"Q. c #B6B6BA",
"!. c #B6B7B9",
"~. c #BFAEA5",
"^. c #C09C83",
"/. c #D4B29B",
"(. c #D0BAAC",
"). c #A5B6C7",
"_. c #BDBEC1",
"`. c #8AB6E4",
"'. c #89B5E5",
"]. c #96BDE6",
"[. c #B1C2D5",
"{. c #9CC1E9",
"}. c #ADCBEC",
"|. c #A4C5EB",
" X c #BDD4EF",
".X c #B7D1EE",
"XX c #B7D2EF",
"oX c #C4C5C9",
"OX c #D5D6D9",
"+X c #D9D9DD",
"@X c #D3D4D7",
"#X c #CDCFD4",
"$X c #E0D2CB",
"%X c #C6D8EC",
"&X c #DDDDE0",
"*X c #CBDDF2",
"=X c #C7DAF1",
"-X c #DFE0E4",
";X c #DEE9F6",
":X c #D2E1F4",
">X c #CFE0F3",
",X c #E9EAED",
"<X c #E4E5E9",
"1X c #E3EBF6",
"2X c #EBEDF2",
"3X c #E9EFF8",
"4X c #E6EDF8",
"5X c #EEF0F5",
"6X c #EDF1F9",
"7X c #F2F3F6",
"8X c #F5F6FA",
"9X c #F7F8FB",
/* pixels */
"G J J J Y Y Y T T R R R T R T R T T T Y Y Y Y Y Y Y Y T Y K Y J Y T T T T Y J G G G G Y R T T T Y H ",
"..>.>.;.:.>.>.>.>.>.:.:.:.:.>.>.>.>.:.>.>.>.>.>.>.>.>.>.>.>.>.*.;.:.>.>.>.>.>.>.>.>.>.>.>.>.>.>.=.( ",
"( =.*.@.*.;.;.;.:.>.>.:.>.:.:.:.:.:.>.:.:.>.:.>.;.:.:.;.:.:.:.*.;.;.>.:.:.:.:.:.:.=.:.:.=.=.=.*.=./ ",
"( *.*.@.*.*.*.*.*.=.=.=.=.=.=.*.*.=.:.:.=.:.=.*.*.*.*.;.;.=.*.*.*.*.;.:.;.;.;.:.=.=.=.=.*.*.*.*.=./ ",
"( =.=.*.*.;.*.*.*.=.:.>.:.:.:.=.=.=.=.=.=.=.*.*.:.;.;.;.:.:.:.:.*.>.:.:.:.>.:.:.:.=.*.*.*.=.=.=.*./ ",
"( =.*.@.*.>.;.;.*.*.*.=.;.*.:.*.=.=.=.*.*.*.*.*.*.;.;.;.:.:.:.@.*.*.:.;.*.:.*.*.=.=.*.*.*.=.*.*.*./ ",
"( *.@.@.*.*.=.*.*.@.@.@.*.*.*.*.@.@.@.@.*.*.o.*.*.*.*.*.;.*.*.@.@.*.*.o.*.*.*.@.*.*.*.*.*.*.*.*.*./ ",
"( *.@.@.@.*.@.*.*.@.@.@.*.@.o.*.@.@.+.+.*.*.@.@.@.@.@.@.@.@.@.+.X.o.o.,.@.@.@.@.@.+.+.+.*.*.X.*.*.) ",
"( *.*.*.:.:.:.:.:.:.:.:.=.*.;.;.*.*.*.*.*.*.=.=.*.*.:.*.;.=.@.@.@.=.(.+XY.( @.*.*.*.*.@.*.*.*.=.*./ ",
"( =.*.*.*.=.:.:.:.*.;.:.;.;.;.;.*.*.*.*.=.:.=.:.@.@. .! } O.} ^././.2X7X@X/.I } :.;.*.*.@.=.>.=.*./ ",
"( *.*.*.*.=.:.:.=.*.*.*.;.;.;.:.*.*.*.*.=.*.$.%.-.~.Y.Y.&.(.$X5XOXV z.R.7X<X(.M _ *.*.*.@.*.=.>.=./ ",
"( :.*.*.=.=.=.:.=.=.*.=.;.;.;.:.;.>.*.*.*.] D ; I.,X9X7X2X7X8X8XQ.z 2.v D #X<X&XF ] *.*.*.*.=.>.*.) ",
"( :.:.:.:.*.*.@.*.@.*.*.;.;.:.:.*.;.*..._ j q.3.= U.8X8X9X9X8X8X).z 9.9.2.a R.#X7XI.N #.*.*.=.:.=./ ",
"( :.;.:.:.;.=.=.*.*.*.:.;.:.:.:.>.:.O.I v 6.p.u.6.= A 8X8X8X9X6X(.t 7.p.0.3.u t.!.<XW.5 [ =.=.=.=./ ",
"( *.*.*.*.:.:.:.=.=.*.*.*.*.;.;.*.@.U V 4.p.p.p.e.q.y z +X8X9X9XR.c 0.p.p.u.0.j v A Q.T.' =.=.*.*.) ",
"( @.@.@.@.@.@.@.@.@.@.@.*.@.@.@.@.7 B z.g.p.p.p.a.u.0.g > oX8X8XP.f u.p.p.p.p.s.5.c l F O.@.@.@.*.) ",
"( *.*.o.*.*.*.*.*.*.*.*.*.*.*.@.8 5 P.2X}.f.p.p.s.p.p.0.x b Q.+Xn <.i.p.p.p.p.p.p.7.8.S +.*.*.*.*.) ",
"( *.*.*.*.>.*.=.*.*.*.;.;.;.;.U 1 L.OX6X6X Xv.p.a.a.p.p.7.x C E.z <.p.p.p.p.p.p.p.p.8.V *.*.=.=.*.) ",
"( :.*.@.*.*.*.*.*.*.*.*.;.:.` + &.[.7X7X7X5X:XB.a.a.p.p.p.6.3.r.p 9.p.p.p.p.p.p.p.p.7., O.=.=.=.*.^ ",
"( ;.*.@.*.;.*.*.*.*.*.*.;.#.< D x.`.5X7X7X7X6X>XF.a.p.p.p.p.u.0.6.3.9.p.p.p.p.p.p.p.7.a +.*.*.*.*.^ ",
"( :.=.@.*.*.:.:.=.=.*.*.*.2 S x.s.H.{.*X7X8X8X8X=XH.s.p.p.p.0.0.9.1.e 1.p.p.p.p.p.p.9.= [ *.*.*.*./ ",
"( :.*.@.*.;.*.:.:.=.=.*.7 M Q.N.k.h.n. X%X8X8X8X8X XH.g.p.u.f <.p.6.j $ f 0.0.p.p.p.9.& I =.*.*.*./ ",
"( *.*.@.=.=.:.:.:.:.=.q 3 oX,X*X|.v.H.M.`.4X7X8X7X8X%XH.g.<.e u.p.p.9.7.y i h 5.i.i.5.; ` *.*.*.*./ ",
"( @.*.@.@.*.@.*.*.@.' : Q.,X9X8X*XJ.N.N.{.`.1X7X7X8X7X%Xr.$ q.i.s.s.s.i.i.<.f e i 6.<.o ` *.*.+.*.^ ",
"( *.@.@.*.*.*.*.*.{ ; r.,X9X9X9X8X>XV.|.G.{.;X1X7X8X,XoX3 y.v.p.p.a.p.p.p.p.9.4.e $ f > ~ *.*.*.*.) ",
"( *.;.;.*.*.*.*.=.1 k j.'.5X8X8X8X2X;XJ.V.1XJ.'.*X2X#XA W.7X{.V.g.p.p.p.p.p.p.0.9.h v M *.*.*.*.*.) ",
"( ;.:.:.=.*.*.*.9 p 0.a.b.}.6X9X8X8X4XJ.`.`.M.k.k.).A l.7X8X7X=X].M.p.p.p.p.p.p.0.3.a %.@.*.;.;.*./ ",
"( ;.:.:.:.*.*.q - 9.u.p.p.B.:X3X8X9X8X6X}.`.n.h.A.Z n 9X8X8X7X8X1X=XH.f.d.p.p.u.3.# I *.@.*.:.=.*./ ",
"( :.>.=.=.*.I X 4.w.p.p.p.s.n.XX6X9X9X9X8X XC.D.l.> +X8X8X7X8X8X8X7X8X}.S.M.u.6.$ 9 =.*.o.*.;.:.;./ ",
"( :.;.;.:.[   h w.p.p.p.p.p.s.v. X9X9X8X9X7X[.c.X !.8X8X8X8X7X8X7X7X8X8X1X1XA.e 1 =.=.*.*.*.;.;.*./ ",
"( :.:.=.=.< y 7.p.p.p.p.p.p.p.f.H.*X8X8X8X,X#X> P.9X8X8X9X8X9X7X7X8X8X9X9X+XF @ *.*.*.*.o.*.*.*.*.( ",
"( *.*.*.[ m 2.p.p.p.p.p.p.p.p.p.s.K. X8X7XoXn F 9X8X8X9X8X8X9X9X8X8X8X9X&XL.O [ @.*.*.*.*.*.*.*.*.^ ",
"( *.@.@.} d 0.p.p.p.p.p.p.p.p.p.p.p.C.}.oXF n 8X9X9X8X8X9X8X9X8X8X8X9X,XW.O I @.@.@.@.@.@.@.@.@.*.) ",
"( *.*.@.@.4 f e.p.p.p.p.p.p.p.p.p.p.p.Z.t.s -X9X8X8X8X9X9X9X8X9X8X9X5X&X> 7 @.:.:.:.=.*.*.*.*.*.*./ ",
"( ;.*.@.@.` s <.0.p.p.p.p.p.p.p.p.p.0.3.% y.}.6X6X8X8X8X8X9X8X9X9X8X2XS 2 #.=.>.>.:.:.:.*.*.;.*.*.( ",
"( ;.*.@.*.@.8 a 6.w.p.p.p.p.p.p.p.u.6.y 3.d.k.G.*X1X9X8X9X8X9X9X8X,XL.4 O.=.=.>.:.=.=.@.*.=.*.=.*./ ",
"( ;.*.@.*.;.*.0 * 6.p.p.p.p.p.p.p.7.u h p.p.p.a.k.`.XX8X8X8X9X9X,XI.;  .=.*.=.=.=.=.=.*.*.*.*.*.*.( ",
"( ;.*.@.*.;.;.*.U . 1.p.p.p.p.p.9.u y p.p.p.p.p.p.d.N.K.3X8X9X7X_.X I @.*.=.=.>.=.=.=.=.=.:.:.:.*./ ",
"( :.:.@.*.;.;.;.*.! & 1.p.p.p.0.h # 0.p.p.p.p.p.p.p.p.d.v.|. X<Xm 0 #.=.*.=.=.=.=.=.*.*.;.:.;.:.*.^ ",
"( :.:.@.*.*.*.;.=.O.0 r 3.p.w.3.. 4.p.p.p.p.p.p.p.p.a.s.p.a.k.l 9  .=.*.*.*.*.*.*.@.*.*.*.*.*.*.*.^ ",
"( @.@.@.@.o.o.*.@.@.I @ i 7.7.% <.p.p.p.p.p.p.p.p.p.p.s.p.0.f : [ +.@.@.@.@.*.*.@.@.@.@.@.@.*.@.@.^ ",
"( @.*.*.*.@.*.*.*.*.=.[ @ i 7.<.p.p.p.p.p.p.p.p.p.p.p.a.0.h X ` +.*.*.*.*.*.*.*.*.@.*.@.@.@.@.*.*.^ ",
"( ;.:.:.*.*.*.=.=.=.:.:.=.N V j <.0.0.p.p.p.p.p.p.p.p.i.2.. I $.:.:.:.:.*.*.*.*.=.=.=.@.*.=.*.*.;./ ",
"( ;.:.=.=.=.=.*.=.>.:.:.=.=._ 9 ; r g 4.0.u.p.p.p.p.0.6.# 8 $.:.:.:.:.:.>.*.=.*.=.=.:.*.@.*.=.=.*.( ",
"( *.*.*.*.:.:.=.:.:.=.*.=.=.=.X.=.0 4 & i h 7.0.p.u.3.= 2 @.:.*.*.=.*.*.;.=.*.*.=.:.*.@.+.*.*.=.;./ ",
"( :.=.*.*.*.=.=.=.:.*.*.=.>.=.:.=.=.{ { 2 3 $ f h 3.t 1 :.:.:.:.*.*.*.=.*.;.;.:.=.:.:.*.@.*.=.*.;./ ",
"( ;.*.*.*.*.=.*.*.*.*.*.*.>.>.=.=.=.@.@.=.[ ' @ * , 6 *.*.:.;.*.*.*.*.*.=.;.=.:.:.>.=.*.*.*.=.=.;.^ ",
"( *.*.>.*.:.=.=.*.*.*.*.*.*.*.*.=.=.@.@.=.=.=.@.U  .O.*.*.*.*.*.*.*.*.*.*.*.:.:.:.:.*.*.*.=.>.=.;.( ",
"( @.o.o.@.*.@.@.*.@.@.o.@.o.@.o.o.o.X.X.X.X.o.X.X.X.....X...X.X.X.o.o.@.@.*.@.@.@.@.X.o...o.o.o.X./ ",
") Q Q L L R L L L L L Q Q K K K L K L L L L L K L L L L L L W W L L L K K L L W W Q Q R Q Q L ) L P "
};
