/* XPM */
static char *result[] = {
/* columns rows colors chars-per-pixel */
"50 50 213 2 ",
"   c #1A1A1A",
".  c #16181C",
"X  c #0A0E13",
"o  c #271D16",
"O  c #3A271A",
"+  c #2D2119",
"@  c #041324",
"#  c #1A1C22",
"$  c #031C35",
"%  c #061E37",
"&  c #07213C",
"*  c #192739",
"=  c #242324",
"-  c #2C2C2D",
";  c #2D2927",
":  c #3B2D24",
">  c #3B3A3C",
",  c #323436",
"<  c #2C3033",
"1  c #432C1D",
"2  c #4A321F",
"3  c #4E3322",
"4  c #48362C",
"5  c #583A26",
"6  c #5F412F",
"7  c #534036",
"8  c #65432C",
"9  c #684A36",
"0  c #744D33",
"q  c #7C5339",
"w  c #744B2F",
"e  c #022244",
"r  c #02264A",
"t  c #0A294A",
"y  c #1B334B",
"u  c #022A54",
"i  c #0A2E55",
"p  c #022E5A",
"a  c #123459",
"s  c #123050",
"d  c #243549",
"f  c #343945",
"g  c #023364",
"h  c #06376B",
"j  c #163E69",
"k  c #043B73",
"l  c #013E7A",
"z  c #083D73",
"x  c #2C425A",
"c  c #3B4B5C",
"v  c #04417F",
"b  c #114274",
"n  c #1C4169",
"m  c #384B64",
"M  c #294668",
"N  c #494546",
"B  c #544C47",
"V  c #575758",
"C  c #765A4A",
"Z  c #6F5B54",
"A  c #535C67",
"S  c #4A5560",
"D  c #576171",
"F  c #656568",
"G  c #797677",
"H  c #6D6C73",
"J  c #8B4E2D",
"K  c #864723",
"L  c #92542E",
"P  c #99572A",
"I  c #9C5A2C",
"U  c #955227",
"Y  c #845636",
"T  c #8D5C3B",
"R  c #885937",
"E  c #935631",
"W  c #965833",
"Q  c #9B5B32",
"!  c #8E512E",
"~  c #A05D2F",
"^  c #A05E32",
"/  c #92603D",
"(  c #9A643E",
")  c #A96637",
"_  c #AA6738",
"`  c #AC6A3B",
"'  c #A96635",
"]  c #825C42",
"[  c #9C6641",
"{  c #8D684F",
"}  c #A36A42",
"|  c #A96E45",
" . c #A46F4A",
".. c #AD7147",
"X. c #AD7249",
"o. c #B47244",
"O. c #BB7646",
"+. c #BE7847",
"@. c #B47549",
"#. c #BB7748",
"$. c #BE7A4A",
"%. c #B6784B",
"&. c #B27B54",
"*. c #A67756",
"=. c #937465",
"-. c #A77F62",
";. c #C27D4D",
":. c #C37F50",
">. c #BE8259",
",. c #948379",
"<. c #B58361",
"1. c #AE8B74",
"2. c #C5804F",
"3. c #C58151",
"4. c #C98352",
"5. c #C68C66",
"6. c #CC9976",
"7. c #024384",
"8. c #01468C",
"9. c #064889",
"0. c #024A94",
"q. c #014E9B",
"w. c #094C92",
"e. c #09529D",
"r. c #1C5A9C",
"t. c #0252A3",
"y. c #0156AB",
"u. c #0A58A9",
"i. c #015AB4",
"p. c #015EBC",
"a. c #085EB5",
"s. c #125EAD",
"d. c #0861BA",
"f. c #216EBE",
"g. c #326CA9",
"h. c #5D6D80",
"j. c #6C7885",
"k. c #0162C4",
"l. c #0065CA",
"z. c #0768CB",
"x. c #0B6BCC",
"c. c #0967C6",
"v. c #136ECB",
"b. c #1772CE",
"n. c #1D75D0",
"m. c #2C7ED2",
"M. c #267AD1",
"N. c #798593",
"B. c #7593B3",
"V. c #3E88D6",
"C. c #3684D4",
"Z. c #2F80D4",
"A. c #468ED8",
"S. c #4E93D9",
"D. c #5B9ADB",
"F. c #5595D8",
"G. c #4789CD",
"H. c #649FDD",
"J. c #6F9AC7",
"K. c #6AA3DF",
"L. c #66A0DE",
"P. c #79ACE2",
"I. c #7FB0E3",
"U. c #848587",
"Y. c #B9A89D",
"T. c #8D98A4",
"R. c #9EA0A3",
"E. c #A6A8AC",
"W. c #A8AFB6",
"Q. c #ABB1B8",
"!. c #B7B9BE",
"~. c #C7A995",
"^. c #D2A383",
"/. c #D9BBA8",
"(. c #CBC4BF",
"). c #91AFCE",
"_. c #AFB8C4",
"`. c #85B3E4",
"'. c #91BAE6",
"]. c #97BEE8",
"[. c #B6C2D1",
"{. c #9EC2EA",
"}. c #A3C4EA",
"|. c #ABCAEB",
" X c #BBD3EE",
".X c #B7D1EE",
"XX c #B1CDED",
"oX c #C2C2C5",
"OX c #C6C7CB",
"+X c #C8CCD1",
"@X c #D2D3D5",
"#X c #D5D6D9",
"$X c #D9DADD",
"%X c #CFD0D5",
"&X c #E3D1C7",
"*X c #DCDDE1",
"=X c #C7DBF1",
"-X c #CCDCEE",
";X c #DFE0E5",
":X c #D5E3F3",
">X c #DAE6F5",
",X c #DDE8F6",
"<X c #E1E2E5",
"1X c #E5E6E9",
"2X c #EAEBEE",
"3X c #E3EBF6",
"4X c #ECEEF4",
"5X c #E6EEF8",
"6X c #EDF2F9",
"7X c #EFF0F4",
"8X c #F2F3F6",
"9X c #F5F6FA",
"0X c #F7F8FB",
/* pixels */
"J L L L E E E Q W Q W W W W Q Q W W E E E E E E E E E W E P E L P W W W W E E J J J L E W W W W E K ",
"o.4.4.2.3.4.4.3.4.4.4.4.4.4.3.4.4.4.4.4.4.4.4.4.4.4.4.4.4.4.4.;.4.3.3.4.4.4.4.4.4.:.3.4.4.4.4.4.:.` ",
"` :.;.$.;.2.2.2.3.4.4.3.3.3.4.3.3.3.3.4.3.3.4.4.3.3.2.2.3.3.3.;.;.2.4.3.3.3.3.3.3.:.3.3.:.:.:.:.:._ ",
"` ;.;.$.;.;.;.;.;.:.:.:.:.;.:.;.;.:.:.3.3.:.:.;.;.2.;.2.2.:.;.;.;.:.2.3.3.;.3.3.:.:.:.:.;.;.;.;.:._ ",
"` :.;.;.;.2.;.:.:.3.3.4.3.3.2.:.:.:.:.:.:.:.;.;.2.2.2.3.3.3.3.3.;.4.3.3.4.4.:.:.3.:.:.;.;.:.:.:.;._ ",
"` :.;.$.;.4.2.;.;.;.;.:.2.;.3.;.:.:.:.;.;.:.;.;.;.2.2.2.3.3.3.$.;.;.3.2.;.:.;.;.:.:.;.;.:.:.:.:.;._ ",
"` 2.;.$.;.:.3.;.$.$.;.$.;.;.;.;.$.$.$.$.;.;.;.;.;.;.;.;.2.;.;.$.$.;.$.;.;.;.;.+.;.$.;.;.;.;.;.;.;._ ",
"` ;.$.$.$.$.$.;.;.+.$.$.;.$.$.;.$.$.+.%.;.;.O.O.$.$.$.$.$.$.$.#.$.O.$.+.$.;.;.;.+.+.$.+.#.;.#.;.;._ ",
"` ;.;.$.3.3.3.3.3.3.3.3.3.;.2.;.2.;.;.$.;.;.3.$.;.2.;.;.2.;.;.;.;.;.;.;.;.;.;.;.;.;.;.$.;.;.;.:.;.' ",
"` ;.:.;.;.:.3.4.:.3.2.:.2.2.2.2.2.2.;.;.2.3.;.2.2.2.;.;.;.;.:.:.;.:.;.;.;.;.:.4.2.2.;.;.$.3.3.3.:._ ",
"` ;.;.;.;.;.3.3.:.;.;.;.:.2.3.3.2.2.$.$.;.2.:.;.;.2.;.;.;.:.;.;.:.:.:.:.;.;.:.3.3.2.2.;.$.;.2.2.;._ ",
"` 2.3.;.:.:.;.3.:.:.;.:.;.3.3.3.3.3.;.$.;.3.2.3.3.2.2.;.;.;.2.2.:.:.:.:.;.;.:.:.4.3.;.;.;.;.3.3.;._ ",
"` 3.3.3.3.;.;.%.( R R / [ } | X.@.@.%.%.2.;.3.3.:.;.:.&.;.;.;.3.:.3.3.3.3.2.3.3.3.3.3.;.$.2.3.3.;._ ",
"` 3.2.3.3.2. .C f % $ & y * * * * - ; o + 1 3 O O 1 3 5 w T ( | @.$.:.3.2.2.3.3.:.:.;.;.;.;.2.2.;.` ",
"` ;.;.;.;.$.9 n w.q.y.i.i.i.i.a.f.).$X%XOXW.T.N.N.=.=.G G F m m S D =.&.3.3.2.;.;.;.2.;.$.;.:.;.;.' ",
"` $.$.$.$.} f 9.z.l.l.l.k.l.l.l.Z.XX9X9X9X{.Z.v.A.}.;X*X$XJ.s.y.y.s.m { &.%.$.$.$.;.$.O.$.$.$.$.;.' ",
"` ;.;.+.;.! d t.l.l.l.l.l.l.l.l.S.=X0X0X9X3XK.m.'.,X8X8X8XK.z.l.l.k.h G Y.<.%.:.;.;.$.+.$.$.;.:.;.' ",
"` :.;.$.:.w n i.l.l.l.l.l.l.l.z.`.3X9X0X9X}.V.b.H.=X8X8X4XD.l.l.l.c.i R.1XY.*.$.3.2.;.:.;.;.:.:.;.' ",
"` :.;.;.;.8 z k.l.l.l.l.l.l.l.v.].6X9X9X9X}.K.K.|.3X8X8X3XS.l.l.z.d.t E.9X#X,. .$.3.3.3.3.;.:.3.;.' ",
"` 3.;.+.;.3 7.l.l.l.l.l.l.l.l.x.{.6X9X9X3XL.m.m.P.:X8X8X>XA.l.z.l.i.r E.9X9X_.1.&.:.3.:.2.3.;.;.;._ ",
"` 3.;.$.;.1 0.l.l.l.l.l.l.l.l.M..X9X9X9X6X X{.].=X6X0X9X:XV.z.z.l.p.r W.9X9X8X&X~.>.;.;.;.;.;.;.;._ ",
"` 3.;.$.@.- q.l.l.l.l.l.l.l.l.S.:X9X9X9X].V.A.S.|.5X9X9X-XV.z.l.l.p.t !.9X0X0X9X4X/.5.3.:.:.;.;.;._ ",
"` ;.;.;.Y * i.l.l.l.l.l.l.l.l.P.,X9X9X9X'.{.>X3X5X8X9X9X Xm.z.l.l.y.d OX9X9X9X9X$X_.~.^.6.3.:.:.;.` ",
"` ;.$.+.3 i i.l.l.l.l.l.l.l.l.I.3X9X9X9X.X`.P.P.:X8X8X9X}.n.l.l.l.q.c @X9X9X4X+XG m _.6X*X5.;.$.;.' ",
"` ;.$.$.O z k.l.l.l.l.l.l.l.l.I.5X0X9X9X{.S.b.D.:X8X8X8X{.b.l.l.l.8.S *X9X*XR.A a 7.h.;X#X<.$.;.;.' ",
"` ;.2.2.o 8.p.k.p.k.k.k.p.k.k.).3X8X8X4XH.Z.b.n.:X9X9X9X`.v.l.l.l.0.j.oXE.j.M k i.y.m ;X#X*.$.:.;.' ",
"` 2.3.3.N q.7.l l l v 7.8.0.0.B.E.E.OX+X).)._.B.+X@X$X1XF.c.l.d.l.a.D S j z y.l.l.y.f *X<X{ $.3.;._ ",
"` 3.3.3.C w.k p u r e u g u r d > , + X X . - < c 7 F V d p p p i.k.z k w.p.z.l.l.i.y @X2XC $.3.;.' ",
"` 3.3.;.9 p k.l.l.l.l.l.l.l.l.K.9X0X9X0X9X4X1X;X$X@X@XOXg.e.8.0.p.i.0.p.l.l.l.l.l.d.r oX4XB $.:.:._ ",
"` 3.3.2.} X p.l.l.l.l.l.l.l.l.Z.6X0X9X0X9X9X9X9X9X9X9X9XS.c.c.l.l.8.g l.l.l.l.l.l.l.u _.9XB :.3.;._ ",
"` 3.:.:.$.o 0.l.l.l.l.l.l.l.l.b.>X9X9X0X9X9X0X9X0X9X8X8XK.l.z.x.l.7.$ l.l.l.l.l.l.k.p Q.9XF :.;.;.` ",
"` ;.;.:.$.5 g l.l.l.l.l.l.l.l.z.=X9X9X9X0X9X9X0X8X9X9X8X'.l.l.z.c.q.@ l.l.l.l.l.l.c.h U.8XB ;.;.;.' ",
"` $.$.$.O.T % p.l.l.l.l.l.l.l.x.}.9X9X9X9X0X9X0X9X9X9X6X}.l.l.z.z.u.@ k.l.l.l.l.l.k.z A 1X7 ;.;.;.' ",
"` 2.;.$.;.@.# q.l.l.l.l.l.l.l.x.`.9X9X9X9X9X9X0X9X9X8X6XXXl.l.l.l.a.% y.l.l.l.l.l.k.w.A (.9 ;.;.;.' ",
"` 2.2.$.;.@.4 k l.l.l.l.l.l.l.x.D.9X9X9X0X0X9X9X9X8X9X9X=Xx.l.l.l.p.i 7.l.l.l.l.l.i.r.H -.| ;.;.;.` ",
"` 2.;.$.>.$.q t p.l.l.l.l.l.z.x.C.9X9X9X9X9X9X0X8X8X9X9X:XM.l.l.l.p.l i z.l.l.k.t.j Z :.;.;.;.;.;._ ",
"` 3.3.#.;.3.( @ q.l.l.l.l.z.z.l.m.3X9X9X9X0X0X0X9X9X9X9X,XD.l.l.l.k.7.% p.l.p.q.a 8 ;.;.;.;.;.2.;.` ",
"` 2.;.$.;.2.} # g i.i.k.c.c.k.l.M..X9X9X9X0X0X0X0X9X9X9X6X].l.l.l.k.8.$ u.u.k y 8 %.:.:.;.;.3.3.;._ ",
"` 4.3.$.;.;.X.9 d j h 7.9.0.q.q.s.J.<X<X*X;X2X2X1X$X@X@X#X).d.a.i.p.0.e k t : 0 %.:.;.:.;.2.3.3.;._ ",
"` 3.;.$.;.2.2.@.] 5 1 : o o o   . # ; =   = , f > - ; < > , & e r p j M f 3 T $.:.:.;.;.;.;.;.;.;.' ",
"` $.$.$.+.O.O.;.$.$.+.#.#.@.@...| } } | ....| } ( ( ( T T T Y q 0 0 C =.{ } ;.;.$.+.$.$.$.+.;.$.;.' ",
"` ;.;.$.;.;.;.;.:.:.:.:.:.:.;.;.:.$.+.$.;.;.;.:.$.;.;.;.$.$.$.$.$.$.;.;.;.;.;.;.$.;.$.$.$.;.;.;.$.' ",
"` 2.3.3.:.:.;.:.:.3.3.3.3.3.:.3.3.:.:.$.:.3.3.3.;.3.2.;.3.:.3.3.3.3.;.3.;.;.:.;.:.:.:.;.$.;.;.;.;.` ",
"` 2.3.3.:.;.;.:.3.3.3.3.3.3.3.3.3.:.$.;.:.4.3.3.3.3.3.3.3.3.3.3.3.4.4.4.:.:.;.;.:.:.:.:.$.;.:.:.;.` ",
"` ;.;.;.;.;.3.3.3.3.2.3.2.2.2.2.:.;.;.+.;.2.3.;.2.3.3.3.2.2.2.;.:.:.:.3.;.;.;.;.;.3.;.;.#.;.:.:.;.` ",
"` 3.:.;.;.3.:.:.:.3.;.:.;.3.3.3.3.;.;.+.3.3.3.2.2.2.3.;.3.3.3.3.:.$.;.:.:.2.3.3.3.3.:.;.;.;.:.;.2.` ",
"` 2.;.;.;.;.;.;.;.;.;.;.;.3.3.3.3.:.$.;.;.3.4.2.2.2.2.2.2.3.2.2.;.;.$.;.:.2.4.3.3.3.:.;.;.;.:.:.2.' ",
"` 2.;.3.;.:.3.3.;.;.$.;.;.;.;.;.2.;.$.;.;.3.;.;.;.;.;.;.;.;.;.;.;.:.;.;.;.;.:.3.3.3.;.;.;.:.:.:.2.' ",
"` $.O.O.$.;.$.$.;.+.+.+.;.+.+.+.+.+.+.+.+.+.+.O.+.O.O.O.o.o.o.O.O.O.+.;.$.;.$.$.#.#.$.O.o.+.O.+.O.' ",
"' ^ ^ I ^ I Q I I I Q ~ Q P P P P I P I P I I P P I P I I I ~ ~ I I I P U I I ~ I ' ^ Q I ' Q ' ^ U "
};
