/* XPM */
static char *result[] = {
/* columns rows colors chars-per-pixel */
"50 50 214 2 ",
"   c #0B121C",
".  c #110F11",
"X  c #271C15",
"o  c #392619",
"O  c #0A1623",
"+  c #031A32",
"@  c #021F3C",
"#  c #111E2D",
"$  c #1C2129",
"%  c #0A233E",
"&  c #15263C",
"*  c #262426",
"=  c #3B2D24",
"-  c #2D2E30",
";  c #3C3C3C",
":  c #353334",
">  c #36302E",
",  c #432C1C",
"<  c #412E23",
"1  c #4B3525",
"2  c #573A27",
"3  c #4A3A33",
"4  c #52443B",
"5  c #69442B",
"6  c #71492D",
"7  c #6B4A34",
"8  c #7B5236",
"9  c #704A30",
"0  c #012345",
"q  c #01254A",
"w  c #082848",
"e  c #112A47",
"r  c #18324E",
"t  c #022B55",
"y  c #012E5C",
"u  c #092F55",
"i  c #0B3159",
"p  c #183451",
"a  c #263345",
"s  c #313E4B",
"d  c #033364",
"f  c #083768",
"g  c #103E6F",
"h  c #013A74",
"j  c #043E78",
"k  c #3F4A56",
"l  c #304153",
"z  c #164679",
"x  c #0C447E",
"c  c #2D4A68",
"v  c #384C67",
"b  c #204C7C",
"n  c #53555B",
"m  c #595A5B",
"M  c #4B4B52",
"N  c #7E5A44",
"B  c #66564C",
"V  c #6D625C",
"C  c #535C67",
"Z  c #45576C",
"A  c #5F6061",
"S  c #6A6A6C",
"D  c #686C71",
"F  c #787473",
"G  c #6E747B",
"H  c #8B4E2D",
"J  c #864723",
"K  c #92542E",
"L  c #99572A",
"P  c #9C5A2C",
"I  c #955227",
"U  c #81573A",
"Y  c #885A3A",
"T  c #935631",
"R  c #965833",
"E  c #9B5B32",
"W  c #925F3B",
"Q  c #8E512E",
"!  c #A05D2F",
"~  c #A05E32",
"^  c #92613E",
"/  c #99623D",
"(  c #A96637",
")  c #AA6738",
"_  c #AC6A3B",
"`  c #A96635",
"'  c #936342",
"]  c #9B6844",
"[  c #876A59",
"{  c #9C745B",
"}  c #916B50",
"|  c #A36A44",
" . c #AA6E44",
".. c #AD7046",
"X. c #AD7048",
"o. c #B47244",
"O. c #BB7646",
"+. c #BE7847",
"@. c #B47549",
"#. c #BC7748",
"$. c #BE7A4A",
"%. c #BD7E52",
"&. c #987764",
"*. c #8F7E73",
"=. c #C27D4D",
"-. c #C37F50",
";. c #9F8576",
":. c #AD8A73",
">. c #C5804F",
",. c #C58151",
"<. c #C98352",
"1. c #034181",
"2. c #0C4782",
"3. c #014589",
"4. c #08498B",
"5. c #024A93",
"6. c #024D9A",
"7. c #04519E",
"8. c #164982",
"9. c #365A84",
"0. c #235C99",
"q. c #0253A4",
"w. c #0156AB",
"e. c #0158AF",
"r. c #015AB3",
"t. c #005EBC",
"y. c #085CB1",
"u. c #0962BC",
"i. c #1F6AB7",
"p. c #2872BC",
"a. c #6B7A8A",
"s. c #0162C4",
"d. c #0065CA",
"f. c #0A6ACB",
"g. c #0968C8",
"h. c #126ECD",
"j. c #1470CE",
"k. c #1B74CF",
"l. c #1E77D0",
"z. c #277CD2",
"x. c #7B8896",
"c. c #6E8DAE",
"v. c #3484D4",
"b. c #3A86D5",
"n. c #3D89D6",
"m. c #3E83CA",
"M. c #448CD7",
"N. c #498FD9",
"B. c #4C91D8",
"V. c #5A9ADC",
"C. c #5395DA",
"Z. c #508CCB",
"A. c #629EDD",
"S. c #669CD6",
"D. c #6CA5DF",
"F. c #64A0DD",
"G. c #73A5D7",
"H. c #7EAFE3",
"J. c #74A9E1",
"K. c #7FB0E3",
"L. c #6CA4E0",
"P. c #828283",
"I. c #88888A",
"U. c #868D95",
"Y. c #8C9299",
"T. c #97989C",
"R. c #9B8B81",
"E. c #BC9C86",
"W. c #BBA79B",
"Q. c #8699AE",
"!. c #99A6B6",
"~. c #A6A7A9",
"^. c #A7ACB2",
"/. c #B7B9BD",
"(. c #A6B0BD",
"). c #C7AA97",
"_. c #D5AF96",
"`. c #D0A588",
"'. c #DABEAD",
"]. c #92AAC4",
"[. c #87ADD6",
"{. c #8BB7E5",
"}. c #8AB6E5",
"|. c #94BCE7",
" X c #BFC0C3",
".X c #BDC7D2",
"XX c #9DC1E9",
"oX c #ADCBEC",
"OX c #A5C6EB",
"+X c #BBD3EE",
"@X c #B5D0EE",
"#X c #B5CFEC",
"$X c #C7C7C9",
"%X c #CDCED0",
"&X c #D2D3D6",
"*X c #D7D8DB",
"=X c #E8DCD6",
"-X c #C7DAEE",
";X c #DEDEE1",
":X c #CCDDF2",
">X c #C4D9F1",
",X c #DCE1E7",
"<X c #D9E6F5",
"1X c #D8E4F4",
"2X c #E2E3E6",
"3X c #E7E8EB",
"4X c #E4ECF6",
"5X c #ECEDF2",
"6X c #E7EEF8",
"7X c #EEF0F5",
"8X c #EDF2F9",
"9X c #F2F3F6",
"0X c #F5F6FA",
"qX c #F7F8FB",
/* pixels */
"H K K Q T R T E E E E E W R E R E E T T R T T T T T E T T T T K T R R R R T T H H H H T W R R R T J ",
"o.<.<.>.>.<.<.>.<.,.,.,.-.,.<.<.<.,.<.,.<.<.<.,.<.,.<.,.<.<.<.>.=.<.>.<.<.<.,.<.<.<.,.<.<.<.<.-.-._ ",
"_ -.=.=.=.=.>.<.<.<.<.,.,.,.<.,.,.-.<.<.,.,.<.-.,.,.<.=.<.<.>.=.>.<.,.<.<.<.,.,.,.,.,.,.<.-.-.=.-.) ",
") =.=.$.=.=.=.=.=.-.-.-.-.-.=.=.=.-.-.-.$.-.-.-.<.=.=.=.=.=.=.=.$.-.-.,.>.=.-.,.,.-.-.-.=.=.=.=.=.) ",
"_ -.=.=.=.>.<.=.=.-.-.,.-.-.-.-.-.-.| ' 3 Y W =.,.>.>.<.<.,.,.%.=.<.,.,.<.<.<.=.-.-.=.=.=.-.-.-.=.) ",
"_ -.-.$.=.>.<.=.=.=.-.-.-.-.-.-.-.U 3 0 2.8.# 5 =.>.=.>.,.,.-.=.=.>.<.=.=.-.=.=.-.-.=.=.=.-.-.=.=.) ",
"_ =.=.+.=.-.%.=.=.=.=.#.=.=.=.=.5 a j w.d.r.1.O 9 $.=.=.=.=.=.$.$.=.=.=.=.$.=.=.$.=.=.=.=.=.=.=.=.) ",
"_ =.$.$.$.$.=.$.#.=.#.=.=.#.O., e w.t.d.d.d.t.5.O U $.$.$.$.$.O.O.$.#.$.$.$.$.$.#.#.#.=.#.=.#.=.=.` ",
"_ =.=.$.,.,.,.-.,.,.,.,.W W * f s.s.d.d.d.d.d.s.4.$ ^ >.=.=.=.=.=.=.$.=.=.=.=.=.=.=.=.$.$.=.=.-.=.) ",
"_ =.-.=.=.-.,.<.-.,.=.9 * e 1.d.d.d.d.d.d.d.d.d.u.2.* ] =.=.<.=.=.=.=.=.=.=.,.-.<.>.-.=.$.,.,.<.=.) ",
"_ =.=.=.=.=.-.<.<.-.2 # h 6.d.d.d.d.d.d.d.d.d.d.d.u.2.* | =.=.=.=.>.=.%.=.-.-.<.-.>.=.$.$.=.=.>.=.) ",
"_ >.>.-.-.-.=.-.-.[ r q.r.d.d.d.d.d.d.d.d.d.d.d.d.d.u.z = @.<.=.-.=.<.=.=.=.<.-.=.<.<.$.$.<.-.<.=.) ",
"_ <.,.,.%.=.=.=.8 Z q.w.s.d.d.d.d.d.d.d.d.d.d.d.d.j.N.[.P.< =.,.,.,.,.,.,.>.,.,.,.,.,.=.$.>.<.,.=.) ",
"_ =.>.<.<.>.-.@.3 h 1.0 r.s.d.d.d.d.d.d.d.d.d.f.v.{.+X9X;XS 2 -.-.<.,.,.>.-.-.<.,.,.<.$.$.>.>.,.=._ ",
"_ =.,.=.=.,.,.9 + r.d.d 0 e.s.d.d.d.d.d.d.d.h.B.1X4X0XqX8X%XV 6 =.>.,.,.,.,.>.=.=.-.=.$.$.>.-.-.=.` ",
"_ $.$.#.#.$.^ - 3.s.d.s.t 0 e.s.d.d.d.d.d.v.D.<X8X0XqXqXqX3X^.M 9 $.$.$.$.$.=.$.$.$.$.#.#.#.$.$.=.` ",
") =.=.O.=.=.7 q w.d.d.d.d.q y e.d.d.d.f.J.oX0X0X0X0X0X0X8XoXZ.c.3 6 =.=.=.=.=.=.$.$.$.$.$.$.=.-.=.` ",
"_ -.=.=.=.W   6.d.d.d.d.d.d.t h r.d.j.H.>X0XqX0X0X0X9X<X{.D.z.p.U.> 8 -.-.-.-.-.<.=.=.-.=.=.-.-.=.` ",
"_ -.-.=. .2 f r.d.d.d.d.d.d.t.t j i.}.:X0XqXqXqX0X6XoXD.V.k.n.S.].P.< W =.-.-.<.,.,.-.,.>.=.=.,.=.) ",
"_ -.=.#.W e 5.d.d.d.d.d.d.d.d.r.% a..XqXqXqXqXqXXXXX}.z.V.M.D.4X9X XF 1  .-.<.-.,.-.<.,.-.<.=.=.=.) ",
"_ -.-.W X h s.d.d.d.d.d.d.d.d.l.c.- I.&XqXqX9XoX}.b.}.J.b.#X-X9X9X9X/.F 8 @.>.=.-.-.=.=.=.=.=.=.=.) ",
"_ <.#.2 @ 5.s.d.d.d.d.d.d.d.f.n.:X/.* ~.,X<XOX}.|.>XB.{.oX-X0X9X9X9X0Xc.n W $.=.-.-.-.-.<.=.=.=.=.` ",
"( =.=.B t t.d.d.d.d.d.d.d.d.z.@X8X0X^.* !.G.B.v.V.@X:X+X8X0X9X9X8X6XF.h.5.k  .=.-.<.-.,.-.=.=.=.=._ ",
") =.=.U a 5.s.d.d.d.d.d.d.z.OX6X0X0XqXT.$ Q.Z.k.N.|.7X7XqXqXqX5X1XN.d.d.d.3.n O.$.=.$.$.$.$.=.$.=.) ",
") =.=.=.1 % w.g.f.d.d.d.k.H.1X0X0X0X0XqXI.3 ^.M.H.7X9X9X0XqX4X>Xb.d.d.d.d.s.0.{ $.=.=.#.+.=.=.=.=.` ",
"_ =.-.=.=., u y.f.f.f.h.M.:X0X0X0X0X0X0XqXa.k ].4X9X9X9X0X1XOXz.s.f.d.d.s.s.z ] >.<.=.=.=.=.=.=.=.` ",
"_ -.,.,.%.@.X d r.d.s.k.+X0X0X0X0X0X0XqXqXqXF S &X7X0X0X+X}.k.f.f.f.f.g.u.f k ;.,.,.=.=.#.=.=.>.=.` ",
"_ <.,.,.,.$.] X h t.k.#X0X0XqX0X0X0XqXqXqX9X0XD P.*X9XoXV.f.d.d.d.d.s.e.w C 3XW.@.>.=.=.$.=.<.,.=.` ",
"_ ,.<.=.<.-.$.'   2.F.<X0X0X0XqX0X0XqX0XqX9XqX9XG I.[.B.d.d.d.d.d.s.r.0 D 0X0XW.@.,.,.-.+.=.=.,.-.) ",
"_ ,.>.>.-.,.<.@.8 O Q.9XqXqX0X0X0X0X0X0X9X0X9X0X;Xa z s.d.d.d.d.r.7.% G 0XqX2XR.@.<.,.$.=.=.=.=.=.) ",
"_ ,.<.-.,.,.,.,.@.8 -  X5X0X0X0X0X0X0X0X9XqXqX4XF.i.@ 3.s.d.d.q.2.s U.0X0X0X2X[ ..,.<.$.=.=.-.-.-.) ",
"_ $.-.$.=.-.=.$.=.X.8 :  X5X0X0X0X0X9XqXqX9X4X}.z.f.6.+ 6.s.w.z n ^.qX0X0X0X2X{ @.=.=.$.=.=.=.=.=.` ",
"_ $.$.$.$.$.$.$.$.$.@.7 ; *X0XqX0X0X9X9X0X6XoXb.d.h.d.w.r.s.0.U. X0X0X0XqX0X=X%.%.$.#.#.=.$.=.#.=.` ",
"_ >.>.$.=.>.,.,.,.<.-.$.7 m 3X9X0X0X0X0X7X>Xb.d.d.f.d.d.r.e.p D ~.7X5X9XqXqX7X).%.-.-.=.=.=.=.=.=.) ",
"_ >.>.$.=.=.=.=.-.-.,.-.@.7 A ;X7X0X0X0X6XM.d.d.d.g.s.5.3.5.6.t c C P./.$X&X0X`.-.-.-.-.-.=.=.=.=.) ",
"_ >.=.$.=.,.-.=.=.=.=.=.$.@.1 n %X7X0X6XA.f.d.d.d.g.q.y y t.s.t.r.3.z p s C Y._.-.-.-.-.=.-.=.-.=.) ",
"_ ,.,.#.=.>.=.=.=.=.=.,.,.$.$.o A &X7XoXz.d.d.d.d.u.y 0 t.d.d.d.d.d.d.w.5.1.Q.'.-.-.=.-.=.=.=.=.=.) ",
"_ <.,.$.=.>.=.>.=.-.=.=.>.>.$.%.X S &XV.d.d.d.d.g.f q s.d.d.d.d.d.d.d.t.q.Z /.0X_.%.-.-.=.-.-.<.-.) ",
"_ ,.,.$.=.>.>.>.=.=.=.=.=.>.>.>.X.X c y.d.d.d.d.1.u w.s.d.d.d.d.d.d.s.q.c T.7X&X).-.=.=.=.<.<.-.=.` ",
"_ -.$.$.$.,.>.=.>.=.$.=.$.>.,.$.=.| . h t.d.s.q.f g t.d.d.d.d.d.d.s.w.r Y.7X*XE.$.-.=.=.=.=.=.=.=.` ",
"_ =.$.#.#.$.$.$.$.$.#.#.$.$.$.$.$.$.' . 1.t.r.y @ y.d.d.d.d.d.d.d.w.t x.,X,X:. .$.$.$.$.$.=.$.$.=.` ",
"_ $.=.$.=.$.$.=.$.=.=.%.=.=.=.=.$.$.$.U O 6.d + q.g.d.d.d.d.d.d.w.y x.&X8X;.' =.$.=.$.$.#.=.=.=.=.` ",
"_ >.,.,.-.=.=.-.<.,.,.,.,.,.<.,.-.-.$.$.N c u j q.g.s.d.d.d.d.e.f a.$X7XF 8 -.=.-.-.-.=.#.-.=.=.=._ ",
"_ >.,.-.<.>.=.-.,.<.,.,.,.,.,.,.,.,.-.=.-.&.M O e f 5.q.w.e.s.4.k ^.:X;.[ ,.=.=.-.-.,.=.=.=.-.=.>._ ",
"_ =.=.=.-.=.<.-.,.<.,.>.>.>.>.,.=.-.$.$.=.-.] 8 5 = : $ * c 9.9.T.%XA } =.,.=.=.=.-.-.=.#.=.-.-.>.` ",
"_ <.=.-.=.=.-.-.-.,.=.-.>.>.,.,.-.-.=.#.-.-.<.<.$.$.$.@...%.%.&.:.4 ' =.=.>.>.,.,.,.<.$.#.=.=.-.>.` ",
"_ ,.=.=.=.=.-.=.=.=.=.-.$.,.>.,.,.,.$.$.=.<.-.=.<.-.-.-.=.<.>.>...X.=.=.-.,.<.,.<.,.-.=.=.=.-.-.<.` ",
"_ =.=.<.=.,.-.,.=.$.$.=.=.>.=.=.-.<.$.$.=.,.=.=.=.=.=.=.=.=.=.=.=.=.=.=.$.-.-.,.,.-.=.=.=.-.-.<.>.` ",
"_ #.=.O.+.$.$.$.=.$.+.$.$.+.$.+.+.+.O.O.+.O.+.O.O.O.O.o._ +.o.O.+.+.+.=.+.=.$.$.$.$.+.+.O.O.=.O.O.` ",
"! / ! ! ! ! P P P P P ~ ~ L L L P P L P P P P L P P P P P P ! ! P P P L I P P ! ! ~ ~ E / ! ! ! ! I "
};
