/* XPM */
static char *result[] = {
/* columns rows colors chars-per-pixel */
"50 50 206 2 ",
"   c #16181E",
".  c #281C14",
"X  c #241D1B",
"o  c #241913",
"O  c #2D211A",
"+  c #33241A",
"@  c #3E291B",
"#  c #041629",
"$  c #021B35",
"%  c #051E38",
"&  c #1C1F26",
"*  c #092139",
"=  c #19293B",
"-  c #192739",
";  c #1E2027",
":  c #282628",
">  c #362C25",
",  c #3C322B",
"<  c #333538",
"1  c #43362E",
"2  c #563925",
"3  c #493D35",
"4  c #513D30",
"5  c #613F28",
"6  c #4A423C",
"7  c #594335",
"8  c #724B2F",
"9  c #6C4A33",
"0  c #032344",
"q  c #08294C",
"w  c #182C41",
"e  c #012E5B",
"r  c #092E54",
"t  c #0C335A",
"y  c #093057",
"u  c #153456",
"i  c #1D3147",
"p  c #26394D",
"a  c #073768",
"s  c #183C63",
"d  c #043B73",
"f  c #063E78",
"g  c #394857",
"h  c #2C445D",
"j  c #10467F",
"k  c #3E4F64",
"l  c #4A4B4B",
"z  c #424244",
"x  c #464F59",
"c  c #48535D",
"v  c #565657",
"b  c #765744",
"n  c #695C57",
"m  c #6B5B4F",
"M  c #7D665C",
"N  c #586375",
"B  c #6B6A6A",
"V  c #73787E",
"C  c #8B4E2D",
"Z  c #864723",
"A  c #92542E",
"S  c #99572A",
"D  c #9C5A2C",
"F  c #955227",
"G  c #935631",
"H  c #965833",
"J  c #9B5B32",
"K  c #905E3A",
"L  c #875435",
"P  c #A05D2F",
"I  c #A05E32",
"U  c #98633E",
"Y  c #A96637",
"T  c #AA6738",
"R  c #AC6A3B",
"E  c #A96635",
"W  c #825E49",
"Q  c #8C634B",
"!  c #9D6742",
"~  c #846856",
"^  c #9E7558",
"/  c #A36B43",
"(  c #AA6E45",
")  c #AC7046",
"_  c #AA724C",
"`  c #B37245",
"'  c #BB7646",
"]  c #BE7847",
"[  c #B4754A",
"{  c #BE7A4A",
"}  c #BA774A",
"|  c #AB7957",
" . c #B77D54",
".. c #967C6C",
"X. c #C27D4E",
"o. c #C37F50",
"O. c #8C837F",
"+. c #AA846A",
"@. c #BE8A65",
"#. c #C5804F",
"$. c #C58151",
"%. c #C98352",
"&. c #CA926B",
"*. c #C88F66",
"=. c #034384",
"-. c #02468D",
";. c #03488E",
":. c #0B4888",
">. c #014A93",
",. c #024D9A",
"<. c #084D93",
"1. c #00509F",
"2. c #155394",
"3. c #275B94",
"4. c #0153A5",
"5. c #0156AB",
"6. c #0858A8",
"7. c #015BB4",
"8. c #005EBC",
"9. c #085CB2",
"0. c #0160BF",
"q. c #0A62BB",
"w. c #346CA7",
"e. c #45668A",
"r. c #797F84",
"t. c #637488",
"y. c #507EAE",
"u. c #0162C4",
"i. c #0065CA",
"p. c #0A6BCC",
"a. c #0867C5",
"s. c #116ECD",
"d. c #1471CD",
"f. c #1973CF",
"g. c #1E77D0",
"h. c #2878CA",
"j. c #2B7ED2",
"k. c #257AD1",
"l. c #337ECC",
"z. c #6B829C",
"x. c #6A88A7",
"c. c #728DAA",
"v. c #3E89D6",
"b. c #3583D4",
"n. c #3881CD",
"m. c #478ED8",
"M. c #5B9ADC",
"N. c #5093DA",
"B. c #478CD4",
"V. c #609DDC",
"C. c #69A2DE",
"Z. c #77A8DC",
"A. c #78ACE2",
"S. c #8B8D92",
"D. c #81909F",
"F. c #9A9C9E",
"G. c #9D9897",
"H. c #8896A6",
"J. c #999DA3",
"K. c #9DA4AB",
"L. c #A5A7AA",
"P. c #A7A8AA",
"I. c #B6B7B9",
"U. c #AAAFB7",
"Y. c #CC9F83",
"T. c #CDA286",
"R. c #D7BAA9",
"E. c #8CACCF",
"W. c #B5BAC1",
"Q. c #82AFE0",
"!. c #82B1E3",
"~. c #8AB6E5",
"^. c #8CB8E6",
"/. c #93BBE7",
"(. c #97BDE8",
"). c #BDC2C9",
"_. c #BECDDE",
"`. c #9EC2E9",
"'. c #A8C8EA",
"]. c #B1CEED",
"[. c #B4D0EE",
"{. c #BAD2ED",
"}. c #BFD6F0",
"|. c #C4C5C9",
" X c #CCCED1",
".X c #D2D3D6",
"XX c #D4D5D9",
"oX c #DADBDE",
"OX c #DDDEE2",
"+X c #CCDEF2",
"@X c #C1D7F0",
"#X c #CBDBEF",
"$X c #DEE1E7",
"%X c #D5E3F4",
"&X c #DBE6F4",
"*X c #DEE8F5",
"=X c #EAEAEE",
"-X c #E4E4E8",
";X c #E2EAF5",
":X c #EDEEF2",
">X c #E5EDF8",
",X c #EDF0F5",
"<X c #EEF2F9",
"1X c #F2F3F6",
"2X c #F5F6FA",
"3X c #F7F8FB",
/* pixels */
"C A A A A G G H H J J H H H H H J H H G G G G G G H H H H A H A H H H H H H G C C C A G H H H H H Z ",
"` %.%.#.%.%.#.%.%.$.%.$.%.%.%.%.%.%.%.%.%.%.$.%.%.$.o.%.%.%.%.X.#.#.#.%.%.%.%.%.%.o.$.%.%.%.%.%.o.R ",
"R o.X.X.X.X.#.%.$.%.%.%.$.%.$.$.$.o.$.$.%.%.o.o.$.o.%.%.%.%.X.X.X.%.X.%.%.%.$.$.o.o.$.$.o.o.X.o.o.T ",
"T X.X.{ X.X.X.X.X.o.o.o.o.o.X.X.X.o.%.$.$.o.o.o.o.o.X.X.X.o.X.X.X.o.$.o.X.X.o.o.$.o.o.o.X.X.X.X.X.T ",
"R o.X.X.X.#.X.o.o.o.%.$.o.%.%.o.o.o.o.o.! 8 M 1 + @ 2 U { $.$.X.o.%.%.%.%.%.%.#.o.o.X.X.X.X.o.o.X.T ",
"R o.o.{ X.%.%.X.X.X.o.X.%.o.o.o.{ ! 5 @ & s 2.<.=.a q - : O @ 2 5 8 / X.X.X.X.X.o.o.X.X.X.X.X.X.X.T ",
"R X.X.{ X.$.o.X.X.} } X.X.} K 2 X - t =.4.8.e ,.u.8.7.5.5.4.,.:.f u = 4 ) X.X.{ X.X.X.X.X.X.X.X.X.T ",
"R X.{ { { { { { X.{ { 8 @ X = t :.5.8.0.i.i.0 >.u.i.i.i.i.i.u.u.8.7.6.j b [ { { } } } X.' X.X.X.X.T ",
"R X.X.{ o.$.$.$.$.$.Q : q =.4.8.0.i.i.i.i.i.$ >.u.i.i.i.i.i.i.i.i.i.i.;.: / X.#.X.X.X.{ { X.X.o.X.T ",
"R X.o.X.X.%.$.$.$.$.4 j 5.u.i.i.i.i.i.i.i.i.$ -.u.i.i.i.i.i.i.i.i.i.i.,.# ! o.$.%.#.o.X.{ $.$.%.X.T ",
"R X.X.X.{ o.$.o.$.X.@ d 8.i.i.i.i.i.i.i.i.i.$ -.u.i.i.i.i.i.i.i.i.i.i.7.# ! $.$.o.#.X.{ { X.X.o.o.T ",
"R #.X.o.X.o.o.%.o.{ + j u.i.i.i.i.i.i.i.i.i.0 -.u.i.i.i.i.i.i.i.i.i.i.7.% T $.$.X.%.%.{ { %.%.$.X.T ",
"R %.$.$.{ o.{ o.X.{ O :.u.i.i.i.i.i.i.i.i.i.e -.u.i.i.i.i.i.i.i.i.i.i.7.= / $.$.$.$.$.X.{ X.%.$.o.T ",
"R $.#.%.$.$.o.o.{ } X -.a.i.i.i.i.i.i.i.i.i.e >.u.i.i.i.i.i.i.i.i.i.i.7.= ! o.%.$.$.%.{ X.X.#.#.o.T ",
"R X.X.X.o.$.$.$.$.[ X -.a.p.i.i.i.i.i.i.i.i.q ;.u.i.i.i.i.i.i.i.i.i.i.7.w / %.X.X.X.X.{ { X.o.X.X.E ",
"R { { { { { { { { [ : >.u.p.p.i.i.i.i.p.k.M.p x.Q.A.A.!.M.j.s.s.p.i.i.q.w ! { { { { { { { { { { X.E ",
"R X.X.} { X.X.X.X.) X ,.u.i.s.b.M.!.(.[.+X;Xl J.$X>X>X>X*X+X[.[.'.A.m.h.= / X.X.{ { { { { { X.o.X.Y ",
"R X.X.X.X.%.X.X.X.( : w.!.[.+X%X;X>X<X2X2X2Xl J.:X2X3X2X2X2X<X2X,X;X&X_.z / #.$.%.X.X.o.X.X.o.o.X.Y ",
"R %.X.{ X.#.X.o.X.( , W.;X1X2X3X2X2X2X2X2X2Xl P.:X2X2X3X2X3X2X2X2X3X3XoXz / %.$.$.$.%.o.X.o.$.o.X.T ",
"R X.X.{ X.#.X.o.X.( , |.1X3X2X3X2X2X2X2X2X2Xz P.;X1X2X2X3X2X2X2X2X3X3XXX3 / $.$.$.%.$.o.%.X.X.#.X.Y ",
"R $.o.{ X.X.%.X.o.[ > I.1X2X2X2X2X3X3X2X2X3X< c.C.(.].(.~.%X*X<X<X2X2X X6 ( #.#.o.{ o.o.X.X.X.X.X.T ",
"R %.X.} X.#.X.$.%.} > I.1X2X2X2X3X2X2X3X2X3X3 D.B.m.A.`.m.'.V.~.^.%X/.E.7 ) X.X.o.$.o.o.o.X.X.X.X.T ",
"R X.X.{ X.o.o.o.o.{ , ).2X2X2X3X2X2X3X2X2X2Xl H.n.s.M.%XM./.v.V.b.v.g.c.6 ) X.#.$.%.$.%.o.X.X.X.X.T ",
"R { X.{ { X.X.X.X.} 1 |.2X3X2X2X3X2X2X3X2X3Xl x.l.N.C.*XC.~.v.C.g.b.s.x., R X.] { { { { { { X.{ X.Y ",
"R X.{ { { X.{ X.X.` , ).1X2X2X1X3X1X1X3X1X2Xv K.@X%X%X1X{.+X^.{.Z.].C.H.> T X.X.X.X.X.} { X.X.X.X.E ",
"R X.X.X.#.#.X.X.X.[ + I.1X2X2X1X1X2X3X1X3X1Xv I.=X1X1X1X,X1X;X:X*X,X&XK., / #.#.X.#.X.X.{ X.X.X.X.E ",
"R %.%.$.%.X.X.X.X.{ o L.:X3X2X2X2X1X2X2X2X1XB W.1X2X1X2X3X3X1X1X1X1X1XJ.1 ( X.%.%.$.X.X.{ X.%.X.X.T ",
"R #.$.$.o.o.o.X.#.X.o L.=X2X2X2X1X3X2X1X2X1Xn I.1X1X2X2X2X3X2X1X1X1X1XF.6 ) #.X.#.X.X.X.{ X.X.o.X.Y ",
"R $.%.X.o.X.X.%.$.$.X P.,X3X2X2X&X}.]./.Z.M.i y.!./.`.].@X+X%X*X;X<X1XJ.9 [ X.$.$.$.$.{ ] X.#.%.#.T ",
"R $.$.#.%.o.X.$.$.$.. P.&X`.C.v.k.g.f.f.s.s.q 6.s.f.f.g.j.j.j.j.j.b.m.e.b [ %.#.#.$.%.X.X.X.#.#.#.T ",
"R $.%.$.$.$.$.$.%.{ o 3.h.g.s.i.i.i.i.i.p.u.0 4.i.i.i.i.i.p.i.i.i.i.a.:.b { $.#.X.%.X.X.] X.o.X.X.T ",
"R { X.{ X.X.X.X.X.{ o >.u.i.i.i.i.i.i.p.i.i.0 1.u.i.i.i.i.p.p.i.i.i.i.-.b { X.{ X.{ X.{ X.X.X.X.X.Y ",
"R { { { { { { { { { X >.u.i.i.i.i.i.p.p.i.i.6.0.i.i.i.i.i.i.i.p.i.i.i.=.W } X.{ X.{ { { { { { { X.E ",
"R #.X.{ X.#.%.o.$.$.X >.u.i.i.i.u.a.9.1.-.4.8.u.5.-.-.1.7.8.7.7.9.a.0.3.| X.X.o.o.X.o.X.X.X.X.X.X.T ",
"R #.#.{ X.X.X.X.{ { : ,.7.4.1.f y % $ $ 0 =.,.s t.N c g w % % # % q 0 ~  .%.$.%.%.$.%.X.o.X.X.X.X.T ",
"R #.#.{ X.$.o.X.$.o.t.a $ $ % t =.,.4.5.7.8.7.% S..XXX.X.X|.|. X XW.S. .o.o.%.o.X.X.X.o.X.o.X.o.X.T ",
"R $.#.{ { $.X.X.X.X.n t f ;.6.9.0.u.i.i.i.i.i.d c OX2X2X3X2X2X2X2XXX+.o.o.X.o.X.o.{ X.o.X.X.X.X.X.R ",
"R #.o.{ X.#.#.#.X.o.L   =.0.i.i.i.i.i.i.i.i.i.7.r L.:X2X3X3X2X1XI.+. .} X.o.%.%.$.o.o.o.X.%.o.$.X.Y ",
"R $.$.{ X.#.X.$.o.o.[ 2 - 6.i.i.i.i.i.i.i.i.i.i.,.g  X1X3X2X1XG.Q [ o.o.X.X.o.o.o.o.X.X.X.$.%.o.X.R ",
"R $.X.{ X.#.#.{ o.X.X.( + d 8.i.i.i.i.i.i.i.i.i.u.t V $X2X2XR.^ [ X.o.X.X.X.o.o.X.o.X.X.X.X.X.X.X.Y ",
"R { { { { { { { } } } } U & =.0.i.i.i.i.i.i.u.i.i.5.w S.=X=X+.[ { { { { { X.{ { { } { { { { { X.{ Y ",
"R X.{ { X.{ { X.X.X.o.o.X.! : ;.0.i.i.i.i.u.8.7.7.4.f k OXY. .{ { X.X.{ X.X.X.X.{ X.{ { { X.{ X.{ E ",
"R %.$.$.o.X.X.X.o.o.$.%.$.o._ k 9.>.=.a a a e u h g t.).T.$.$.$.$.$.$.$.X.%.X.X.o.o.o.X.X.X.X.X.X.R ",
"R #.$.o.%.X.o.X.o.%.$.$.$.o.o. .e.k x z.J.K.U.)..XoX$X1X&.o.$.$.$.$.$.%.o.X.o.X.o.o.$.X.} X.o.o.#.Y ",
"R X.X.X.X.%.o.o.o.%.o.o.o.X.%.o...).XX-X=X:X:X=XOXXXXXOX*.#.#.{ $.o.X.$.X.$.X.X.o.o.X.{ } X.X.X.#.R ",
"R %.o.X.X.X.o.o.o.%.X.X.o.%.o.$._ m n B r.B n ~ ^ +.*.&.$.$.$.$.o.{ X.X.X.#.X.%.o.%.%.X.X.X.o.X.X.R ",
"R %.X.X.X.X.X.X.X.X.X.o.X.$.o.%.{ [ ( _  ._ _ [ { { X.X.#.%.#.#.X.{ X.X.$.$.%.$.%.o.o.X.X.X.o.o.$.Y ",
"R #.X.o.o.o.$.o.X.X.{ X.X.X.X.X.X.X.X.X.X.#.X.o.o.X.X.{ { X.X.X.$.X.X.X.{ o.o.$.$.o.X.X.X.o.%.o.#.Y ",
"R } ] ] ] X.{ { X.{ ] ] { ] { ] ] ] ' ' ' ' ] ' ' ' ' ` ` ' ' ' } ' ' X.X.X.] { { } } ] } ' ' ] ' R ",
"E J J D J P D D D D J P E S F F D D D S D D D D S D D D D D P D D D D S F D D P D E P D P I D E P F "
};
