/* XPM */
static char *result[] = {
/* columns rows colors chars-per-pixel */
"50 50 211 2 ",
"   c #0A131C",
".  c #1A1718",
"X  c #241B18",
"o  c #342419",
"O  c #2E2118",
"+  c #071524",
"@  c #151B23",
"#  c #011B36",
"$  c #152537",
"%  c #112233",
"&  c #232223",
"*  c #2A2828",
"=  c #342926",
"-  c #252A32",
";  c #343437",
":  c #2C333B",
">  c #462F1F",
",  c #412E20",
"<  c #483325",
"1  c #593C28",
"2  c #493C35",
"3  c #5E4434",
"4  c #4B413F",
"5  c #67432B",
"6  c #734A2E",
"7  c #6A4C39",
"8  c #754D32",
"9  c #7B5135",
"0  c #7C553B",
"q  c #76533B",
"w  c #022345",
"e  c #02264C",
"r  c #062A4E",
"t  c #192C44",
"y  c #032A53",
"u  c #042D57",
"i  c #183657",
"p  c #113154",
"a  c #373F4A",
"s  c #013367",
"d  c #03366A",
"f  c #04396E",
"g  c #093867",
"h  c #023A74",
"j  c #023D79",
"k  c #0A3F75",
"l  c #143D66",
"z  c #3D4B5A",
"x  c #0B427B",
"c  c #114276",
"v  c #274667",
"b  c #355372",
"n  c #434242",
"m  c #474A4D",
"M  c #585657",
"N  c #554B45",
"B  c #68544B",
"V  c #6D625B",
"C  c #4E5D70",
"Z  c #576474",
"A  c #686567",
"S  c #6E747C",
"D  c #78797A",
"F  c #736F6C",
"G  c #8B4E2D",
"H  c #864723",
"J  c #92542E",
"K  c #99572A",
"L  c #9C5A2C",
"P  c #955227",
"I  c #8C5D3C",
"U  c #825537",
"Y  c #935631",
"T  c #965833",
"R  c #9B5B32",
"E  c #935F3C",
"W  c #8E512E",
"Q  c #A05D2F",
"!  c #A05E32",
"~  c #94603C",
"^  c #A96637",
"/  c #AA6738",
"(  c #AC6A3B",
")  c #A96635",
"_  c #8E6041",
"`  c #9A6642",
"'  c #886B57",
"]  c #9F7253",
"[  c #A56C45",
"{  c #A96F45",
"}  c #A26E4C",
"|  c #AE7046",
" . c #AC7149",
".. c #A5714E",
"X. c #B37245",
"o. c #BB7646",
"O. c #BE7847",
"+. c #B5754A",
"@. c #B97749",
"#. c #BE7A4A",
"$. c #B7784D",
"%. c #A97857",
"&. c #B87B51",
"*. c #817F7F",
"=. c #C27D4D",
"-. c #C37F50",
";. c #A1826C",
":. c #C5804F",
">. c #C58151",
",. c #C98352",
"<. c #C38559",
"1. c #C59574",
"2. c #024182",
"3. c #01458A",
"4. c #094889",
"5. c #1C4E83",
"6. c #1D5186",
"7. c #024A94",
"8. c #014E9C",
"9. c #07509B",
"0. c #355C88",
"q. c #0353A4",
"w. c #0156AC",
"e. c #0459AE",
"r. c #095BAF",
"t. c #025AB4",
"y. c #005EBB",
"u. c #0461BF",
"i. c #2264A7",
"p. c #4B6585",
"a. c #767F89",
"s. c #0062C5",
"d. c #0065CA",
"f. c #0668CB",
"g. c #096ACB",
"h. c #0966C4",
"j. c #136FCC",
"k. c #1671CE",
"l. c #1D74CE",
"z. c #277CD2",
"x. c #2674C5",
"c. c #7890A9",
"v. c #3A87D5",
"b. c #3986D5",
"n. c #4686C8",
"m. c #5B90C7",
"M. c #4C91D9",
"N. c #5A9ADC",
"B. c #5496DA",
"V. c #629EDD",
"C. c #6497CC",
"Z. c #67A2DE",
"A. c #7BACDF",
"S. c #7CADE2",
"D. c #73A8E1",
"F. c #6CA5E0",
"G. c #8A8B8C",
"H. c #858587",
"J. c #8B8D91",
"K. c #98989A",
"L. c #939293",
"P. c #B9A192",
"I. c #8897A8",
"U. c #869EB7",
"Y. c #93A2B3",
"T. c #A2A2A4",
"R. c #A8ABB0",
"E. c #B6B7B9",
"W. c #BAB6B6",
"Q. c #CFA384",
"!. c #C9B7AD",
"~. c #86AFDC",
"^. c #B6BCC4",
"/. c #A8BACD",
"(. c #8EB9E6",
"). c #86B3E4",
"_. c #94BCE7",
"`. c #BFC9D4",
"'. c #9CC1E9",
"]. c #A2C5EA",
"[. c #ADCBEC",
"{. c #A4C5E7",
"}. c #B2CEED",
"|. c #B6D1EE",
" X c #C6C8CB",
".X c #C6C5C8",
"XX c #CDCED1",
"oX c #D1D2D5",
"OX c #D7D8DC",
"+X c #E7D9D1",
"@X c #E9E1DF",
"#X c #C4D8EE",
"$X c #DBDDE3",
"%X c #C0D7F0",
"&X c #C6DAF0",
"*X c #CCDDF2",
"=X c #D3E1F3",
"-X c #D9E5F5",
";X c #DFE9F6",
":X c #DFE0E3",
">X c #E5E6E9",
",X c #EAEBEE",
"<X c #E3E4E7",
"1X c #E3EBF5",
"2X c #ECEEF2",
"3X c #E7EEF8",
"4X c #EEF1F5",
"5X c #ECF1F9",
"6X c #F2F3F6",
"7X c #F5F6FA",
"8X c #F7F8FB",
/* pixels */
"G J J W J Y T T T R R T R T R T T T Y Y Y Y Y Y Y Y Y Y Y Y Y J L Y R T T Y W G G G Y Y R T T T Y H ",
"X.,.,.:.,.,.,.,.,.,.>.,.,.,.>.>.,.,.,.,.,.,.,.,.,.,.,.,.,.,.:.:.=.,.,.,.,.,.,.,.,.>.-.,.,.,.<.,.-.( ",
"( -.=.=.=.:.:.:.>.<.>.,.>.,.>.,.>.,.<.,.>.>.>.,.,.,.=.>.>.>.,.=.=.,.-.,.-.,.>.,.<.-.>.>.-.-.-.-.-./ ",
"/ =.=.#.=.=.=.=.=.-.-.-.=.=.=.=.=.=.=.:.>.-.-.-.=.=.=.$.| >.:.#.=.-.-.-.-.-.-.-.-.-.-.-.=.=.=.-.=./ ",
"( -.=.=.=.:.:.=.-.,.>.,.>.>.>.>.-.-.-.-.-.-.=.=.>.,.8 4 = 8 >.=.=.-.,.,.-.-.-.-.-.-.-.=.=.=.-.-.=./ ",
"( -.-.#.=.:.=.,.=.=.-.-.:.:.-.>.-.-.-.=.=.=.=.=.$., t j r + 3 ~ =.=.-.-.-.=.=.=.=.=.=.=.-.-.-.-.=./ ",
"( =.=.#.=.-.-.=.#.#.=.#.#.=.#.:.#.#.#.#.=.=.o.{ o r 7.u.t.8.y : 1 =.@.=.=.=.=.o.=.=.=.=.=.=.=.=.=./ ",
"( =.#.#.#.#.=.#.=.#.#.#.#.#.#.#.#.#.@.O.=.@.` X u t.s.d.d.s.y.3.w ; 6 / =.=.=.=.O.O.o.#.o.=.=.o.=.) ",
"( =.=.#.-.>.>.>.>.>.>.>.>.=.:.=.=.=.=.=.@.I . s u.h.d.d.d.d.d.s.y.j p o E [ -.-.=.=.=.#.=.=.=.-.=./ ",
"( =.-.=.=.,.>.>.>.=.>.>.:.:.:.:.=.=.=.X.U   h y.g.g.d.d.d.d.d.s.d.d.w.f $ 3 ..-.,.=.=.=.#.-.>.,.=./ ",
"( =.=.=.#.-.-.,.-.=.=.=.=.:.>.>.,.-.{ 0 @ 6.s.d.g.f.d.d.d.d.d.d.d.d.d.d.8.5.M E ,.=.:.=.#.=.-.-.-./ ",
"( =.,.=.-.-.-.-.-.=.=.-.:.:.:.>.,.$.9 - R.~.M.d.g.d.d.d.d.d.d.d.d.d.d.d.d 2.x . ` -.=.=.=.=.,.-.=./ ",
"( >.>.>.-.#.=.=.=.#.=.=.=.:.>.>.#.q * E.4X5X-XV.k.f.d.d.d.d.d.d.d.d.s.y e y.w.g O  .,.=.O.-.-.,.-./ ",
"( >.:.>.,.>.,.&.-.=.=.,.:.>.>.#.q ; E.>X7X7X7X7XS.v.d.d.d.d.d.d.d.s.w e t.s.d.3.$ 9 =.=.=.=.-.-.=./ ",
"( =.:.=.=.>.>.>.-.-.=.=.=.=.+.7 m XX2X7X7X8X7X7X7X].B.d.d.d.d.d.s.w y w.s.d.d.d.s 2 #.=.=.=.-.=.=.) ",
"( #.#.#.#.#.#.#.#.#.#.#.#.#.1 m OX6X7X8X7X7X7X7X7X7X*XZ.j.d.d.y.u s t.s.d.d.d.d.s.w 5 @.@.O.#.O.=.) ",
") =.=.o.=.=.=.=.=.=.=.=.-.< n oX6X7X8X7X7X8X7X7X7X7X7X1X).v.t.e j w.s.d.d.d.d.d.d.y.@ 8 =.=.=.=.=.) ",
"( =.=.=.=.-.-.=.=.=.=.=.> n .X,X7X7X7X8X8X7X7X8X7X8X8X8X7XU.$ j t.d.d.d.d.d.d.d.d.d.8.= E -.=.-.=./ ",
"( =.=.=.=.-.=.-.=.=.=.o M XX2X7X7X7X7X7X7X8X7X7X7X7X8X8XE.; a.m.d.d.d.d.d.d.d.d.d.d.y.k < / =.=.=./ ",
"( =.=.=.=.,.=.-.=.+.X p /.1X7X8X7X7X6X6X7X7X8X8X7X7X8XR.& J.oX|.B.d.d.d.d.d.d.d.d.d.d.q.i U =.=.=./ ",
"( ,.=.O.=.=.=.=.[ X u t.l._.%X8X7X6X7X7X6X7X7X8X8X8XK.& T.OX7X7X[.M.d.d.d.d.d.d.d.d.d.d.j 2 =.=.=./ ",
"( ,.-.#.=.=.=...& d t.d.d.j.v.].2X7X6X7X7X7X7X7X8XL.@ I.$X7X7X7X5X[.b.d.d.d.d.d.d.d.d.d.e.a { =.=./ ",
"( -.=.=.=.=.%.p.x y.d.d.d.d.f.g.(.=X7X7X7X7X6X7XL.; I.C.].7X7X7X8X1XZ.k.d.d.d.d.d.d.d.w.k B X.=.=.( ",
"( =.O.O.=.| B i e 8.y.d.d.d.d.d.d.S.&X7X6X7X7XG.a U.m.z.S.*X7X7X7X8X%Xz.f.d.d.d.d.d.y.2.+ U =.=.=.) ",
"( #.#.#.#. .X s u # 7.t.d.d.d.d.d.g.Z.[.7X8XG.M ^.n.z.l.Z._.%X8X8X7X3X].k.f.d.d.d.y.7.  5 =.=.=.O.) ",
"( =.=.-.:.I - 9.e.g e d q.d.d.f.f.d.g.v.{.D D oX>X#XF.N._.].F.-X7X8X8X3X(.f.s.s.y.4.@ 9 =.=.=.=.=.) ",
"( ,.-.>.,.6 % t.f.h.4.h # 9.u.g.g.g.h.j.i Z OX2X8X6X&X[.-XB.S.1X5X8X7X8X|.M.f.u.4.. E #.#.=.:.:.=.) ",
"( ,.,.-.#.7 d y.d.d.d.w.2.+ 4.e.d.d.t.r f n.#X7X7X6X6X1XV.D.(.V.3X7X7X8X8X(.x.4.* ` =.=.#.=.-.-.-.( ",
"( ,.,.=.=.1 j d.d.d.d.d.d.2.# h t.s.e f s.l.S.-X7X6X7X-X}.S.z.N.].7X7X8X5X=X0.* ` ,.-.#.#.=.=.,.-.( ",
"( -.,.=.-.1 2.d.d.d.d.d.d.d.3.h q.u.q.y.d.d.z.(.1X7X7X7X=XV.N.M.B.=X8X4XOX;.< { ,.,.>.=.=.=.,.=.=./ ",
"( -.=.=.=.V 7.f.d.d.d.d.d.d.d.w.8.s.s.d.d.d.d.v.[.2X7X7X4X=X~.k.l.A.'.XXF = | :.=.=.-.=.=.=.=.=.=.( ",
"( =.=.=.=.A r.d.d.d.d.d.d.d.d.y.i b 8.y.d.d.d.f.N.*X4X7X7X4X{.D.l.x.U.V 1 O.=.=.=.=.=.#.O.=.=.=.=.) ",
"( =.=.O.&.Z 6.7.d.d.d.d.d.d.d.2.z T.C 2.s.d.d.d.f.V.-X6X6X6X6X].n.c.M 5 #.#.#.=.#.#.#.#.#.=.#.#.#.) ",
"( =.=.+...W.A v 3.d.d.d.d.d.s.c F >XG.v 8.s.d.f.f.d.D.1X6X6X6X XJ.n 5 =.=.-.=.-.,.=.=.=.=.=.=.=.=.) ",
"( :.=.#.0 L.oXJ.b 4.s.d.d.d.t.i ^.8X8XF l t.d.f.f.d.d.).6X6XXXH.2 5 =.-.>.>.>.>.>.>.>.-.=.=.=.=.=.( ",
"( :.=.#.&.7 T.<XE.b x y.s.d.q.a oX8X8X,Xz s y.d.f.d.d.f.{..X*.2 6 -.-.-.-.-.,.-.-.=.=.=.=.-.=.-.=./ ",
"( ,.-.#.=.$.V E.<X`.m c t.s.f S ,X7X8X7X$X: f t.d.d.d.f.i.S 7 U #.-.-.-.-.-.,.-.-.-.=.-.=.=.=.=.=.) ",
"( =.=.#.=.>.&.N R.>XOXC 5.q.y G.7X7X8X8X7XoX- c y.d.f.8.v B [ o.=.-.=.=.=.-.>.>.-.,.&.>.,.=.,.>.,.) ",
"( >.-.#.=.=.:. .7 W.>X$XA 0.v T.6X6X6X7X7X7X X$ 4.s.9.v E X.=.o.=.=.-.=.=.=.,.-.=.-.=.=.=.>.>.-.=.( ",
"( ,.-.#.=.:.:.=.X.I W.$X$X^.G.$X,X@X+X.X<X>X>XT.+ 0.C { =.=.=.=.=.-.=.=.=.=.=.=.=.=.=.=.=.=.=.=.=.) ",
"( #.#.#.O.#.#.#.O.X. .!.>X@X<.Q.Q.] %.' ' ;.P.;...%.#.@.#.#.#.$.#.#.#.#.#.#.#.=.#.O.#.#.#.#.=.#.=.) ",
"( =.#.#.=.#.#.=.#.:.&.<.!.<.=.,.#.$.$.#.X.$.#.$.=.=.=.=.#.#.=.#.#.=.-.#.=.=.=.=.=.#.#.#.#.=.#.=.#.) ",
"( ,.>.>.-.-.=.-.:.>.>.>.>.>.>.>.-.-.-.#.>.>.<.>.=.:.-.=.=.=.>.>.>.<.>.>.:.=.-.=.-.-.-.-.=.-.=.=.:./ ",
"( :.>.-.,.=.=.-.,.>.>.>.>.>.>.>.>.,.#.=.>.>.>.>.,.,.-.,.=.,.,.>.,.:.-.,.,.:.=.=.-.-.>.#.O.=.-.-.:./ ",
"( =.-.=.=.,.-.-.>.>.-.>.>.:.:.:.=.-.#.#.=.-.=.=.=.-.>.-.:.:.:.#.=.=.=.=.=.>.=.=.-.-.=.=.O.=.-.-.:./ ",
"( >.=.=.=.=.-.-.-.,.=.=.:.>.>.>.>.-.#.#.-.>.,.,.=.,.>.:.:.>.>.>.=.=.=.-.=.:.:.>.>.>.,.#.#.-.-.=.:./ ",
"( ,.=.=.=.=.-.=.=.=.=.-.=.:.>.>.>.>.#.#.=.>.,.-.:.:.:.:.:.>.:.:.=.=.=.=.-.>.,.>.,.-.,.#.=.-.-.-.:./ ",
"( =.=.,.=.>.>.=.=.=.=.#.=.>.#.:.=.,.=.#.=.>.=.=.=.:.=.#.=.=.=.=.>.#.=.=.-.#.-.>.>.>.=.=.=.-.-.-.:./ ",
"( @.@.o.o.=.#.#.=.#.O.O.#.O.#.O.O.#.O.O.O.O.O.O.O.O.@.X.o.( o.o.o.o.O.=.#.=.#.#.#.@.o.O.o.O.O.O.O./ ",
") R ) L L R L L L L R Q ) K P P L K L K K L K K K L K L Q Q L Q L L L K P L L Q L ) ! R ) L R R Q P "
};
