/* XPM */
static char *result[] = {
/* columns rows colors chars-per-pixel */
"50 50 211 2 ",
"   c #3D291C",
".  c #34241A",
"X  c #2E241F",
"o  c #132438",
"O  c #1C232D",
"+  c #242427",
"@  c #35353C",
"#  c #2B2E36",
"$  c #432D1F",
"%  c #4B382B",
"&  c #533B2C",
"*  c #593D2A",
"=  c #453A37",
"-  c #543E31",
";  c #4C443E",
":  c #574336",
">  c #62422C",
",  c #6A462E",
"<  c #664936",
"1  c #764D33",
"2  c #76533A",
"3  c #7B5439",
"4  c #71492E",
"5  c #072749",
"6  c #162C46",
"7  c #032B54",
"8  c #012F5D",
"9  c #092D53",
"0  c #09315A",
"q  c #153254",
"w  c #19334D",
"e  c #2A3A4D",
"r  c #023263",
"t  c #01366B",
"y  c #06386B",
"u  c #133A63",
"i  c #013A73",
"p  c #013E7B",
"a  c #3F495C",
"s  c #07417D",
"d  c #194878",
"f  c #294769",
"g  c #234B76",
"h  c #36516F",
"j  c #444B53",
"k  c #464F5B",
"l  c #4D4B4E",
"z  c #6D564A",
"x  c #785947",
"c  c #61534A",
"v  c #68605B",
"b  c #7D6252",
"n  c #47576B",
"m  c #58687A",
"M  c #516071",
"N  c #686669",
"B  c #6F6F70",
"V  c #666D77",
"C  c #6B727B",
"Z  c #7A7B7C",
"A  c #727174",
"S  c #726F6E",
"D  c #8B4E2D",
"F  c #864723",
"G  c #92542E",
"H  c #99572A",
"J  c #9C5A2C",
"K  c #955227",
"L  c #8D5D3C",
"P  c #855839",
"I  c #935631",
"U  c #965833",
"Y  c #9B5B32",
"T  c #925E3A",
"R  c #8E512E",
"E  c #A05D2F",
"W  c #A05E32",
"Q  c #95613D",
"!  c #9B653E",
"~  c #A96637",
"^  c #AA6738",
"/  c #AC6A3B",
"(  c #A96635",
")  c #8F6142",
"_  c #976646",
"`  c #8A6B59",
"'  c #A46B44",
"]  c #AE7145",
"[  c #AD734B",
"{  c #B57244",
"}  c #BB7646",
"|  c #BE7847",
" . c #B57549",
".. c #BA774A",
"X. c #BE7A4A",
"o. c #B7784B",
"O. c #A67758",
"+. c #B87E57",
"@. c #907E72",
"#. c #C27D4E",
"$. c #C37F50",
"%. c #BD8157",
"&. c #C5804F",
"*. c #C58151",
"=. c #C98352",
"-. c #C68558",
";. c #C98B62",
":. c #C9926B",
">. c #024284",
",. c #02468B",
"<. c #09498B",
"1. c #014E9C",
"2. c #014B95",
"3. c #07519B",
"4. c #16508A",
"5. c #225B97",
"6. c #2B5887",
"7. c #2E659F",
"8. c #0152A4",
"9. c #0156AC",
"0. c #0A58A8",
"q. c #015AB3",
"w. c #015EBB",
"e. c #0260BF",
"r. c #0862BD",
"t. c #4A688B",
"y. c #697889",
"u. c #727A84",
"i. c #7E7F81",
"p. c #0162C4",
"a. c #0965C4",
"s. c #0065CA",
"d. c #0668CB",
"f. c #0A6ACC",
"g. c #126DC9",
"h. c #1B74CF",
"j. c #1370CE",
"k. c #2A7DD2",
"l. c #2479D1",
"z. c #367EC5",
"x. c #5A86B4",
"c. c #7E91A4",
"v. c #3383D4",
"b. c #3C88D6",
"n. c #448BD4",
"m. c #4D92D8",
"M. c #5395DB",
"N. c #5A9ADC",
"B. c #5294D7",
"V. c #538ECC",
"C. c #609DDD",
"Z. c #6299D2",
"A. c #769AC1",
"S. c #66A1DE",
"D. c #6AA3DF",
"F. c #74A4D5",
"G. c #74AAE1",
"H. c #76AAE1",
"J. c #87888B",
"K. c #888B90",
"L. c #8F9092",
"P. c #939496",
"I. c #9A9B9D",
"U. c #A29994",
"Y. c #B09B8D",
"T. c #8C9CAB",
"R. c #A6A7AA",
"E. c #AFB0B2",
"W. c #B4B2B4",
"Q. c #B9BABC",
"!. c #BEAFA7",
"~. c #C4A088",
"^. c #C3B1A6",
"/. c #CCBDB5",
"(. c #BEBFC2",
"). c #83B2E4",
"_. c #8EB9E6",
"`. c #89B5E5",
"'. c #96BDE8",
"]. c #BFC0C5",
"[. c #B3C6DA",
"{. c #9FC2E9",
"}. c #A4C6EA",
"|. c #A9C9EA",
" X c #B3CCE7",
".X c #BAD2ED",
"XX c #B5D0EE",
"oX c #DBCCC4",
"OX c #C9CED4",
"+X c #D8D9DC",
"@X c #E9DDD8",
"#X c #C6DAEF",
"$X c #DDDEE1",
"%X c #C6D9F1",
"&X c #CDDEF2",
"*X c #DFE0E4",
"=X c #D3E2F4",
"-X c #DAE6F5",
";X c #DFE9F6",
":X c #E4E6EA",
">X c #E9EAEE",
",X c #E4E4E8",
"<X c #E3EBF6",
"1X c #EDEEF2",
"2X c #E6EEF8",
"3X c #EAEFF8",
"4X c #EFF2F9",
"5X c #EDF0F6",
"6X c #F2F3F6",
"7X c #F5F6FA",
"8X c #F7F8FB",
/* pixels */
"D G G G I I U U Y Y Y Y U U Y Y U U I I I I I I I U U U I G I G G U U U U I G D D D I I Y Y T U I F ",
"{ =.*.&.*.=.=.=.=.-.*.*.*.=.*.=.=.=.=.=.=.=.=.=.=.=.=.=.=.=.=.&.&.=.=.=.=.=.=.=.=.$.=.=.=.=.-.$.$.^ ",
"/ $.#.#.#.&.&.&.=.*.*.=.*.*.*.=.*.*.*.*.*.*.=.*.&.&.*.&.*.*.&.#.#.*.=.*.*.*.*.*.$.$.$.*.$.$.$.$.$.^ ",
"^ #.#.X.#.#.#.#.#.$.$.$.$.#.#.#.#.$.*.*.$.*.$.#.#.&.#.#.&.#.#.#.#.$.#.*.&.&.*.*.$.$.$.$.#.#.#.#.#.^ ",
"/ $.#.#.#.#.#.#.$.$.*.*.*.#.#.#.$.$.$.$.$.$.#.#.*.&.&.&.*.=.*.#.#.=.*.*.=.=.$.$.*.$.$.#.#.$.$.$.#.^ ",
"/ $.#.X.#.=.&.&.#.#.$.$.&.=.#.#.$.$.$.#.#.$.#.#.#.&.&.&.*.*.*.X.#.$.*.*.#.$.#.#.$.$.#.#.$.$.#.#.#.^ ",
"/ &.#.X.#.#.*.#.#.| | #.#.#.#.#.X.X.X.X.#.#.#.#.#.#.#.#.&.#.$.X.X.#.X.#.#.#.#.X.X.#.#.#.#.#.#.#.#.^ ",
"/ #.X...X.#.X.#.#.X.X.X.X.#.#.#.X.X.| ..#.X.| X.X.X.X.X.X.X.X.....X.| | | #.#.X.| | X.| ..#...#.#.( ",
"/ #.#.X.*.*.*.*.*.*.*.*.$.$.$.$.&.#.#.#.#.#.#.#.#.#.#.#.&.#.#.#.X.#.X.X.#.$.$.$.#.#.#.X.#.#.#.$.#.^ ",
"/ #.$.#.#.$.*.*.*.*.#.*.$.$.$.$.#.#.#.&.#.#.#.#.X.o.o.} X... . . .{  .....X.$.$.*.&.$.#.X.$.=.*.#.^ ",
"/ #.#.#.#.#.*.*.*.$.#.#.' x N k X + . . .     $ $ % : : & & & : - = % % & * > , 1 ) [ #.X.#.$.*.#.^ ",
"/ &.#.$.#.$.$.*.$.$.X.L $ O q p 2.<.>.>.t.P.L.J.L.I.R.R.I.P.P.I.y.d y t r r 0 9 q e < ' #.#.$.=.#.^ ",
"/ *.*.*.$.#.#.#.#...4 X 9 >.7 t e.p.p.p.F.:X<X>X>X1X6X6X1X>X6X6XXXn.w.p.r.w.w.9.8.p O 3 X.$.*.*.#.^ ",
"/ *.&.&.*.*.$.#...> 6 ,.q.q.8 r q.s.s.s.M.&X7X7X8X7X7X7X7X7X7X7X<XN.s.d.f.d.s.s.s.8.5 4 | #.$.$.#./ ",
"/ #.#.#.#.*.*.+.1 q 1.p.d.a.y r q.s.s.s.k.|.8X7X7X7X7X7X7X8X7X7X7XG.f.d.d.s.s.s.s.p.r : ] #.#.$.#.( ",
"/ #.X.X.X.X.X.b g 8.p.s.s.d.<.0 1.s.s.s.f.'.7X7X6X6X7X7X8X7X7X7X7X`.h.s.s.s.s.s.s.s.,.@ T | #.X.#.( ",
"/ #.#.X.] O.A 5.w.p.s.s.s.s.8.r <.s.s.s.s.H.5X7X6X7X7X7X7X7X8X7X8X{.v.s.s.s.s.s.s.s.9.6 3 #.#.#.#.( ",
"/ $.$.| x U.K.d q.s.s.s.s.s.e.r s d.s.s.s.S.-X7X7X6X7X7X7X7X8X8X8X.Xb.s.s.s.s.s.s.s.p.t :  .#.$.#.( ",
"/ $.#.| P R.P.f 8.s.s.s.s.s.s.8 y a.d.s.s.S.=X7X7X6X7X7X7X7X8X8X8X=Xm.s.s.s.s.s.s.s.s.>.@ ~ $.$.#.( ",
"/ $.#.} ` W.Q.h 8.s.s.s.s.s.s.r t q.d.d.s.m.%X6X7X7X7X7X8X8X8X8X8X;XN.d.s.s.s.s.s.s.s.8.6 P #.#.#.^ ",
"/ $.$.| ` (.OXt.1.s.s.s.s.s.s.i r 9.s.d.d.b..X7X7X6X7X7X7X7X8X7X7X4XG.f.s.s.s.s.s.s.s.p.7 < ..#.#.^ ",
"/ =.$.X.x W.+XM 1.p.s.s.s.s.s.1.,.w.s.p.a.k. X7X7X7X7X7X8X7X8X7X7X4X'.l.s.s.s.s.s.p.s.s.p = ' $.#.^ ",
"/ $.$.| x E.$XM ,.p.s.s.s.s.e.8.9.e.p 7 7 q n Z Z S S B V N N A Z i.t.d p >.p t t t i p 2.k ' $.#./ ",
"/ #.X.| ) !.:XV <.p.s.s.p.1.7 6 3.p.8.2.2.5.c.R.R.I.y.y.u.m u.J.i.@.A g i i t r 8 8 r t 2.f _ +.#.( ",
"/ X.#.X.! !.>Xc.4.p.s.q.t e C K.7.e.s.p.s.n..X1X:X:XF.n.V.Z.[.*X,X$X[.z.w.w.w.w.w.w.p.p.9.5 P #.#.( ",
"/ $.#.*.{ !.*X@.4.9.p w y.(.*XP.g 9.s.s.s.B.&X7X6X6X`.l.k.Z.%X7X7X7X.Xv.s.s.s.s.s.s.s.s.3.o L #.#.( ",
"/ *.*.*.X.^.>XR.6.5 k R.$X6X8XJ.d q.s.s.s.N.=X6X6X6X'.m.N.`.-X8X7X7X.Xv.s.s.s.s.s.s.s.s.>.+ L $.#.^ ",
"/ *.*.*.*./.1X;Xy.N OX>X7X8X7XZ d w.s.s.s.D.-X6X6X7X=X%X|._.=X7X7X7X.Xk.s.s.s.s.s.s.s.s.t = ] *.#.( ",
"/ *.*.#.*.-.;.:.oX:X6X7X8X8X6XN <.e.s.s.f.).;X7X7X;X}.`.S.D.=X8X7X7X}.l.s.s.s.s.s.s.s.s.7 2 #.$.$.^ ",
"/ *.&.&.*.&.*.*.;.oX6X8X8X7X6Xk ,.p.s.d.d._.2X8X8X;X{.H.H.|.2X8X7X7XG.j.s.s.s.s.s.s.s.s.5 L $.$.#.^ ",
"/ *.&.&.*.*.*.*.&.O.~.@X6X8X6Xj >.s.d.d.s.'.4X8X7X.XS.M.N..X4X7X7X2XM.d.s.s.s.s.s.s.s.p.o ) $.#.#./ ",
"/ #.#.#.#.#.#.#.#...[ @.+X7X7Xj <.a.d.d.s.{.3X6X6X&XG.M.N.%X4X8X7X2Xn.d.s.s.s.s.s.s.s.q.# ! #.#.#.( ",
"/ X.X.X.X.X.X.X.X.X.X.L P.,X6Xj <.a.s.s.s.|.1X6X6X Xm.v.S.=X7X7X7X-Xb.d.s.s.s.s.s.s.s.1.@ ~ ..X.#.( ",
"/ &.&.X.#.#.*.*.*.*.$.X.O./.,Xj 1.p.s.s.s.XX6X6X6X&XB.l._.2X7X7X7XXXk.s.s.s.s.s.s.s.s.>.= ' $.$.#.( ",
"/ &.#.X.#.&.#.#.*.$.&.#.+.%.Y.# 1.s.s.s.f.#X6X6X6X}.v.j.D.<X8X8X7X`.h.s.s.s.s.s.s.s.s.r <  .#.$.#./ ",
"/ &.&.X.#.$.$.#.$.#.#.*.X.$.*.` t.<.,.,.5.T.R.R.E.T.x.x.A.OX+X$X,XZ.g.w.w.w.w.e.q.8.0.w _ X.$.X.#.^ ",
"/ *.&...#.&.#.#.#.#.#.#.&.*.#.+.O.` b z z z c : ; ; l l c v v N S h u u u u r 8 7 5 k z  .+.#.#.#./ ",
"/ &.&.X.#.&.&.#.#.#.#.#.&.&.#.#.X.X.|  .{ ] ' _ T T T T Q T P 3 P 3 2 3 1 2 1 , > , T X.$.*.&.*.$.^ ",
"/ *.*.X.#.#.&.&.#.#.#.#.&.&.&.#.#.#.#.#.*.*.*.*.$.$.$.$.#.#.*.X.#.#.#.#.$.#.$.$.#.#.#.#.&.&.&.*.#.^ ",
"/ *.#.X.#.&.&.#.#.#.#.#.#.#.#.#.#.#.#.#.&.#.&.#.$.#.#.$.#.#.#.X.#.#.#.#.#.#.#.#.#.#.#.#.#.#.#.#.#.( ",
"/ #.X.X.| | X.X.X.X.X.X.X.X.X.X.X.X.X.X.X.X.X.X.X.X.#.X.X.X.X...X.X.X.X.| #.#.#.#.| X.X.X.X.#.X.X.( ",
"/ X.#.X.#.| #.#.#.#.#.$.#.#.#.#.X.X.X.X.X.$.$.$.#.#.X.#.#.X.X.X.#.#.#.#.#.#.#.#.| #.X.X.X.#.| #.#.( ",
"/ &.*.*.$.$.#.#.&.*.*.*.*.*.*.*.$.$.X.#.*.*.*.*.#.#.&.#.#.$.*.*.*.*.=.*.#.#.#.#.#.$.$.#.#.$.#.$.#.^ ",
"/ &.*.$.*.$.*.#.&.*.*.*.*.&.*.*.*.$.$.X.*.*.*.*.*.=.*.*.*.#.*.*.*.*.*.*.*.#.$.#.$.$.$.#.| #.$.$.&./ ",
"/ #.$.#.#.$.*.$.*.*.*.$.&.&.&.*.#.$.#.| #.*.=.#.#.&.*.*.&.#.&.#.#.#.$.#.#.*.#.#.$.*.#.X...#.$.$.&.^ ",
"/ *.$.#.#.&.$.$.$.*.#.#.&.&.*.*.*.$.#.| #.*.*.*.&.*.=.#.*.*.*.*.#.#.#.$.#.&.&.*.*.*.*.#.| $.$.#.&.^ ",
"/ &.#.#.#.#.$.#.#.#.#.$.#.*.&.*.*.*.X.X.*.*.=.#.&.#.&.&.&.*.*.#.#.#.#.X.#.*.*.*.*.*.*.#.#.#.$.$.&.( ",
"/ &.#.*.#.$.*.&.#.#.X.#.#.#.#.#.#.#.#.#.#.&.#.#.#.#.#.#.#.#.#.#.#.#.#.#.#.#.*.*.*.*.#.#.#.$.*.$.&.^ ",
"/ | } } | #.X.X.#.X.| X.X.| | | | | } } | | | } } } } { } { } } } } X.#.| #.X.X.X...} | } | | | | ^ ",
"Y ( ( Y J Y J J J J J W W H H H J J H H J J J H H J J J J J E J J J J H H J J J J ( W Y ( J Y Y J H "
};
