/* XPM */
static char *result[] = {
/* columns rows colors chars-per-pixel */
"50 50 211 2 ",
"   c #020B14",
".  c #19181A",
"X  c #080B0F",
"o  c #241C18",
"O  c #37261B",
"+  c #2C221D",
"@  c #041527",
"#  c #121E2E",
"$  c #021B36",
"%  c #0F2032",
"&  c #1E2026",
"*  c #292829",
"=  c #3A2E26",
"-  c #3D322D",
";  c #252C37",
":  c #343536",
">  c #483427",
",  c #5C3F2B",
"<  c #503B2F",
"1  c #45352D",
"2  c #603E27",
"3  c #5B4436",
"4  c #68442C",
"5  c #724A2E",
"6  c #684A36",
"7  c #744D32",
"8  c #7B543A",
"9  c #042341",
"0  c #05274A",
"q  c #172C45",
"w  c #0B2F55",
"e  c #022D5A",
"r  c #042A53",
"t  c #193553",
"y  c #143251",
"u  c #223042",
"i  c #203A59",
"p  c #053364",
"a  c #06386A",
"s  c #0D3A69",
"d  c #02366B",
"f  c #013A73",
"g  c #023E7B",
"h  c #093C71",
"j  c #443E40",
"k  c #384552",
"l  c #0A4279",
"z  c #164574",
"x  c #294B6F",
"c  c #315279",
"v  c #2E4E71",
"b  c #584C45",
"n  c #585759",
"m  c #4E4E51",
"M  c #6B5A55",
"N  c #7C685A",
"B  c #49586B",
"V  c #585C60",
"C  c #536477",
"Z  c #68686A",
"A  c #656D77",
"S  c #78787A",
"D  c #706D6D",
"F  c #8B4E2D",
"G  c #864723",
"H  c #92542E",
"J  c #99572A",
"K  c #9C5A2C",
"L  c #955227",
"P  c #875838",
"I  c #935631",
"U  c #965833",
"Y  c #9B5B32",
"T  c #925F3C",
"R  c #8E512E",
"E  c #A05D2F",
"W  c #A05E32",
"Q  c #93613F",
"!  c #A96637",
"~  c #AA6738",
"^  c #AC6A3B",
"/  c #A96635",
"(  c #805C46",
")  c #9A6541",
"_  c #9A6743",
"`  c #8A654F",
"'  c #A36B44",
"]  c #A96E45",
"[  c #A16D4A",
"{  c #AE7146",
"}  c #AC7249",
"|  c #B37244",
" . c #BB7646",
".. c #BE7847",
"X. c #B3754A",
"o. c #BA7749",
"O. c #BE7A4A",
"+. c #B7784D",
"@. c #BA7C52",
"#. c #AF7B58",
"$. c #89736B",
"%. c #8C6F62",
"&. c #C37D4E",
"*. c #C37F50",
"=. c #B59179",
"-. c #AC886F",
";. c #C5804F",
":. c #C58151",
">. c #C98352",
",. c #CB9C7B",
"<. c #C58C67",
"1. c #024283",
"2. c #02468B",
"3. c #084788",
"4. c #034B94",
"5. c #024E9B",
"6. c #0D539C",
"7. c #144C89",
"8. c #325881",
"9. c #3A628B",
"0. c #0152A4",
"q. c #0156AB",
"w. c #0858A9",
"e. c #025AB2",
"r. c #015DBB",
"t. c #0A5EB4",
"y. c #0461BE",
"u. c #0861BB",
"i. c #4E6985",
"p. c #787C82",
"a. c #637283",
"s. c #4672A0",
"d. c #0162C4",
"f. c #0065CA",
"g. c #0768CB",
"h. c #0A6ACB",
"j. c #0C67C3",
"k. c #126ECB",
"l. c #1973CF",
"z. c #1970C7",
"x. c #1E76D0",
"c. c #2379D1",
"v. c #2B7DD2",
"b. c #2D78C5",
"n. c #5D89B8",
"m. c #7292B4",
"M. c #3583D4",
"N. c #3D83CD",
"B. c #438CD7",
"V. c #4E92D9",
"C. c #5697DB",
"Z. c #5A9ADB",
"A. c #5293D7",
"S. c #5490CD",
"D. c #629EDE",
"F. c #6C97C5",
"G. c #6AA3DE",
"H. c #65A1DE",
"J. c #6EA5E0",
"K. c #76ABE1",
"L. c #888789",
"P. c #8E9399",
"I. c #989799",
"U. c #929294",
"Y. c #BD9A83",
"T. c #B6A499",
"R. c #9198A1",
"E. c #93A4B6",
"W. c #A6A6A9",
"Q. c #A9A9AB",
"!. c #AEAFB1",
"~. c #B8B8B9",
"^. c #C5BEBC",
"/. c #D2AB91",
"(. c #DBC2B4",
"). c #ABBBCD",
"_. c #83B2E4",
"`. c #8BB6E4",
"'. c #8EB8E6",
"]. c #93BBE7",
"[. c #98BFE8",
"{. c #BFC0C3",
"}. c #9BC0E8",
"|. c #ACCAEB",
" X c #A3C4E8",
".X c #B4CEEC",
"XX c #BDD4EF",
"oX c #B8D0EA",
"OX c #BFD6F0",
"+X c #C7C8CA",
"@X c #CBCDD1",
"#X c #CFD0D2",
"$X c #DADBDE",
"%X c #D2D3D8",
"&X c #CDD9E6",
"*X c #DCDDE1",
"=X c #C6DAF1",
"-X c #DFE0E4",
";X c #D4E2F3",
":X c #DAE6F5",
">X c #E1E1E3",
",X c #E9EAED",
"<X c #E5E5E9",
"1X c #E4EBF5",
"2X c #ECEDF1",
"3X c #E8EFF8",
"4X c #EDF2F9",
"5X c #EDF0F5",
"6X c #F3F4F7",
"7X c #F5F6FA",
"8X c #F7F8FB",
/* pixels */
"F H H R H I U U Y Y U U U U U Y U U U I I I I I I I I U I J I H H U U U U I H F F F I I U U U U I G ",
"| >.>.;.>.>.>.>.:.:.>.>.>.>.:.>.:.>.>.>.>.>.>.>.>.:.>.>.>.>.>.&.;.>.>.>.>.>.>.>.>.*.>.>.>.>.>.>.*.^ ",
"^ *.&.&.&.;.;.;.>.>.>.:.>.:.>.>.>.:.:.:.>.>.*.>.:.:.:.:.:.:.:.&.&.:.:.:.:.:.:.:.*.*.*.>.*.>.*.*.*.~ ",
"~ &.&.O.&.&.&.&.&.*.*.:.*.&.O.*.O.*.:.>.*.:.*.*.&.&.&.;.&.*.&.&.&.*.;.:.;.;.:.:.*.*.*.*.&.&.&.&.&.~ ",
"^ *.&.&.&.;.;.&.&.:.:.:.:.:.;.;.*.*.*.*.*.*.*.*.:.:.:.:.:.>.:.*.&.:.:.>.>.&.&.&.*.*.&.&.&.*.*.*.*.~ ",
"^ *.&.O.&.;.;.*.&.&.&.:.&.X.#.;.>.@.o.| X.| _ ] } &.;.:.:.>.:.O.&.;.:.;.&.>.&.&.*.*.&.&.&.*.*.*.&.~ ",
"^ &.&.O.&.&.:.&.&...O.&._ 6 -.$.` M > # ; o * o b %.@.;.&.&.O.O.O.&.O.&.&.&.&.&.o.&.&.&.&.&.&.&.&.~ ",
"^ &.O.o.O.&.O.&.&.O.O.+.b ~.W.8.w.5.2.5.5.5.3.a w v < } O.O.O.O. .O...O.O.&.O.&.&.o.o... .&.&. .&./ ",
"^ &.&.&.:.:.:.:.:.:.:.N W.@Xm l r.f.f.f.f.f.t.g @ q.p . T *.&.&.&.O.&.o.&.&.&.&.&.&.&.O.&.&.*.*.&.~ ",
"^ *.&.&.&.*.:.:.:.:.` L.3XW.z 5.f.f.f.f.f.f.t.$ f r.r.f   4 *.*.;.&.&.&.&.&.:.:.;.;.&.&.O.*.>.:.&.~ ",
"^ &.&.&.&.&.:.:.;.) b <X@Xa.g f.f.f.f.f.f.f.h e 0.f.f.r.4.# > O.&.;.&.&.&.*.:.*.:.;.&.&.O.&.>.&.*.~ ",
"^ ;.&.&.&.*.*.:.O.M (.>XR.e r.f.f.f.f.f.g.e.s g d.f.f.f.u.).n o ) &.;.&.&.*.:.>.>.;.&.&.&.&.*.:.&.~ ",
"^ :.:.:.*.&.&.&.' T.>X@Xu 5.f.f.f.f.f.f.f.0.9 5.f.f.f.f.K.1X%XS X 7 X.&.:.;.:.:.:.:.:.&.&.&.*.*.*.~ ",
"^ :.:.*.:.;.*.@.=.%X6XA l y.f.f.f.f.f.f.f.0 a g.f.f.f.c.[.7X7X$XQ.: 3 X.&.:.*.:.*.:.*.&.&.&.&.>.*.~ ",
"^ &.;.&.&.:.:.<.+X2XI.v e.f.f.f.f.f.f.f.g 9 e.g.f.f.f.v.1X7X7X7X,X>XD 1 _ &.&.;.&.&.&.&.o.&.*.*.&./ ",
"^ O.O.O.O.O.O.,.,X$Xa.6.r.f.d.f.f.f.f.q.9 1.r.g.f.f.f.[.6X7X7X7X8X7X5XP.o 8 { O.O.O.O.......&.o.&./ ",
"^ &.&.o.&.&.&.&.,.>XC w z a 6.2.5.q.r.4.1.0.f.g.f.f.C.;X7X6X7X7X7X8X7X,XQ.: 4 ' +.o.&.o.&.&.&.&.&./ ",
"^ ;.&...&.*.&.&.*.^.P.p.S p.A B k % s 0.e.f.f.g.f.v.|.4X7X6X6X6X7X8X8X7X2X*XZ - ) X.&.*.&.&.&.*.&./ ",
"^ :.&.&.&.&.&.&.&./.7X,X5X2X<X4X).P.c d.d.4.d.j.k.G.;X6X7X6X7X7X8X7X7X8X8X4X&Xc . 8 +.*.*.&.*.*.&.~ ",
"^ &.&...&.>.>.*.&.,.2X7X8X8X7X7X+XA 6.d.e.0 e k.v.|.6X7X7X7X7X7X7X7X8X7X8X7X.Xc.1.@ , +.*.&.&.&.&.! ",
"^ >.*.o.&.&.;.&.*.#.(.7X8X7X8X*Xn z 0.f.d.d.d 9 n.6X6X7X6X7X7X7X8X7X8X8X8X3XK.f.d.0.$ = { *.&.&.&.~ ",
"^ >.&.o.&.&.&.:.*.' T.6X8X8X7XV z 6.f.f.f.f.z.9.: !.7X6X7X7X7X7X7X8X7X7X8X=Xh.f.f.d.t.w o T &.&.&.~ ",
"^ &.&.&.&.&.*.*.>.) I.6X8X7XA w q.d.g.f.f.k.J.oX).M L.6X7X7X7X7X8X8X7X8X3XZ.k.h.h.g.g.q.a . P &.&.~ ",
"^ &.&.o.&.&.&.&.&.] I.2X8XI.$ e.d.f.f.f.f.D.XX6X,X#XD n %X7X7X7X8X8X8X8X|.M.f.f.f.f.f.f.q.1.j [ &.! ",
"^ &.&...&.&.O.&.&.{ T.2X@X  4.y.f.f.g.f.C..X6X7X7X2X).C * W.4X7X7X7X8X:XK.f.f.f.f.f.f.f.f.2.# P &./ ",
"^ &.;.&.&.&.&.&.&.+.=.-Xk l u.h.h.h.g.V.XX7X6X7X6X;XM.F.P.; S 7X7X7X6X=Xl.f.f.f.f.f.f.f.d.g o T &./ ",
"^ ;.:.:.:.&.&.&.&.&.-.m p u.f.f.f.f.c.=X1X8X7X4X4X'.M.c.F.m.m m $X7X6XZ.g.f.f.f.f.f.f.f.d.r , &.&.! ",
"^ ;.:.:.:.*.&.&.*.&.@.M u.f.f.f.f.f.|.1X7X8X8X1X1X_.B.M.C.}.%XS ; ~.|.v.f.f.f.f.f.f.f.f.5.q ' &.&.! ",
"^ :.:.&.:.&.&.:.;.;.;.$.7.e.f.f.f._.1X6X6X7X1X X[.4X].`..X4X7X%XU.: i.h.f.f.f.f.f.f.f.d.1.- ' :.:.~ ",
"^ :.;.;.:.;.:.:.;.;.;.O.M h 0.h.J.4X6X6X6X;X X}.J.C.'.}.7X8X7X7X%XE.w e r.f.f.f.f.f.f.d.0 4 :.;.&.~ ",
"^ :.;.;.:.:.:.:.;.;.&.&.+.N v s.6X6X6X6X1X;XZ.B.'.K.J.:X7X8X8X7X.XB.e.f r 5.f.f.f.f.f.4.u ' *.&.&.~ ",
"^ &.&.&.&.&.&.&.&.&.&.&.&.^ P N I.$X6X7X.XC.D.V.v.;X:X7X8X7X7X=XD.f.f.e.1.@ f f.f.f.d.l > ^ &.&.&.~ ",
"^ O.&...O.O.O.O.O.O.&.O.O.O.| 5 b U.+X|.'.v.c.J.oX1X8X8X7X8X;X_.g.f.f.f.e.5.$ 0 d.f.d.9 5 &.o.&.&./ ",
"^ ;.&.O.&.;.:.:.:.>.:.&.&.&.&.&.5 1 S m.h.l.K..X7X7X8X8X7X;XJ.x.f.f.f.f.f.d.e.e $ 0.5.; ] *.&.&.&.~ ",
"^ ;.;.O.&.&.&.&.*.*.&.;.;.;.&.;.&.P o Z n.B.|.8X8X8X8X4X:XA.l.f.f.f.f.f.f.f.f.r.g e 3., ] &.&.&.&.^ ",
"^ ;.&.O.&.*.*.&.*.&.:.&.;.:.&.&.&.&.) > n E.%X6X8X8X8X:XH.h.f.f.f.f.f.f.f.f.g.f.r.q.B ` *.&.&.&.&.~ ",
"^ :.:.O.&.&.&.&.&.&.&.&.;.:.&.&.*.&.*.&.7 3 !.>X8X7XXXK.h.f.f.f.f.f.f.f.f.f.f.f.5.w > *.&.&.&.&.&.~ ",
"^ ;.&.O.&.;.;.&.&.&.&.&.&.;.&.&.&.O.&.&.:.P + U.*X|.C.d.f.f.f.f.f.f.f.f.f.f.f.2.w O o.*.*.*.*.*.:.! ",
"^ :.:.O.&.&.;.;.&.&.&.&.&.:.;.&.:.&.;.;.:.:.) = A b.k.g.f.f.f.f.f.f.f.f.f.f.4.9 O ) &.*.&.*.*.*.&.~ ",
"^ :.;.O.&.;.;.&.&.&.&.&.&.&.&.&.O.&.O.O.;.:.;.+.< y w.r.f.f.f.f.f.f.f.f.f.q.@ 8 ' &.&.&.&.*.*.*.&.! ",
"^ O.O.O...&...&.O.O.O.O.O.O.O.O.O.o.O.O.&.O.O.O.O.6 * 3.e.f.f.f.f.f.f.d.r.# 7 &.&...o.O.O.&.&.....! ",
"^ &.O.&.&.o.&.&.&.&.&.@.&.&.&.&.&.O.o.O.&.&.&.&.;.O.T * s e.d.f.f.f.f.0.t , &.&.o.&.&.O.o.&...&.&.! ",
"^ ;.:.:.&.&.&.*.:.:.>.:.:.;.;.:.*.*.&.&.*.:.>.:.:.:.;.} > 9 4.e.f.f.2.i 2 &.&.&.&.*.*.&.&.&.&.&.&.^ ",
"^ ;.:.*.*.&.*.&.:.:.:.:.:.:.:.:.*.&.&.&.&.:.:.:.:.:.:.:.;.4   p 6.1.q 4 | &.*.&.&.*.>.&.o.&.*.*.:.~ ",
"^ &.&.&.&.:.:.*.:.:.:.*.;.;.;.:.&.*.&.o.&.:.;.;.;.:.:.:.;.&.P > n - _ ] &.:.&.&.&.*.&.O.o.&.&.*.;.~ ",
"^ :.*.&.&.&.*.*.*.:.&.&.;.;.:.:.:.*.&.o.&.:.:.;.;.;.:.&.;.:.:.+.o.} &.*.&.;.:.;.:.:.:.&.&.&.&.&.;.~ ",
"^ >.;.&.&.&.*.&.&.&.&.&.&.:.:.:.:.:.&.O.:.:.:.;.;.;.;.;.;.;.;.;.&.&.&.&.*.;.:.:.>.>.*.&.&.*.*.*.:.! ",
"^ &.;.*.&.*.:.;.&.&.O.&.&.&.&.&.&.&.O.&.&.;.&.&.&.&.&.&.&.&.&.&.&.&.&.&.&.*.*.:.*.*.&.&.&.*.>.*.:.~ ",
"^ ......o.O.O.O.&.....&.......&. ..... . ......... . . .| ^  . . . .o.&.&.&.&...O.o..... . .......! ",
"/ Y W K E W Y K K K Y E Y J J J K J J K K J K J J K J K E E E E K K K J L J K K E W W W Y E K / K L "
};
