/* XPM */
static char *a360646922114715d54500046e86b2d4CsXi1613gVZF4psV[] = {
/* columns rows colors chars-per-pixel */
"50 50 186 2 ",
"   c #000001",
".  c #040509",
"X  c #060A11",
"o  c #080D17",
"O  c #0C121C",
"+  c #0D1017",
"@  c #131314",
"#  c #17191C",
"$  c #0E1625",
"%  c #0F1A2A",
"&  c #0E1827",
"*  c #101B2D",
"=  c #191D24",
"-  c #121F33",
";  c #142136",
":  c #16243C",
">  c #1B273B",
",  c #252629",
"<  c #343435",
"1  c #212835",
"2  c #182740",
"3  c #192943",
"4  c #1B2E4C",
"5  c #1D304F",
"6  c #1E3253",
"7  c #242F42",
"8  c #2A3547",
"9  c #3A3D43",
"0  c #213656",
"q  c #203759",
"w  c #23395C",
"e  c #283B58",
"r  c #343F51",
"t  c #253D64",
"y  c #3C434D",
"u  c #3E4653",
"i  c #364358",
"p  c #374357",
"a  c #27416A",
"s  c #2C4469",
"d  c #3A4B68",
"f  c #2A4672",
"g  c #2D4B7C",
"h  c #2B4876",
"j  c #324B73",
"k  c #3F5373",
"l  c #454647",
"z  c #494A4B",
"x  c #424549",
"c  c #464A53",
"v  c #4A525E",
"b  c #565759",
"n  c #5B5B5D",
"m  c #555557",
"M  c #445064",
"N  c #4B586E",
"B  c #5B5D62",
"V  c #575A60",
"C  c #5D6778",
"Z  c #6B6B6C",
"A  c #636568",
"S  c #737374",
"D  c #767679",
"F  c #77787A",
"G  c #7B7C7D",
"H  c #8B4E2D",
"J  c #864723",
"K  c #8E512E",
"L  c #92542E",
"P  c #99572A",
"I  c #9C5A2C",
"U  c #955227",
"Y  c #935631",
"T  c #965833",
"R  c #9B5B32",
"E  c #A05D2F",
"W  c #A05E32",
"Q  c #A96637",
"!  c #AD6837",
"~  c #AA6738",
"^  c #AC6A3B",
"/  c #A26132",
"(  c #B67142",
")  c #BB7646",
"_  c #BE7847",
"`  c #BE7A4A",
"'  c #BC7748",
"]  c #BF7F50",
"[  c #C37D4E",
"{  c #C47F50",
"}  c #BF8055",
"|  c #C5804F",
" . c #C58151",
".. c #C98352",
"X. c #C4865B",
"o. c #C6885E",
"O. c #C98A5F",
"+. c #C68C64",
"@. c #C98D64",
"#. c #C68F69",
"$. c #CA926B",
"%. c #C5916C",
"&. c #CB9671",
"*. c #CE9E7C",
"=. c #C59470",
"-. c #D19F7C",
";. c #D19B76",
":. c #CEA07F",
">. c #D1A17F",
",. c #2E4E80",
"<. c #2F5083",
"1. c #315286",
"2. c #32548A",
"3. c #355A94",
"4. c #375D99",
"5. c #385F9B",
"6. c #39619E",
"7. c #3B64A3",
"8. c #3D67A9",
"9. c #3E6AAD",
"0. c #3F6BB0",
"q. c #7B7E83",
"w. c #406DB3",
"e. c #858586",
"r. c #8A8B8C",
"t. c #8E8F92",
"y. c #949596",
"u. c #969798",
"i. c #97989A",
"p. c #9B9B9B",
"a. c #9FA0A1",
"s. c #A3A3A4",
"d. c #A6A7A9",
"f. c #ACACAD",
"g. c #AEAFB0",
"h. c #B3B3B4",
"j. c #B7B7B8",
"k. c #BCBCBD",
"l. c #B7B8B8",
"z. c #CEA385",
"x. c #CCA58A",
"c. c #D5AA8C",
"v. c #D0A78A",
"b. c #D4AE94",
"n. c #D4B29A",
"m. c #D9B399",
"M. c #DBBBA6",
"N. c #DCBEA9",
"B. c #DCC1AE",
"V. c #DFC5B3",
"C. c #E3CCBC",
"Z. c #E2C5B1",
"A. c #BFC0C0",
"S. c #C3C3C4",
"D. c #CBCCCC",
"F. c #C7C7C8",
"G. c #CFD0CF",
"H. c #CECFD0",
"J. c #D3D3D4",
"K. c #DBDBDB",
"L. c #D8D6D6",
"P. c #E3CEC1",
"I. c #E4D2C6",
"U. c #EAD5C6",
"Y. c #E5D6CA",
"T. c #E9D7CA",
"R. c #E7D9CF",
"E. c #E6DBD2",
"W. c #ECDED5",
"Q. c #ECE3DC",
"!. c #E2E0DD",
"~. c #F2E5DC",
"^. c #E4E4E4",
"/. c #ECE6E2",
"(. c #ECECEC",
"). c #E7E7E8",
"_. c #F2EAE4",
"`. c #F3EDE9",
"'. c #F4F1EE",
"]. c #F5F4F4",
"[. c #FBFBFB",
"{. c white",
"}. c #FEFEFE",
"|. c #FDFCFC",
" X c #FEFEFE",
".X c #F9F6F3",
/* pixels */
"H L L K Y Y Y T R R R R T R R R T T L Y Y Y Y Y Y Y T T T L Y L Y T T T T Y L H H H K Y T T T T Y J ",
"( ....| ........X. . ... ... . .X...............| ....| ......[ [ ..| ..X.........{ ..X.....X...{ ! ",
"^ { [ [ [ | | |  . . . ..... . . ....... . .........[  . ...| [ | ..|  ...| |  . .{ { ..{ ..{ [ { ! ",
"^ [ ` ` [ [ [ [ [ { { { ` { [ [ [ [ {  .{  .{ [ | [ | [ [  .| ` ` |  . .[ | | ..{ { { [ [ [ [ [ [ ! ",
"^ { [ [ [ | | { { .. ...{ .. . .{ { &.c.M.M.v.+. ...| .... .#.@.[ .. . .....{ ..{ { [ [ [ { { { [ ~ ",
"^ { { ` [ | | | { [ [ {  .{  . .+.V.].D.h.h.S.`.N. .[  .z.V././.C.:. . .{ [ [ [ [ [ [ [ [ [ { { [ ! ",
"^ [ [ ` [ { { [ [ ` [ ` ` [ [  .W.^.b p.K.K.h.b D.R.*.Q.(.s.n b s.).U.o.` [ ` [ [ ' [ [ [ [ [ [ [ ! ",
"^ ` ` ` ` ` ` [ ` ` ` ` ` ` ` B.F.S ].{.{.{.{.[.r.S.[.f.D J.[.{.L.q.d.Q.} ` ` ` ' [ ' [ ' [ ' [ [ Q ",
"^ [ [ ` {  . . . . . .} [ [ $.'.S ].{.{.{.{.{.{.{.Z g.y.{.|.{.{.{.{.r.d.V.[ [ [ [ [ [ [ ` [ { [ [ Q ",
"^  .[ [ [ .. . .{  .| | ..| b.S.j.{.{.{.{.{.{.{.{.f.z [.S = m ].{.{.[.D {.$.| ....| { ` `  . ...[ ~ ",
"^ [ [ [ [ [ {  . .[ [ [ ....Z.s.K.{.{.{.{.S.s.).{.].f.g.      e.{.{.{.a.J.c... .{ | [ ` ` [ { | { Q ",
"^ | | { [ { { { { [ [ o.U.U.C.u.^.{.{.{.u.    , ].{.].y.      S {.{.{.K.i.M. .| .. ...` ` ..{ ..[ ! ",
"^ .. . .] [ [ [ [ ` @.W.j.A K.s.D.{.{.{.<       f.H.L.].z @ < ).{.{.{.H.y.M. ...{  . .` ` |  . .[ ! ",
"^ { |  .{  .{ { o.N._.(.c 3.s p q.{.{.{.S     # K.q.t.{.[.K.].{.{.{.{.a.g.P.x.c.;.{  .[ [ [  .| { ! ",
"^ | [ [ [ ..{ &.Q.!.V s a 2.w.w.f g.{.{.].i.Z D.L.j M [.{.{.{.{.{.{.[.z j.[.[.[.{.N. .` ` [ { [ [ ! ",
"^ ` ` ` ` #.N.Q.[.1 2.0.w.w.w.w.w.j i.(.{.[.[.i.k 0.4.q.[.{.{.{.{.[.q.<.j N C N u ].=.` ' ` ` ` [ / ",
"^ ` ` ` } (.H.K.D.@ 6 0.w.w.w.w.w.w.7.e i p e 6.w.w.w.6.c k.[.[.k.M 3.w.w.w.w.w.1 [.U.` ` [ [ [ [ Q ",
"^  . .` &.^.7 t h 8.w.w.w.w.w.w.w.w.w.w.w.w.w.w.w.w.w.w.9.2.t t 2.9.w.w.w.w.w.w.f p A.N.| [ [ { [ Q ",
"^  . .` } ].9 3.0.w.w.w.w.w.w.w.w.w.w.w.w.w.w.w.w.w.w.w.w.w.0.0.w.w.w.w.w.w.w.w.w.8.M `.+.[  . .[ ! ",
"^ ..` ' *.[.b 1.w.w.w.w.w.w.w.w.w.w.w.w.w.w.w.w.w.w.w.w.w.w.w.w.w.w.w.w.w.w.w.w.w.6.O L.$.[ [ [ [ ~ ",
"^  .{ ` C.d.j 9.; 9.0.0.w.w.w.0.w.w.w.w.w.w.w.w.0.0.w.w.w.w.w.w.w.w.w.w.w.w.w.w.w.w.q J.Y.#.[ [ [ ~ ",
"^  .{ ' ~.C 9.1.6 t w.0.w.w.0.4.w.w.w.w.w.w.9.4.w.7.4.0.w.w.w.w.w.w.w.w.w.w.w.w.w.w.7.u j.Q.[ { [ ! ",
"^  .[ } [.d w.w.0.g : a f q o 4 7.a t w.8.g % 2.f X X ,.0.t 8.0.0.w.w.w.w.w.0.0.4.2.8.w V `.[ [ [ ^ ",
"^ ` ` #.(.4 5.w.0.0.3.O       X X   & 3 $   . o         % - & <.0.9.2.0.w.w.0.9.0 6 0.: f.B.` ` ` ~ ",
"^ ` ` %.).. g 0.w.w.w.,.                                        * w o & 4 5 4 $ t 8.w.f j.v.[ [ ` Q ",
"^  .[  .'.V 4.0.w.w.w.w.;                                                 . g 8.w.w.9.<.u.v.[ [ [ Q ",
"^  . . .P.r.<.0.w.w.w.w.a                                                 3 0.w.w.w.8.* S $.[ ..[ Q ",
"^ .. . .n.h.h 0.w.w.w.w.6.                                                3.w.w.w.w.w.3 s.~.X...[ ^ ",
"^  .| | x.j.a 0.w.w.w.w.w.O                                             & w.w.w.w.w.8.7.8 ).=.{ ..! ",
"^  .| | Y.t.<.8.w.w.w.w.w.a                                             a w.w.w.w.w.6 X = |.$.{ [ ~ ",
"^ ..| X.{.8 2 6 w.w.w.w.w.8..                                         . w.w.w.w.w.w.0 u.K.P. .[ [ ~ ",
"^ ` [  ..XG x > w.w.w.w.w.w.0                                         4 w.w.w.w.w.w.d .Xx.[ [ ` [ Q ",
"^ ` ` ` $.Y.[.y 8.0.w.w.w.w.7.$                                     O 7.w.w.w.w.0.3.x /. .` ` ` ` Q ",
"^ | | ` [ @./.Z 2.0.w.w.w.w.w.1..                                   g 0.w.w.w.w.3 = j.N.{ [ [ { [ ~ ",
"^ | | ` | [ M.h.3 9.w.w.w.w.w.w.q .                               3 w.w.w.w.w.5.# D.Q.o.[ [ [ { [ ! ",
"! | } ` `  . .`.A 5 w.w.w.w.w.w.w.a                             w 0.w.w.w.w.w.: h.E.@.{ [ { [ { [ ! ",
"^  . .` `  .[ n.).= 0.0.w.w.w.w.w.w.<.- .                   % ,.0.w.w.w.w.w.w.x ].#.` { [ [ [ [ [ ~ ",
"^ |  .` [ | |  .I.B g 8.w.w.w.w.w.w.w.w.7.2.t ; - - - - t 4.w.w.w.w.w.w.0.9.4.F Y.{  . .{  ... .{ ~ ",
"^ .. .` [  .| | :.K., $ g 0.w.w.w.w.w.w.w.w.w.w.w.w.w.w.w.w.w.w.w.w.w.w.w.w 4 f.N.{ [ [ [  .[  .[ ~ ",
"^  .` ` ` | | [ [ U.S.l + 3.6.9.w.w.w.w.w.w.w.w.w.w.w.w.w.w.w.w.w.w.8.w.2.O m ).#.[ [ [ [ [ [ [ [ ~ ",
"^ ` ` ` ' ` ` ` ` ] n.].f.# ; - 7.w.w.w.w.w.w.w.w.w.w.w.w.w.w.w.w.3.: 4 , S.'.*.` ` ` ` ` [ ` [ ` Q ",
"^ [ ` ` [ [ ` ` ` [ { =.W.D.Z < * 2.5.w.w.w.w.w.w.w.w.w.w.w.w.w.8.; @ B ^.I.&.[ ` [ ` ` ` ` [ ` ` Q ",
"^ |  . .{ [ [ { .. . . ...c._.[.u.@   : 5.w.w.w.w.w.0.w.w.3.3 ; X n ].`.>.[ [ | [ ..{ [ ` { [ [ [ ~ ",
"^ |  .{  . .[ {  . . . ...| { @.C./.J.S # O & > ; & w w : # A F B._.c. ...[ { [ [ {  .` ` [ { { ..~ ",
"^ [ { [ [ ..{ {  . ...[ [ [ |  .[ +.b.W.!.k.e.Z Z Z Z Z D G.Q.C.M.X.] { [  .[ [ { { ..` ` [ { { [ ^ ",
"^ ..{ [ [ [ { { {  .[ { [ .. . ...{ ` ` O.>.b.M.N.B.Y.R.V.>.X.| ` ] [ ] [ | [  .{  .{ [ ` [ [ { | Q ",
"^ | [ [ [ [ { [ [ [ { [ [ ..{  ...[ ` ` [ ....[ | | | | |  ...| [ [ [ [  . .{ .... ...` [ [ { {  .Q ",
"^ [ | | [  .{ { [ [ ` [ ` [ [ [ [ [ [ [ [ | | [ [ [ [ [ [ [ ` [ [ { ` [ ` {  . . .{ { ` [ {  .{ | ^ ",
"^ ` ) ) ` [ ` ` [ ` _ ` ` _ _ _ _ _ ) ) ) ) ) ) ) ) ( ( ( ( ) ) ) ) ' [ ' [ ` ` ` ' ) ) ) ) _ ) _ ! ",
"/ R W / E R I I I I I W R P P I I I I I I I I I I I I I I I I E I I I P P I I E E W W W R W / / I U "
};
