/* XPM */
static char *_d3ace2b3d934ceaca7edf470ec8b583LOcBuAEXGmWvI8wk[] = {
/* columns rows colors chars-per-pixel */
"50 50 175 2 ",
"   c #864723",
".  c #8B4E2D",
"X  c #8E512E",
"o  c #955227",
"O  c #92542E",
"+  c #99572A",
"@  c #9C5A2C",
"#  c #935631",
"$  c #965833",
"%  c #9B5B32",
"&  c #A05D2F",
"*  c #A05E32",
"=  c #A26132",
"-  c #A96637",
";  c #AD6837",
":  c #AA6738",
">  c #AC6A3B",
",  c #B67142",
"<  c #BB7646",
"1  c #BE7847",
"2  c #BC7748",
"3  c #BF7A4C",
"4  c #BE7B4C",
"5  c #BF7B4C",
"6  c #BF794C",
"7  c #BE7C4C",
"8  c #BF7C4C",
"9  c #BE7C4D",
"0  c #BE7A4A",
"q  c #C07A49",
"w  c #C07A4A",
"e  c #C07B4A",
"r  c #C07A4B",
"t  c #C07B4B",
"y  c #C17B4B",
"u  c #C07C4A",
"i  c #C07C4B",
"p  c #C17C4B",
"a  c #C27C4B",
"s  c #C07A4C",
"d  c #C07B4C",
"f  c #C17B4C",
"g  c #C07A4D",
"h  c #C17B4D",
"j  c #C27B4D",
"k  c #C17B4E",
"l  c #C17B4F",
"z  c #C07C4C",
"x  c #C17C4C",
"c  c #C07D4C",
"v  c #C17D4C",
"b  c #C07C4D",
"n  c #C17C4D",
"m  c #C07D4D",
"M  c #C17D4D",
"N  c #C27C4C",
"B  c #C37C4C",
"V  c #C27D4C",
"C  c #C37D4C",
"Z  c #C27C4D",
"A  c #C37C4D",
"S  c #C27D4D",
"D  c #C37D4D",
"F  c #C27E4D",
"G  c #C37E4D",
"H  c #C07D4E",
"J  c #C17D4E",
"K  c #C17D4F",
"L  c #C27C4E",
"P  c #C37C4E",
"I  c #C27D4E",
"U  c #C37D4E",
"Y  c #C27C4F",
"T  c #C37C4F",
"R  c #C27D4F",
"E  c #C37D4F",
"W  c #C27E4E",
"Q  c #C37E4E",
"!  c #C37F4E",
"~  c #C27E4F",
"^  c #C37E4F",
"/  c #C37F4F",
"(  c #C47F4C",
")  c #C47D4F",
"_  c #C47E4E",
"`  c #C47F4E",
"'  c #C47E4F",
"]  c #C47F4F",
"[  c #C57F4F",
"{  c #C27D50",
"}  c #C37D50",
"|  c #C27E50",
" . c #C37E50",
".. c #C27F50",
"X. c #C37F50",
"o. c #C27E51",
"O. c #C37E51",
"+. c #C27F51",
"@. c #C37F51",
"#. c #C27F52",
"$. c #C37F52",
"%. c #C47E50",
"&. c #C47F50",
"*. c #C57F50",
"=. c #C47E51",
"-. c #C47F51",
";. c #C57F51",
":. c #C47F52",
">. c #C57F52",
",. c #C5804E",
"<. c #C4804F",
"1. c #C5804F",
"2. c #C6804E",
"3. c #C38050",
"4. c #C38051",
"5. c #C38052",
"6. c #C38152",
"7. c #C48050",
"8. c #C58050",
"9. c #C48150",
"0. c #C58150",
"q. c #C48051",
"w. c #C58051",
"e. c #C48151",
"r. c #C58151",
"t. c #C68050",
"y. c #C68150",
"u. c #C78150",
"i. c #C68051",
"p. c #C68151",
"a. c #C78250",
"s. c #C68251",
"d. c #C48052",
"f. c #C58052",
"g. c #C48152",
"h. c #C58152",
"j. c #C48153",
"k. c #C58153",
"l. c #C68152",
"z. c #C68153",
"x. c #C48252",
"c. c #C58252",
"v. c #C48253",
"b. c #C58253",
"n. c #C68252",
"m. c #C78252",
"M. c #C68352",
"N. c #C78352",
"B. c #C68253",
"V. c #C68353",
"C. c #C78353",
"Z. c #C58354",
"A. c #C78354",
"S. c #C88151",
"D. c #C88250",
"F. c #C88350",
"G. c #C98350",
"H. c #C88251",
"J. c #C98251",
"K. c #C88351",
"L. c #C98351",
"P. c #CA8251",
"I. c #CA8351",
"U. c #C98451",
"Y. c #CA8451",
"T. c #CB8451",
"R. c #C88452",
"E. c #C88453",
"W. c #C98453",
"Q. c #CA8452",
"!. c #CB8452",
"~. c #C88454",
"^. c #C98554",
"/. c #CA8554",
"(. c #CB8555",
/* pixels */
". O O O # # # $ $ % % $ $ $ $ % $ $ # # # # # O # # # $ # # # O # $ $ $ $ # # . . . X # # $ $ $ #   ",
", E.K.,.y.K.G.E.~.E.~.K.K.K.K.K.~.P.K.T.T.E.K.E.K.K.K.K.E.P.G.,.,.K.G.E./.K.P.K.K.K.~.~././.~.~.K.: ",
"> +.S S *.y.G.,.~.j.j.y.K.y.j.~.j.y.K.j.j.j.j.y.K.y.y.y.y.y.y.S S y.y.y.K.y.j.j.>.*.*.j.y.y.y.y.*.: ",
": S S 3 S D S f S +.y.6.D D D D T S *.y.y.6.y.*.D D D ,.y.*.+.y S +.6.y.D D *.y.>.+.} *.+.f S S f - ",
"> *.S i S ,.*.+.,.y.j.y.j.y.y.*.*.>.y.y.+.D D y.y.y.y.y.y.j.y.+.D Z.E.y.y.y.y.y.y.*.S D *.*.*.*.D : ",
"> *.+.8 D y.y.S D i ,.*.y.D 6.+.+.+.S S S *.S S S <.,.y.j.y.+.8 i ,.,.y.y.*.D S f S S S S +.6.y.D - ",
"> <.i 3 y +.+.S i 3 3 3 S f i S f 3 3 3 y i i i S S i i <.i S 3 8 i i 3 S S i 3 5 f f y f S D S D : ",
"> S 1 3 3 8 5 S 8 3 3 3 y 3 8 3 3 2 < 2 3 8 y 3 3 3 8 1 3 3 3 2 2 3 1 3 3 5 3 3 3 2 3 3 2 f f 3 y - ",
"> S S S y.j.6.y.j.6.6.+.y.D ,.S ,.D i 3 S S D D S <.S D 6.D S S 5 f f f f f S y.<.S S 3 y S D +.S : ",
"> S S S S *.y.y.*.y.*.y.D 6.y.,.y.,.i 3 y.y.D +.<.<.*.,.S D *.*.y.S S S S y.y.y.y.y.D 5 5 y.j.j.y.: ",
"> *.S S S *.+.6.*.S S *.y.,.y.y.y.y.S 3 D y.+.S S 6.S D f +.S S D ,.*.f +.+.*.6.y.*.y.S 3 S *.y.S > ",
"> D y.+.S +.*.y.*.S S +.D +.y.6.j.6.8 3 *.y.*.*.y.,.D S S S *.y.*.y.+.+.S *.y.y.y.y.,.i S D y.y.D - ",
"> y.y.6.+.S S S S f S D ,.,.y.y.y.y.S 5 y.D j.j.y.S S f S D *.y.6.y.j.6.6.y.y.6.6.6.6.S i D y.6.,.: ",
"> y.,.+.y.y.y.S +.S D ,.y.y.y.Z.j.6.S 3 ,.D y.y.*.*.S f f +.*.*.6.y.y.y.D *.y.y.*.y.y.f i ,.y.y.S > ",
"> S S S +.6.6.S +.S D S S <.S D ,.S S 3 i ,.S ,.+.S i S S S S S S <.6.y.y.6.,.S S S S S 8 i S S S - ",
"> 8 5 3 3 3 3 3 5 3 3 3 8 3 8 8 8 3 1 3 3 3 i 3 8 3 8 3 y 3 3 5 1 3 3 8 3 5 3 8 8 3 3 2 2 3 f 3 y - ",
"> S 8 3 S D S S S S S S S S S S i S S 8 S f S S S S S S S S S 3 f S S S S S S S S 5 5 2 5 f f +.y - ",
"> ,.i 8 S D *.D D D S y.D +.y.*.,.,.S S f D y.6.y.y.D *.y.y.S 3 *.j.y.*.*.*.+.y.y.*.D *.S S +.*.D - ",
"> y.S 3 D y.*.+.+.S D D y.y.6.y.j.y.S S S +.,.y.y.y.S D S S i 8 S *.+.+.+.D y.y.j.j.y.j.6.S 6.y.,.: ",
"> y.S 3 S y.D D D D +.S D 6.6.y.y.K.D +.S S S S +.*.+.S S S i 3 f D +.+.+.*.y.j.y.y.y.+.y.*.S S S : ",
"> y.+.3 S D y.+.j.*.S +.S S S f +.y.+.+.S +.S f +.S D S S f f 2 S D y.y.+.y.y.y.+.S f *.D D S S S - ",
"> j.S 3 S +.,.y.y.*.+.f S S S +.+.y.y.y.D f S S D ,.D S S f f 3 S ,.S *.D y.S D *.+.+.+.y.D S S D > ",
"> D S 3 S *.y.j.j.y.D D S y.,.S *.y.+.S y.D ,.S *.D ,.S S S f 3 i S S S S ,.S y.*.y.y.y.6.S S S i > ",
"> 8 3 1 5 S S 9 S S S S S 5 5 8 5 8 3 3 3 3 3 3 3 i y 3 y 3 3 2 3 S f 3 S S 8 S f 5 8 3 3 y i S y - ",
"> i 3 3 8 i y i f y y S 8 y 8 8 i i 3 < y 3 3 3 3 3 y y f S 3 3 3 y 3 3 3 y 8 5 i 3 i 3 3 i S S y - ",
"> ,.,.6.S ,.D S S S S D y.y.y.y.,.S y 3 y f S D S S D S S y.y.6.*.*.S S S S y.y.y.y.,.i 3 D +.S i - ",
"> y.y.y.*.+.D y.S +.D S *.y.y.6.,.,.3 3 f S S D S S S +.<.y.y.6.*.+.} f S S ,.y.6.y.,.i 3 S y.S D - ",
"> y.y.6.*.*.S +.y.6.y.6.y.+.6.*.,.y.y 3 D S S +.y.y.y.+.y.*.y.,.D +.f f S S *.D 6.y.D 3 3 ,.*.y.y.> ",
"> 6.y.D y.D ,.y.6.y.j.y.*.y.6.y.y.*.S 5 y.+.D D 6.y.j.y.6.6.y.y.y.y.y.+.,.S +.y.,.y.*.S 3 ,.,.6.*.> ",
"> y.y.y.6.*.y.6.y.,.y.y.S *.6.6.j.6.S 5 D D D *.S 6.y.,.,.y.j.j.j.y.j.j.y.,.*.y.y.6.6.f 3 D y.,.D - ",
"> y.6.D j.y.y.j.<.,.,.S y.*.,.y.,.,.S S D j.6.y.y.y.<.,.S <.y.+.y.+.y.,.*.+.6.D D ,.y.f 3 ,.D D D > ",
"> S S S S S S S S S S S 8 S S f 8 8 3 3 S S S S S S S S S S i S f S S S S S S S S S i 3 3 S S S i - ",
"> 8 8 3 3 3 8 3 8 3 5 3 8 8 3 < 2 3 2 3 3 1 3 3 3 3 8 1 y 3 3 3 2 i i 3 f 5 5 3 3 8 3 3 3 3 8 8 y - ",
"> <.S 3 S *.<.6.6.<.y.D S S S S +.S S S <.S +.S S ,.,.<.S S i 3 3 i D i D D S y.,.S *.S i S D i B - ",
"> ,.S 8 S ,.D D S y.y.*.,.6.,.y.*.y.y.y.,.y.y.y.j.y.6.6.y.6.S 3 f S ,.,.y.6.j.j.y.j.y.y.y.D D ,.D > ",
"> ,.i 3 S *.*.+.S S D *.<.y.S S S +.j.y.y.6.+.S +.y.D +.S ,.S 2 5 +.y.y.+.y.y.*.6.S S S S f +.S i > ",
"> y.<.3 i <.D S S S S *.<.y.y.+.S *.*.y.*.+.+.S +.D S S <.y.S 2 S *.y.*.*.+.y.+.+.f +.*.+.S D y.S - ",
"> y.S 3 S <.,.S S +.S S S D D f f S S D +.*.+.6.y.D y.S +.+.6.3 S *.S f S +.j.y.*.+.+.+.D y.*.6.6.- ",
"> j.6.3 S ,.<.<.D +.f S D y.,.S S f +.S *.y.y.y.y.*.*.*.+.+.D 3 f y.+.*.D y.*.y.+.} +.S ,.y.y.+.<.: ",
"> 6.S 3 S <.S <.,.D S S S D +.S S S S S +.*.,.S D S S ,.S ,.D 3 S S f S S D D +.D f S S S D D S 8 ; ",
"> i 3 3 1 3 3 3 3 3 3 2 3 8 8 3 3 2 3 3 3 1 8 8 3 y 3 3 1 3 3 2 3 5 5 5 3 y 3 f f 3 3 1 8 8 8 i 3 - ",
"> i 3 8 y 3 3 f i S S S S S i i 5 5 2 3 i S S S i i i 3 3 3 3 S 8 S 8 S S S S S y 5 3 3 1 3 y y 3 - ",
"> ,.y.6.6.D D y.y.j.j.j.6.y.y.y.j.+.8 f y.Z.j.6.,.y.y.+.S D 6.j.y.j.y.j.,.S *.S S +.j.S f +.S D S ; ",
"> ,.6.6.y.,.D D y.y.y.j.y.y.6.y.y.6.S f y.6.y.y.y.y.y.y.,.,.y.j.6.y.6.y.y.y.D +.*.*.6.f 3 f +.*.6.> ",
"> D *.S *.*.6.+.y.y.*.y.6.<.<.6.D +.y 5 S y.y.S 6.+.y.y.6.<.S S S +.S D S y.S S +.y.,.5 2 S *.*.<.- ",
"> ,.*.S S S *.+.+.6.*.S <.y.*.y.6.*.y 2 +.j.y.y.,.y.y.D y.j.y.j.S S S *.*.D y.y.+.j.y.S 3 S *.S <.; ",
"> y.D +.S *.*.D D S S +.S y.y.6.y.+.3 3 D y.y.*.y.y.y.,.,.y.y.,.S S S S +.y.y.y.y.y.y.+.S S y.y.<.; ",
"> ,.S ,.D *.6.+.S S f f S *.S S y.D i 8 +.y.+.S S S S S S S S i S +.S S S +.+.j.y.y.S S 8 S 6.j.<.- ",
"> 2 < 3 1 y 3 3 i 8 1 3 1 1 3 1 1 2 2 < 1 1 1 2 1 < < < > < < < 1 < 2 y y y 3 3 3 3 < 2 < 2 2 1 2 ; ",
"= * = % & % @ @ @ @ @ * = + + + @ + @ + + @ @ + + @ + @ @ & @ & @ @ @ + + @ @ @ & = = @ * & * * & o "
};
