/* XPM */
static char *_532435838584b8fead22fe76150480bL4Qz49DgQGfle5Oa[] = {
/* columns rows colors chars-per-pixel */
"50 50 170 2 ",
"   c #4F2913",
".  c #532D15",
"X  c #532E18",
"o  c #53311C",
"O  c #58331A",
"+  c #553623",
"@  c #563926",
"#  c #593A26",
"$  c #563C2B",
"%  c #5A3D2A",
"&  c #5C412D",
"*  c #5B4333",
"=  c #5F4937",
"-  c #5B4738",
";  c #5E4B3D",
":  c #62432D",
">  c #6B452B",
",  c #744426",
"<  c #71462B",
"1  c #634631",
"2  c #654934",
"3  c #6A4A33",
"4  c #614B3B",
"5  c #694E39",
"6  c #5F4E42",
"7  c #5E5245",
"8  c #5F564A",
"9  c #604E41",
"0  c #615245",
"q  c #655847",
"w  c #695847",
"e  c #62564A",
"r  c #6B5748",
"t  c #63594D",
"y  c #6C5D4D",
"u  c #645C52",
"i  c #6A5F50",
"p  c #705E50",
"a  c #74604F",
"s  c #676056",
"d  c #6B6153",
"f  c #676159",
"g  c #6A645C",
"h  c #6E685E",
"j  c #746455",
"k  c #786756",
"l  c #786857",
"z  c #726559",
"x  c #70695F",
"c  c #7B6D5E",
"v  c #6C6760",
"b  c #6D6961",
"n  c #716C62",
"m  c #7C7264",
"M  c #777269",
"N  c #797469",
"B  c #7D7A6E",
"V  c #7E7C70",
"C  c #864723",
"Z  c #814E2C",
"A  c #8A4D2A",
"S  c #955227",
"D  c #92542F",
"F  c #8C5432",
"G  c #8F5D3B",
"H  c #945632",
"J  c #945835",
"K  c #9F5E30",
"L  c #935E3B",
"P  c #9B5F3A",
"I  c #A15F32",
"U  c #9A6037",
"Y  c #9D633C",
"T  c #A26132",
"R  c #A96637",
"E  c #AD6837",
"W  c #A0663E",
"Q  c #AA6738",
"!  c #AC6A3B",
"~  c #835D41",
"^  c #946442",
"/  c #9F6740",
"(  c #A06741",
")  c #A46B44",
"_  c #A96E45",
"`  c #A66E48",
"'  c #A96F48",
"]  c #B37140",
"[  c #BC7746",
"{  c #BA7748",
"}  c #BE7A4A",
"|  c #837465",
" . c #837768",
".. c #817C6E",
"X. c #827E72",
"o. c #887F74",
"O. c #C37E4E",
"+. c #C27D4D",
"@. c #C47E4E",
"#. c #C47F4F",
"$. c #C57F4F",
"%. c #C27D4D",
"&. c #C37F51",
"*. c #C37E50",
"=. c #C47E50",
"-. c #C47F50",
";. c #C47F51",
":. c #C57F51",
">. c #C47F50",
",. c #838073",
"<. c #868073",
"1. c #838075",
"2. c #848174",
"3. c #858275",
"4. c #848176",
"5. c #858176",
"6. c #858277",
"7. c #858376",
"8. c #868376",
"9. c #868477",
"0. c #858275",
"q. c #898175",
"w. c #898275",
"e. c #8A8275",
"r. c #8A8176",
"t. c #8B8276",
"y. c #8A8276",
"u. c #878579",
"i. c #878478",
"p. c #858379",
"a. c #8B8378",
"s. c #8C8378",
"d. c #888579",
"f. c #88857A",
"g. c #88867A",
"h. c #8B867B",
"j. c #89867B",
"k. c #8A887D",
"l. c #8B897E",
"z. c #8B887E",
"x. c #8B8A7E",
"c. c #8C8A7F",
"v. c #8C897E",
"b. c #C5804E",
"n. c #C4804F",
"m. c #C5804F",
"M. c #C38051",
"N. c #C58050",
"B. c #C58150",
"V. c #C48051",
"C. c #C58051",
"Z. c #C78150",
"A. c #C58153",
"S. c #C48052",
"D. c #C58151",
"F. c #C98350",
"G. c #C88351",
"H. c #CA8351",
"J. c #C98554",
"K. c #CA8554",
"L. c #CB8555",
"P. c #8D8B80",
"I. c #8F8D83",
"U. c #8F8D83",
"Y. c #908D84",
"T. c #908E84",
"R. c #918E85",
"E. c #939087",
"W. c #949289",
"Q. c #9A978D",
/* pixels */
"A D H D D F > | h.z.v.g.z.g.9.9.9.3.<.9.3.6.3.3.3.u.3.6.3.o.3.3.3.3.3.6.u.g.u.o.o.a < H J J J H H C ",
"] J.G.b.b.' 2 w.T.g.g.u.9.u.9.,.B B B B V V V ..V ....V X.B ..B B X.X.u.u.u.u.u.9.k.o.1 ' J.L.H.F.E ",
"! &.+.+.N.` 2 w.c.u.9.9.u.<.x 5 * * & = * 2 1 * * 1 * 1 1 - * 1 1 * 0 b X.1.1.1.1.k.o.1 ` N.N.N.@.E ",
"! +.+.} +.) 3 w.z.u.9.9.u...3 z X.V ,.<.6.6.6.6.3.3.6.6.6.X.p.o.3.3.z 1 B o.1.<.1.k.o.1 ) +.+.+.+.R ",
"! :.+.+.+.) 5 w.c.u.g.g.u...5 z X.X.X.X.X.p.p.p.p.p.p.p.o.X.X.V 1.3.z 2 ..3.3.9.u.P.o.1 ) :.&.@.@.E ",
"! M.&.} @.) 1 o.c.g.g.g.g.o.5 z X.3.6.6.6.V V V X.p.X.p.p.p.X.V V V j 5 ..3.9.u.u.P.o.1 ) :.:.:.@.R ",
"! n.+.} +.) 1 q.c.x.c.g.g...5 l X.6.6.6.X.N N B X.V V X.p.o.X.X.V V j 5 ..a.g.u.u.U.s.2 ) +.@.+.+.R ",
"! +.} [ } ) 1 w.E.c.c.z.g.<.5 l X.X.X.6.o.V V V V V V V V V V V M m i 3 o.g.g.u.g.T.s.2 ( } } +.} R ",
"! +.+.+.:.) 1 w.T.z.z.k.v.q.5 l X.X.3.<.9.9.9.<.X.V V B M M M M m M y 3 <.g.g.u.u.T.h.1 ) +.b.N.+.Q ",
"! +.+.+.:.) 1 w.T.P.z.z.c.z.x.m k k z k k k z k l l k k k k k k k j m v.k.k.k.g.g.W.r.: ) M.A.A.N.Q ",
"! +.+.+.+.) : r.E.z.z.c.z.z.z.z.c.c.v.v.v.v.x.x.P.P.P.P.z.h.k.k.g.v.z.z.v.g.k.k.g.T.r.: Y +.N.N.@.! ",
"! N.b.&.=.) : z B 1.3.T.W.W.Q.W.W.W.W.W.E.W.W.W.E.E.E.E.W.W.T.W.W.W.W.W.W.W.W.E.o.x 0 o U N.A.N.@.R ",
"! N.N.M.M.) : d n M o.M n M n n x x x x x x x x x n n n x x x x x x x g g z g x N n 0 . Y b.N.N.b.R ",
"! N.N.N.n.) % i M X.n n n b b x x x x x x x x n n x n x n x x z g h z h z g z z h n z X U b.N.N.+.! ",
"! M.n.+.+.) # c M h h h b x x x h x x x n n n n n x n n n n n x n n n n h h h g g M z X U @.&.+.+.R ",
"! } } } } Y # x M x x h x h h h x x n x x n x x x n n x n n n n n n n n x h h h x n z X P } } } } R ",
"! +.+.} +.W # x n b h x x b n n n n n n n n n n x n n n n n n n b b n n n b b h h M g o Y } +.&.+.R ",
"! :.+.+.@.{ W 3 9 t 0 t e t t t t t u i u u d u t u t u u y t t t 8 t t t t e e w ; 3 Y { +.&.:.+.R ",
"! N.+.} +.@.@.+.P > * 9 9 9 7 7 7 7 e e e e e q t e e e 0 e 0 7 7 7 7 7 ; ; ; - : Y N.N.N.+.M.M.+.! ",
"! N.+.} +.b.b.+.+.{ ) < @ @ # @ % $ & & & - * = = * & & $ $ # # @ + + + @ + < _ } N.N.N.N.N.+.+.+.R ",
"! A.n.} +.N.N.:.:.&.+., * f f f f g g 6 * g g g g g g g h g h g v v v v v * , +.N.&.+.@.@.+.+.b.@.R ",
"! N.:.{ +.N.N.M.:.:.+., * f f f g f f 0 ; s g g g g g g h g g g v f f v h * , :.:.&.&.&.M.@.+.+.+.E ",
"! @.+.} +.N.N.M.N.&.:., * f g f f f f 0 ; s g g g g g g f v v g g v f v h * , @.N.b.N.M.N.+.+.+.+.! ",
"! } +.} } +.} &.+.+.+., * f f f f g g 7 ; s g s g g g v g g g g g g v g g * , +.} +.} +.} +.+.} } R ",
"! +.} } } +.} +.+.} +., $ f f f f f f 8 - 8 u f f g h f g h g g f f v f f - , } +.+.+.} { +.+.+.+.R ",
"! +.n.M.b.b.@.+.+.&.+.{ L * * * $ + $ + + + $ - 6 7 6 7 6 6 6 6 - 6 - - $ ~ { :.n.M.@.+.} +.n.+.+.R ",
"! N.G.G.N.+.+.:.&.+.N., * s f s f f f f f f f f f f f t * 7 f n b M M b b - < :.M.M.N.} } N.N.N.+.R ",
"! b.N.M.A.&.+.&.N.M.N., $ u u u u u 8 u u u u 8 8 u 8 7 * f v v v b v v v - , =.b.b.@.+.} @.N.N.@.R ",
"! M.N.b.N.+.N.N.A.A.A., $ 8 u 8 u u u 8 8 u 8 u 8 8 u 7 * u v v v v v b v * , N.N.N.N.+.} @.N.N.b.! ",
"! N.N.b.N.N.N.N.N.:.N., $ u u u u u u u u u 8 u u 8 u 7 - u v v v v b v v * , N.N.M.M.+.} b.N.N.@.! ",
"! G.n.M.A.A.A.N.:.:.&.> $ 8 8 8 8 u 8 u u 8 8 u 8 8 8 6 + u b v v v v v v * < b.N.N.N.+.} @.@.@.@.R ",
"! +.n.} n.+.+.} } } } { ~ $ + + $ $ + $ $ $ $ - $ $ + + + + + $ - $ * * * ^ } } } } } } } } +.+.+.R ",
"! } } } Y ~ d i a d y # * h b b v g 6 0 v v v v v v v v v v v v v v M v b - o & * & & * & > Z n.+.R ",
"! n.+.1 c 1.B B B B B * & g f f g g - 0 g u v u u u u v f f g f g f g v v * @ e q q q q t *   n.+.R ",
"! n.n.1 c u.B B B B V 1 * g g f g u ; 0 u v u g u v v u f f f f f f f f g % # t t w w q q *   n.@.R ",
"! b.n.3 m u.X.B B B V * * g f h g u ; 0 v u v u v u g f f f f f f f f f g % @ r t w i t t =   } +.! ",
"! M.n.1 m g.X.X.1.V V 1 * g g g h s ; 0 g f f f u v u u v u u f f f u f f $ % u t t i i i =   b.@.R ",
"! b.n.3 c g.<.,.,.,.1.N y : 4 4 ; 6 ; ; ; ; 7 7 6 6 6 6 6 $ $ $ $ $ $ $ $ 9 u u i i i d B j   M.:.Q ",
"! A.M.3 | g.<.3.1.1.X.2 2 b n M b b v b b b b b v v v v v v 6 - v v v v v % $ i d d g n 1.a   n.@.Q ",
"! N.M.3 c v.3.3.9.1.o.2 ; M b b b b v h h h v g v u u v u u 8 6 u g u g f $ % p d d h N 3.d   n.+.R ",
"! } } 3 | v.3.9.9.3.3.2 = M b b h h g g g g g g h f s u s s 8 7 f f f f f & # d d n B B 3.d   n.} R ",
"! b.} 3 c x.u.3.3.9.3.3 2 n b b h h h g v g h s u u f s f s 7 * s f f s f * # s N B B B 3.d   n.+.R ",
"! b.n.3 | g.3.9.9.3.3.3 4 n b h g z g g g s s s f f s s g g ; & u f s s f * $ s N B B B 3.i   n.b.Q ",
"! b.n.3 | v.9.9.3.9.3.3.l 1 1 : : : : & * & 1 : : & & & & & & & & & & % & q b B B B B B p.i   n.b.R ",
"! n.n.1 c c.3.w.3.9.3.3.9.,.,.<.,.,.,.,.,.,.....B B X.B V V B B ..B B m B B V B V V V V p.j   n.+.! ",
"! b.@.3 | x.w.9.9.3.3.3.9.9.3.3.3.3.,.,.,.3.<.X.X.1.,.,.X.V V V B B B B V V B B B V V V u.d   n.n.! ",
"! b.b.1  .Q.Q.Q.Q.E.W.W.W.T.T.E.W.W.E.W.E.E.W.W.E.E.E.T.E.T.T.T.E.T.E.T.U.U.U.U.U.U.T.T.T.k   N.b.R ",
"! b.b.O a N g x x g h h g h h h x h h n x x n n n x n b b h v h h g g g g g g g f g f g V i   N.b.R ",
"! [ [ . r M g x x g x x x g x x x x x x n x n n x n n h h h h h g g g g f g g f f f f f N y   [ [ E ",
"T T I . . X . . . O X . O . . . . . . . X . . . . .   .   . .                                 U K S "
};
